<svg width="18" height="18" viewBox="0 0 18 18" fill="none" xmlns="http://www.w3.org/2000/svg">
<path d="M10.677 3.96884C10.677 3.57893 10.677 3.38399 10.6342 3.22403C10.5179 2.78998 10.1788 2.45095 9.74487 2.33464C9.32367 2.22179 8.67635 2.22179 8.25515 2.33464C7.82112 2.45095 7.48211 2.78998 7.3658 3.22403C7.32295 3.38399 7.32295 3.57893 7.32295 3.96884C7.32295 4.75941 7.32295 6.83175 7.07735 7.07735C6.83175 7.32295 4.75941 7.32295 3.96884 7.32295C3.57893 7.32295 3.38399 7.32295 3.22403 7.3658C2.78998 7.48211 2.45095 7.82115 2.33464 8.25518C2.22179 8.67638 2.22179 9.32363 2.33464 9.74483C2.45095 10.1789 2.78998 10.5179 3.22403 10.6342C3.38399 10.6771 3.57893 10.6771 3.96884 10.6771C4.75941 10.6771 6.83175 10.6771 7.07735 10.9226C7.32295 11.1683 7.32295 11.5635 7.32295 12.3541C7.32295 12.744 7.32295 14.6161 7.3658 14.776C7.48211 15.21 7.82112 15.5491 8.25515 15.6653C8.67635 15.7782 9.32367 15.7782 9.74487 15.6653C10.1788 15.5491 10.5179 15.21 10.6342 14.776C10.677 14.6161 10.677 12.744 10.677 12.3541C10.677 11.5635 10.677 11.1683 10.9227 10.9226C11.1682 10.6771 13.2405 10.6771 14.0312 10.6771C14.421 10.6771 14.616 10.6771 14.776 10.6342C15.21 10.5179 15.549 10.1789 15.6654 9.74483C15.7782 9.32363 15.7782 8.67638 15.6654 8.25518C15.549 7.82115 15.21 7.48211 14.776 7.3658C14.616 7.32295 14.421 7.32295 14.0312 7.32295C13.2405 7.32295 11.1682 7.32295 10.9227 7.07735C10.677 6.83175 10.677 4.75941 10.677 3.96884Z" stroke="#03002F" stroke-width="1.5" stroke-linecap="round" stroke-linejoin="round"/>
</svg>
