<svg width="20" height="20" viewBox="0 0 20 20" fill="none" xmlns="http://www.w3.org/2000/svg">
<path d="M11.25 3.74984C11.25 4.4402 10.6903 4.99984 10 4.99984C9.30967 4.99984 8.75 4.4402 8.75 3.74984C8.75 3.05948 10 1.6665 10 1.6665C10 1.6665 11.25 3.05948 11.25 3.74984Z" stroke="#0A4BB8" stroke-width="1.5" stroke-linejoin="round"/>
<path d="M10 5V7.5" stroke="#0A4BB8" stroke-width="1.5" stroke-linecap="round" stroke-linejoin="round"/>
<path d="M14.7221 11.6667C16.0261 11.6667 17.0832 10.7339 17.0832 9.58333C17.0832 8.43275 16.0261 7.5 14.7221 7.5H5.27761C3.97361 7.5 2.9165 8.43275 2.9165 9.58333C2.9165 10.7339 3.97361 11.6667 5.27761 11.6667C6.4199 11.6667 7.41996 10.9509 7.63873 10C7.8575 10.9509 8.85759 11.6667 9.99984 11.6667C11.1421 11.6667 12.1422 10.9509 12.3609 10C12.5798 10.9509 13.5798 11.6667 14.7221 11.6667Z" stroke="#03002F" stroke-width="1.5" stroke-linejoin="round"/>
<path d="M4.1665 11.6665L4.60058 13.8162C5.0376 15.9805 5.25612 17.0627 5.99657 17.6979C6.73702 18.3332 7.7799 18.3332 9.86567 18.3332H10.134C12.2198 18.3332 13.2627 18.3332 14.0031 17.6979C14.7436 17.0627 14.9621 15.9805 15.3991 13.8162L15.8332 11.6665" stroke="#03002F" stroke-width="1.5" stroke-linecap="round" stroke-linejoin="round"/>
</svg>
