<svg width="52" height="54" viewBox="0 0 52 54" fill="none" xmlns="http://www.w3.org/2000/svg">
<g clip-path="url(#clip0_1717_6595)">
<path d="M33.9264 16.5333C33.4188 17.9732 32.8158 19.3765 32.1215 20.7337C31.3248 22.173 30.3122 23.4788 29.1187 24.6059C28.5144 25.1897 27.7096 25.5191 26.8668 25.5277C26.0239 25.5362 25.2058 25.2232 24.5774 24.6518C23.9014 24.0897 23.4599 23.2933 23.3417 22.4232C23.2236 21.5531 23.4376 20.6739 23.9407 19.9628C25.5211 17.3017 28.073 15.9335 30.7595 14.6415C30.8882 14.5873 31.0079 14.5139 31.1145 14.4238C31.2379 14.2963 31.3301 14.1416 31.3839 13.9717C32.4145 11.2108 29.9418 8.81861 27.8725 7.42852C26.5747 6.55604 25.1842 5.82195 23.947 4.86333C23.877 4.82069 23.8245 4.75431 23.7989 4.67638C23.792 4.60223 23.8115 4.52833 23.854 4.46787C24.4197 3.46618 25.4443 3.5788 26.4187 3.8382C30.0577 4.80967 33.6034 8.90586 34.0707 12.6218C34.1017 13.0245 34.1643 13.3646 34.1658 13.8275C34.6789 13.9685 35.1615 14.017 35.6118 14.1267C44.8701 16.3786 40.129 28.179 36.6005 33.226C33.5186 37.6366 29.631 41.5308 26.1867 45.6662L29.3617 45.9764C29.8747 46.027 30.471 46.1308 30.715 46.5905C30.7977 46.7827 30.8214 46.9947 30.783 47.1992C30.7446 47.4037 30.646 47.5913 30.4998 47.7377C30.2015 48.025 29.8363 48.2331 29.4367 48.3433C28.4784 48.6456 27.4961 48.8678 26.4997 49.0078C24.6677 49.3108 22.83 49.5785 20.9866 49.811C20.5488 49.9187 20.0853 49.8635 19.6813 49.6558C19.3379 49.3544 19.1204 48.934 19.0731 48.4803C18.5985 46.2473 18.6223 43.9416 19.1427 41.7298C19.2629 40.8709 19.6993 40.0918 20.366 39.5459C20.5452 39.4124 20.7662 39.3472 20.9902 39.3615C21.1471 39.3943 21.2922 39.4704 21.4093 39.5812C21.5263 39.692 21.6105 39.833 21.6525 39.9885C21.7318 40.3008 21.7518 40.6247 21.7115 40.9431L21.3801 46.0471C21.9413 45.6738 22.4554 45.2339 22.9112 44.7367C26.2733 41.0078 29.71 37.352 32.8524 33.4337C34.5315 31.272 35.9721 28.9323 37.1494 26.4553C37.8786 24.8909 38.2963 23.1956 38.3792 21.4639C38.6096 18.6052 37.0238 16.9596 33.9264 16.5333ZM30.7698 18.0863C30.6144 17.9308 30.4295 17.8365 30.2723 17.6822C28.8434 18.2531 27.5858 19.18 26.6168 20.3764C25.6958 21.5037 25.5743 22.3682 26.2429 22.8189C27.2697 23.41 27.9078 22.6851 28.4052 22.0062C29.262 20.6915 29.9624 19.379 30.771 18.0828L30.7698 18.0863Z" fill="url(#paint0_linear_1717_6595)"/>
</g>
<defs>
<linearGradient id="paint0_linear_1717_6595" x1="14.6073" y1="10.3504" x2="36.6525" y2="43.723" gradientUnits="userSpaceOnUse">
<stop stop-color="white"/>
<stop offset="0.61" stop-color="#0A4BB8"/>
<stop offset="1" stop-color="#03002F"/>
</linearGradient>
<clipPath id="clip0_1717_6595">
<rect width="35" height="40" fill="white" transform="translate(0 20) rotate(-33.4479)"/>
</clipPath>
</defs>
</svg>
