<svg width="20" height="20" viewBox="0 0 20 20" fill="none" xmlns="http://www.w3.org/2000/svg">
<path d="M15.8335 11.6665H16.8659C17.7917 11.6665 18.4861 12.5669 18.3045 13.532L18.0837 14.7053C17.8692 15.8457 16.9274 16.6665 15.8335 16.6665" stroke="#03002F" stroke-width="1.2"/>
<path d="M4.1665 11.6665H3.13411C2.20829 11.6665 1.51393 12.5669 1.69549 13.532L1.91623 14.7053C2.13076 15.8457 3.07259 16.6665 4.1665 16.6665" stroke="#03002F" stroke-width="1.2"/>
<path d="M15.2245 8.75008L15.6591 12.664C15.8923 15.3159 16.009 16.6418 15.2245 17.4876C14.4401 18.3334 13.0936 18.3334 10.4007 18.3334H9.599C6.90609 18.3334 5.55962 18.3334 4.77515 17.4876C3.99068 16.6418 4.10733 15.3159 4.34061 12.664L4.77515 8.75" stroke="#03002F" stroke-width="1.2" stroke-linejoin="round"/>
<path d="M12.5 4.1665C12.5 2.7858 11.3807 1.6665 10 1.6665C8.61925 1.6665 7.5 2.7858 7.5 4.1665" stroke="#0A4BB8" stroke-width="1.2"/>
<path d="M4.38459 7.39126C4.1761 6.21153 4.07186 5.62166 4.2795 5.1701C4.41813 4.86857 4.6482 4.61244 4.94075 4.4339C5.37891 4.1665 6.01298 4.1665 7.28111 4.1665H12.7186C13.9867 4.1665 14.6208 4.1665 15.0589 4.4339C15.3515 4.61244 15.5815 4.86857 15.7202 5.1701C15.9278 5.62166 15.8236 6.21153 15.6151 7.39126L15.5725 7.63235C15.4917 8.0898 15.4513 8.31853 15.3715 8.52892C15.2337 8.89234 15.0085 9.22075 14.7136 9.48842C14.5429 9.64334 14.3383 9.772 13.9293 10.0293C13.5446 10.2711 13.3523 10.392 13.149 10.4869C12.7981 10.6508 12.4207 10.7586 12.0323 10.8058C11.8073 10.8332 11.5762 10.8332 11.1139 10.8332H8.88575C8.4235 10.8332 8.19234 10.8332 7.96735 10.8058C7.57898 10.7586 7.20162 10.6508 6.8507 10.4869C6.64742 10.392 6.4551 10.2711 6.07045 10.0293C5.6613 9.772 5.45673 9.64334 5.28605 9.48842C4.99116 9.22075 4.766 8.89234 4.6282 8.52892C4.54845 8.31853 4.50803 8.0898 4.42719 7.63235L4.38459 7.39126Z" stroke="#03002F" stroke-width="1.2"/>
<path d="M10 8.33541L10.0073 8.3335" stroke="#0A4BB8" stroke-width="1.5" stroke-linecap="round" stroke-linejoin="round"/>
</svg>
