<svg width="18" height="18" viewBox="0 0 18 18" fill="none" xmlns="http://www.w3.org/2000/svg">
<g clip-path="url(#clip0_1417_39782)">
<path d="M14.25 10.5H15.1792C16.0123 10.5 16.6373 11.3104 16.4739 12.1789L16.2752 13.235C16.0822 14.2613 15.2345 15 14.25 15" stroke="white" stroke-width="1.2"/>
<path d="M3.75 10.5H2.82084C1.98761 10.5 1.36268 11.3104 1.52609 12.1789L1.72475 13.235C1.91783 14.2613 2.76548 15 3.75 15" stroke="white" stroke-width="1.2"/>
<path d="M13.7022 7.87508L14.0933 11.3976C14.3033 13.7843 14.4083 14.9777 13.7022 15.7388C12.9962 16.5001 11.7844 16.5001 9.36075 16.5001H8.63925C6.21563 16.5001 5.00381 16.5001 4.29779 15.7388C3.59176 14.9777 3.69674 13.7843 3.9067 11.3976L4.29779 7.875" stroke="white" stroke-width="1.2" stroke-linejoin="round"/>
<path d="M11.25 3.75C11.25 2.50736 10.2427 1.5 9 1.5C7.75732 1.5 6.75 2.50736 6.75 3.75" stroke="#3AD77E" stroke-width="1.2"/>
<path d="M3.94628 6.65228C3.75864 5.59052 3.66482 5.05964 3.85169 4.65323C3.97646 4.38186 4.18352 4.15134 4.44683 3.99065C4.84117 3.75 5.41183 3.75 6.55315 3.75H11.4469C12.5881 3.75 13.1588 3.75 13.5532 3.99065C13.8165 4.15134 14.0235 4.38186 14.1483 4.65323C14.3352 5.05964 14.2414 5.59052 14.0537 6.65228L14.0154 6.86926C13.9427 7.28097 13.9063 7.48682 13.8345 7.67618C13.7104 8.00325 13.5078 8.29883 13.2424 8.53973C13.0888 8.67915 12.9046 8.79495 12.5365 9.02648C12.1903 9.24413 12.0172 9.35295 11.8343 9.43838C11.5184 9.5859 11.1788 9.68288 10.8293 9.7254C10.6268 9.75 10.4187 9.75 10.0027 9.75H7.99733C7.5813 9.75 7.37325 9.75 7.17077 9.7254C6.82123 9.68288 6.48161 9.5859 6.16578 9.43838C5.98283 9.35295 5.80974 9.24413 5.46356 9.02648C5.09532 8.79495 4.9112 8.67915 4.7576 8.53973C4.49219 8.29883 4.28955 8.00325 4.16553 7.67618C4.09375 7.48682 4.05737 7.28097 3.98462 6.86926L3.94628 6.65228Z" stroke="white" stroke-width="1.2"/>
<path d="M9 7.50173L9.00653 7.5" stroke="#3AD77E" stroke-width="1.8" stroke-linecap="round" stroke-linejoin="round"/>
</g>
<defs>
<clipPath id="clip0_1417_39782">
<rect width="18" height="18" fill="white"/>
</clipPath>
</defs>
</svg>
