<svg width="20" height="20" viewBox="0 0 20 20" fill="none" xmlns="http://www.w3.org/2000/svg">
<path d="M4.23326 12.7471C3.21802 13.3613 0.556162 14.6156 2.17742 16.1851C2.96938 16.9517 3.85144 17.5001 4.96039 17.5001H11.2883C12.3973 17.5001 13.2793 16.9517 14.0713 16.1851C15.6925 14.6156 13.0307 13.3613 12.0154 12.7471C9.63477 11.3066 6.61395 11.3066 4.23326 12.7471Z" stroke="#03002F" stroke-width="1.5" stroke-linecap="round" stroke-linejoin="round"/>
<path d="M11.2507 5.83333C11.2507 7.67428 9.75823 9.16667 7.91732 9.16667C6.07637 9.16667 4.58398 7.67428 4.58398 5.83333C4.58398 3.99238 6.07637 2.5 7.91732 2.5C9.75823 2.5 11.2507 3.99238 11.2507 5.83333Z" stroke="#03002F" stroke-width="1.5"/>
<path d="M14.166 4.16663H18.3327" stroke="#0A4BB8" stroke-width="1.5" stroke-linecap="round" stroke-linejoin="round"/>
<path d="M14.166 6.66663H18.3327" stroke="#0A4BB8" stroke-width="1.5" stroke-linecap="round" stroke-linejoin="round"/>
<path d="M16.666 9.16663H18.3327" stroke="#0A4BB8" stroke-width="1.5" stroke-linecap="round" stroke-linejoin="round"/>
</svg>
