<svg width="20" height="20" viewBox="0 0 20 20" fill="none" xmlns="http://www.w3.org/2000/svg">
<g clip-path="url(#clip0_1434_923)">
<path d="M3.33398 8.33337V15.4167M6.66732 8.33337V15.4167" stroke="#0A4BB8" stroke-width="1.5"/>
<path d="M13.334 8.33337V15.4167M16.6673 8.33337V15.4167" stroke="#0A4BB8" stroke-width="1.5"/>
<path d="M1.66602 7.14085C1.66602 6.14403 2.068 5.53314 2.89987 5.07019L6.32424 3.16449C8.1186 2.16592 9.01577 1.66663 9.99935 1.66663C10.9829 1.66663 11.8801 2.16592 13.6744 3.16449L17.0988 5.07019C17.9307 5.53314 18.3327 6.14404 18.3327 7.14085C18.3327 7.41115 18.3327 7.5463 18.3032 7.65741C18.1481 8.24117 17.6191 8.33329 17.1083 8.33329H2.89042C2.37957 8.33329 1.85062 8.24116 1.69553 7.65741C1.66602 7.5463 1.66602 7.41115 1.66602 7.14085Z" stroke="#03002F" stroke-width="1.5"/>
<path d="M9.99609 5.83337H10.0036" stroke="#03002F" stroke-width="2" stroke-linecap="round" stroke-linejoin="round"/>
<path d="M15.8327 15.4166H4.16602C2.78531 15.4166 1.66602 16.5359 1.66602 17.9166C1.66602 18.1467 1.85257 18.3333 2.08268 18.3333H17.916C18.1461 18.3333 18.3327 18.1467 18.3327 17.9166C18.3327 16.5359 17.2134 15.4166 15.8327 15.4166Z" stroke="#03002F" stroke-width="1.5"/>
</g>
<defs>
<clipPath id="clip0_1434_923">
<rect width="20" height="20" fill="white"/>
</clipPath>
</defs>
</svg>
