<svg width="20" height="20" viewBox="0 0 20 20" fill="none" xmlns="http://www.w3.org/2000/svg">
<path d="M4.99935 13.3333C4.22437 13.3333 3.83688 13.3333 3.51897 13.2481C2.65624 13.017 1.98237 12.343 1.7512 11.4804C1.66602 11.1625 1.66602 10.775 1.66602 9.99996C1.66602 9.22496 1.66602 8.83746 1.7512 8.51954C1.98237 7.65685 2.65624 6.98298 3.51897 6.75181C3.83688 6.66663 4.22437 6.66663 4.99935 6.66663M9.99935 13.3333H14.9993C15.7743 13.3333 16.1618 13.3333 16.4798 13.2481C17.3424 13.017 18.0163 12.343 18.2475 11.4804C18.3327 11.1625 18.3327 10.775 18.3327 9.99996C18.3327 9.22496 18.3327 8.83746 18.2475 8.51954C18.0163 7.65685 17.3424 6.98298 16.4798 6.75181C16.1618 6.66663 15.7743 6.66663 14.9993 6.66663H9.99935" stroke="#03002F" stroke-width="1.5" stroke-linecap="round"/>
<path d="M5.83398 2.5H7.50065M7.50065 2.5H9.16732M7.50065 2.5V17.5M7.50065 17.5H5.83398M7.50065 17.5H9.16732" stroke="#0A4BB8" stroke-width="1.5" stroke-linecap="round" stroke-linejoin="round"/>
</svg>
