<svg width="20" height="20" viewBox="0 0 20 20" fill="none" xmlns="http://www.w3.org/2000/svg">
<path d="M11.666 7.49988H14.9993" stroke="#03002F" stroke-width="1.5" stroke-linecap="round"/>
<path d="M11.666 10.4166H14.166" stroke="#03002F" stroke-width="1.5" stroke-linecap="round"/>
<path d="M14.166 2.49988H5.83268C3.5315 2.49988 1.66602 4.36536 1.66602 6.66654V13.3332C1.66602 15.6344 3.5315 17.4999 5.83268 17.4999H14.166C16.4672 17.4999 18.3327 15.6344 18.3327 13.3332V6.66654C18.3327 4.36536 16.4672 2.49988 14.166 2.49988Z" stroke="#03002F" stroke-width="1.5" stroke-linejoin="round"/>
<path d="M4.16602 13.3333C5.17294 11.1824 8.92618 11.0409 9.99935 13.3333" stroke="#0A4BB8" stroke-width="1.5" stroke-linecap="round" stroke-linejoin="round"/>
<path d="M8.74935 7.49992C8.74935 8.42035 8.00316 9.1666 7.08268 9.1666C6.16221 9.1666 5.41602 8.42035 5.41602 7.49992C5.41602 6.57944 6.16221 5.83325 7.08268 5.83325C8.00316 5.83325 8.74935 6.57944 8.74935 7.49992Z" stroke="#0A4BB8" stroke-width="1.5"/>
</svg>
