<svg width="80" height="80" viewBox="0 0 80 80" fill="none" xmlns="http://www.w3.org/2000/svg">
<path d="M50 58.75C49.7547 64.923 44.6103 70.1647 37.7187 69.996C36.1153 69.9567 34.1337 69.398 30.1704 68.28C20.632 65.5893 12.3518 61.0677 10.3652 50.9383C10 49.0767 10 46.9813 10 42.791V37.209C10 33.0187 10 30.9235 10.3652 29.0615C12.3518 18.9322 20.632 14.4105 30.1704 11.7201C34.1337 10.6021 36.1153 10.0432 37.7187 10.004C44.6103 9.83536 49.7547 15.0769 50 21.25" stroke="#03002F" stroke-width="6" stroke-linecap="round"/>
<path d="M70.0007 40.0003H33.334M70.0007 40.0003C70.0007 37.6663 63.353 33.3054 61.6673 31.667M70.0007 40.0003C70.0007 42.3343 63.353 46.6953 61.6673 48.3337" stroke="#0A4BB8" stroke-width="6" stroke-linecap="round" stroke-linejoin="round"/>
</svg>
