<svg width="24" height="25" viewBox="0 0 24 25" fill="none" xmlns="http://www.w3.org/2000/svg">
<path d="M11.0215 7.28662V20.2866" stroke="#03002F" stroke-width="1.5" stroke-linecap="round"/>
<path d="M11 20C10.7777 20 10.3235 19.7579 9.41526 19.2738C8.4921 18.7818 7.2167 18.2922 5.5825 17.9849C3.74929 17.6401 2.83268 17.4678 2.41634 16.9588C2 16.4499 2 15.6347 2 14.0044V7.59655C2 5.81353 2 4.92202 2.6487 4.37302C3.29741 3.82401 4.05911 3.96725 5.5825 4.25372C8.58958 4.8192 10.3818 6.00205 11 6.68114C11.6182 6.00205 13.4104 4.8192 16.4175 4.25372C17.9409 3.96725 18.7026 3.82401 19.3513 4.37302C20 4.92202 20 5.81353 20 7.59655V10.5" stroke="#03002F" stroke-width="1.5" stroke-linecap="round" stroke-linejoin="round"/>
<path d="M20.8638 13.4393L21.5589 14.1317C22.147 14.7174 22.147 15.6672 21.5589 16.2529L17.9171 19.9485C17.6306 20.2338 17.2642 20.4262 16.8659 20.5003L14.6088 20.9883C14.2524 21.0653 13.9351 20.7502 14.0114 20.395L14.4919 18.1598C14.5663 17.7631 14.7594 17.3981 15.0459 17.1128L18.734 13.4393C19.3222 12.8536 20.2757 12.8536 20.8638 13.4393Z" stroke="#0A4BB8" stroke-width="1.5" stroke-linecap="round" stroke-linejoin="round"/>
</svg>
