<svg width="16" height="16" viewBox="0 0 16 16" fill="none" xmlns="http://www.w3.org/2000/svg">
<path d="M11 1.3335V3.66683M5 1.3335V3.66683" stroke="#03002F" stroke-width="1.2" stroke-linecap="round" stroke-linejoin="round"/>
<path d="M14 8.3335V7.66683C14 5.15267 14 3.8956 13.2189 3.11454C12.4379 2.3335 11.1808 2.3335 8.66667 2.3335H7.33333C4.81917 2.3335 3.5621 2.3335 2.78105 3.11454C2 3.8956 2 5.15267 2 7.66683V9.00016C2 11.5143 2 12.7714 2.78105 13.5524C3.5621 14.3335 4.81917 14.3335 7.33333 14.3335" stroke="#03002F" stroke-width="1.2" stroke-linecap="round" stroke-linejoin="round"/>
<path d="M2.33398 6H13.6673" stroke="#03002F" stroke-width="1.2" stroke-linecap="round" stroke-linejoin="round"/>
<path d="M11.3327 14.6668C12.8054 14.6668 13.9993 13.4729 13.9993 12.0002C13.9993 10.5274 12.8054 9.3335 11.3327 9.3335C9.85992 9.3335 8.66602 10.5274 8.66602 12.0002C8.66602 13.4729 9.85992 14.6668 11.3327 14.6668Z" stroke="#0A4BB8" stroke-width="1.2" stroke-linecap="round" stroke-linejoin="round"/>
<path d="M12.0007 12.6665L11.334 11.9998V10.6665" stroke="#0A4BB8" stroke-width="1.2" stroke-linecap="round" stroke-linejoin="round"/>
</svg>
