<svg width="20" height="20" viewBox="0 0 20 20" fill="none" xmlns="http://www.w3.org/2000/svg">
<g clip-path="url(#clip0_1275_11372)">
<path d="M16.666 7.49996C16.0033 4.17875 12.9267 1.66663 9.2321 1.66663C5.05392 1.66663 1.66602 4.8793 1.66602 8.84163C1.66602 10.7455 2.44784 12.4753 3.72314 13.759C4.00392 14.0416 4.19139 14.4278 4.11573 14.8252C3.99087 15.475 3.7079 16.0812 3.29356 16.5864C4.38371 16.7874 5.51724 16.6064 6.48936 16.0939C6.83301 15.9128 7.00482 15.8222 7.12607 15.8038C7.21095 15.791 7.32151 15.803 7.49935 15.8335" stroke="#03002F" stroke-width="1.5" stroke-linecap="round" stroke-linejoin="round"/>
<path d="M9.16602 13.5514C9.16602 15.9728 11.2183 17.9361 13.7493 17.9361C14.0469 17.9365 14.3437 17.909 14.636 17.8541C14.8464 17.8145 14.9517 17.7948 15.0251 17.806C15.0985 17.8172 15.2027 17.8726 15.4108 17.9833C15.9997 18.2965 16.6863 18.407 17.3468 18.2842C17.0958 17.9755 16.9243 17.6051 16.8487 17.208C16.8028 16.9651 16.9164 16.7291 17.0865 16.5564C17.8591 15.7719 18.3327 14.7148 18.3327 13.5514C18.3327 11.13 16.2803 9.16663 13.7493 9.16663C11.2183 9.16663 9.16602 11.13 9.16602 13.5514Z" stroke="#0A4BB8" stroke-width="1.5" stroke-linejoin="round"/>
</g>
<defs>
<clipPath id="clip0_1275_11372">
<rect width="20" height="20" fill="white"/>
</clipPath>
</defs>
</svg>
