<svg width="20" height="20" viewBox="0 0 20 20" fill="none" xmlns="http://www.w3.org/2000/svg">
<path d="M12.1123 3.81757C11.7962 3.77304 11.4731 3.75 11.1444 3.75C8.58117 3.75 6.35049 5.15189 5.20045 7.21931M16.4276 6.24544C17.3593 7.38748 17.9167 8.838 17.9167 10.4167C17.9167 11.5632 17.6227 12.6421 17.1048 13.5843M13.2347 16.7597C12.5764 16.9698 11.8738 17.0833 11.1444 17.0833C7.98573 17.0833 5.33211 14.9545 4.58334 12.0748" stroke="#03002F" stroke-width="1.5"/>
<path d="M17.0833 4.58325C17.0833 5.96396 15.9641 7.08325 14.5833 7.08325C13.2026 7.08325 12.0833 5.96396 12.0833 4.58325C12.0833 3.20254 13.2026 2.08325 14.5833 2.08325C15.9641 2.08325 17.0833 3.20254 17.0833 4.58325Z" stroke="#0A4BB8" stroke-width="1.5"/>
<path d="M7.08334 9.58325C7.08334 10.964 5.96404 12.0833 4.58334 12.0833C3.20263 12.0833 2.08334 10.964 2.08334 9.58325C2.08334 8.20254 3.20263 7.08325 4.58334 7.08325C5.96404 7.08325 7.08334 8.20254 7.08334 9.58325Z" stroke="#0A4BB8" stroke-width="1.5"/>
<path d="M17.9167 15.4167C17.9167 16.7975 16.7974 17.9167 15.4167 17.9167C14.0359 17.9167 12.9167 16.7975 12.9167 15.4167C12.9167 14.036 14.0359 12.9167 15.4167 12.9167C16.7974 12.9167 17.9167 14.036 17.9167 15.4167Z" stroke="#0A4BB8" stroke-width="1.5"/>
</svg>
