<svg width="16" height="16" viewBox="0 0 16 16" fill="none" xmlns="http://www.w3.org/2000/svg">
<g clip-path="url(#clip0_1458_8493)">
<path d="M9.68921 3.05406C9.43628 3.01843 9.17781 3 8.91488 3C6.86428 3 5.07974 4.12151 4.15971 5.77545M13.1414 4.99635C13.8867 5.90998 14.3327 7.0704 14.3327 8.33333C14.3327 9.25053 14.0975 10.1137 13.6832 10.8675M10.5871 13.4078C10.0605 13.5759 9.49841 13.6667 8.91488 13.6667C6.38793 13.6667 4.26504 11.9636 3.66602 9.65987" stroke="#03002F" stroke-width="1.5"/>
<path d="M13.666 3.66669C13.666 4.77125 12.7706 5.66669 11.666 5.66669C10.5614 5.66669 9.66602 4.77125 9.66602 3.66669C9.66602 2.56212 10.5614 1.66669 11.666 1.66669C12.7706 1.66669 13.666 2.56212 13.666 3.66669Z" stroke="#0A4BB8" stroke-width="1.5"/>
<path d="M5.66602 7.66669C5.66602 8.77129 4.77058 9.66669 3.66602 9.66669C2.56145 9.66669 1.66602 8.77129 1.66602 7.66669C1.66602 6.56212 2.56145 5.66669 3.66602 5.66669C4.77058 5.66669 5.66602 6.56212 5.66602 7.66669Z" stroke="#0A4BB8" stroke-width="1.5"/>
<path d="M14.334 12.3333C14.334 13.4379 13.4386 14.3333 12.334 14.3333C11.2294 14.3333 10.334 13.4379 10.334 12.3333C10.334 11.2287 11.2294 10.3333 12.334 10.3333C13.4386 10.3333 14.334 11.2287 14.334 12.3333Z" stroke="#0A4BB8" stroke-width="1.5"/>
</g>
<defs>
<clipPath id="clip0_1458_8493">
<rect width="16" height="16" fill="white"/>
</clipPath>
</defs>
</svg>
