<svg width="20" height="20" viewBox="0 0 20 20" fill="none" xmlns="http://www.w3.org/2000/svg">
<path d="M14.7507 17.7791C13.774 17.9164 12.5003 17.9164 10.7924 17.9164H9.20902C5.85023 17.9164 4.17085 17.9164 3.12742 16.8729C2.08398 15.8295 2.08398 14.1501 2.08398 10.7914V9.20804C2.08398 5.84925 2.08398 4.16987 3.12742 3.12643C4.17085 2.08301 5.85023 2.08301 9.20902 2.08301H10.7924C14.1511 2.08301 15.8304 2.08301 16.8739 3.12643C17.9174 4.16987 17.9173 5.84925 17.9173 9.20804V10.7914C17.9173 11.7982 17.9174 12.6541 17.8892 13.3872C17.8667 13.9748 17.8554 14.2685 17.6329 14.3783C17.4104 14.4881 17.1616 14.312 16.6638 13.9599L15.5424 13.1664" stroke="#03002F" stroke-width="1.5" stroke-linecap="round" stroke-linejoin="round"/>
<path d="M12.4538 10.3287C12.3065 10.8509 11.6104 11.22 10.2184 11.9582C8.87268 12.6717 8.19985 13.0285 7.65762 12.8851C7.43343 12.8258 7.22918 12.7132 7.06445 12.558C6.66602 12.1828 6.66602 11.4551 6.66602 9.99967C6.66602 8.54426 6.66602 7.81649 7.06445 7.4413C7.22918 7.28618 7.43343 7.17357 7.65762 7.11428C8.19985 6.97087 8.87268 7.32765 10.2184 8.0412C11.6104 8.77934 12.3065 9.14842 12.4538 9.67067C12.5145 9.88626 12.5145 10.1131 12.4538 10.3287Z" stroke="#0A4BB8" stroke-width="1.5" stroke-linejoin="round"/>
</svg>
