<svg width="16" height="16" viewBox="0 0 16 16" fill="none" xmlns="http://www.w3.org/2000/svg">
<path d="M4.66602 3.30328H10.3326C10.8849 3.30328 11.3326 3.75212 11.3326 4.30579V5.3083" stroke="#03002F" stroke-width="1.2" stroke-linecap="round" stroke-linejoin="round"/>
<path d="M12.0046 1.33459L3.87301 1.33461C3.54149 1.33461 3.2024 1.383 2.93442 1.57866C2.08471 2.19907 1.42989 3.58271 2.75225 4.8319C3.12355 5.18266 3.64253 5.30981 4.1527 5.30981H11.8621C12.3915 5.30981 13.3408 5.38516 13.3408 6.9929M2.00407 3.43565L2.02641 11.9987C2.11087 13.5722 3.18002 14.6056 4.65005 14.6056H7.96793" stroke="#03002F" stroke-width="1.2" stroke-linecap="round"/>
<path d="M12.666 11.6667L13.6295 12.309C14.0858 12.6132 14.3139 12.7653 14.4899 12.6711C14.666 12.5769 14.666 12.3027 14.666 11.7544V10.9124C14.666 10.364 14.666 10.0898 14.4899 9.99564C14.3139 9.90144 14.0858 10.0535 13.6295 10.3577L12.666 11M12.666 11.6667V11M12.666 11.6667C12.666 12.2898 12.666 12.6013 12.532 12.8334C12.4443 12.9854 12.318 13.1116 12.166 13.1994C11.9339 13.3334 11.6224 13.3334 10.9993 13.3334H10.666C9.72322 13.3334 9.25182 13.3334 8.95888 13.0405C8.66602 12.7476 8.66602 12.2762 8.66602 11.3334C8.66602 10.3906 8.66602 9.91917 8.95888 9.62624C9.25182 9.33337 9.72322 9.33337 10.666 9.33337H10.9993C11.6224 9.33337 11.9339 9.33337 12.166 9.46737C12.318 9.55511 12.4443 9.68137 12.532 9.83337C12.666 10.0654 12.666 10.377 12.666 11" stroke="#0A4BB8" stroke-width="1.2" stroke-linejoin="round"/>
</svg>
