<svg width="80" height="80" viewBox="0 0 80 80" fill="none" xmlns="http://www.w3.org/2000/svg">
<path d="M65 18.333L63.6607 36.687M15 18.333L17.0154 51.749C17.5315 60.307 17.7896 64.586 19.9289 67.663C20.9867 69.1843 22.3493 70.4687 23.9302 71.4337C26.1678 72.7997 28.9369 73.21 33.3333 73.333" stroke="#03002F" stroke-width="6" stroke-linecap="round"/>
<path d="M10 18.3337H70M53.519 18.3337L51.2437 13.6394C49.732 10.5212 48.976 8.96206 47.6723 7.98969C47.3833 7.77399 47.077 7.58213 46.7567 7.41599C45.313 6.66699 43.5803 6.66699 40.115 6.66699C36.5627 6.66699 34.7867 6.66699 33.3189 7.44739C32.9937 7.62036 32.6833 7.81999 32.391 8.04423C31.0721 9.05599 30.3354 10.6722 28.862 13.9045L26.8431 18.3337" stroke="#03002F" stroke-width="6" stroke-linecap="round"/>
</svg>
