<svg width="24" height="24" viewBox="0 0 24 24" fill="none" xmlns="http://www.w3.org/2000/svg">
<path d="M19.5 5.5L19.0982 11.0062M4.5 5.5L5.10461 15.5248C5.25945 18.0922 5.33688 19.3759 5.97868 20.299C6.296 20.7554 6.7048 21.1407 7.17905 21.4302C7.85035 21.84 8.68108 21.9631 10 22" stroke="#03002F" stroke-width="1.5" stroke-linecap="round"/>
<path d="M3 5.5H21M16.0557 5.5L15.3731 4.09173C14.9196 3.15626 14.6928 2.68852 14.3017 2.39681C14.215 2.3321 14.1231 2.27454 14.027 2.2247C13.5939 2 13.0741 2 12.0345 2C10.9688 2 10.436 2 9.99568 2.23412C9.8981 2.28601 9.80498 2.3459 9.71729 2.41317C9.32164 2.7167 9.10063 3.20155 8.65861 4.17126L8.05292 5.5" stroke="#03002F" stroke-width="1.5" stroke-linecap="round"/>
<path d="M14.3913 19.5976C13.8411 19.9079 12.3985 20.5417 13.2771 21.3347C13.7063 21.7221 14.1843 21.9991 14.7854 21.9991H18.2147C18.8156 21.9991 19.2936 21.7221 19.7228 21.3347C20.6015 20.5417 19.1589 19.9079 18.6087 19.5976C17.3185 18.8698 15.6815 18.8698 14.3913 19.5976Z" stroke="#0A4BB8" stroke-width="1.5"/>
<path d="M18.25 15.6842C18.25 16.6144 17.4664 17.3684 16.5 17.3684C15.5335 17.3684 14.75 16.6144 14.75 15.6842C14.75 14.754 15.5335 14 16.5 14C17.4664 14 18.25 14.754 18.25 15.6842Z" stroke="#0A4BB8" stroke-width="1.5"/>
</svg>
