<svg width="16" height="16" viewBox="0 0 16 16" fill="none" xmlns="http://www.w3.org/2000/svg">
<path d="M5.33398 4.66663H10.6673" stroke="white" stroke-width="1.5" stroke-linecap="round" stroke-linejoin="round"/>
<path d="M5.33398 7.33337H8.00065" stroke="white" stroke-width="1.5" stroke-linecap="round" stroke-linejoin="round"/>
<path d="M8.66602 14.3334V14C8.66602 12.1144 8.66602 11.1716 9.25182 10.5858C9.83762 10 10.7804 10 12.666 10H12.9993M13.3327 8.89544V6.66671C13.3327 4.15255 13.3327 2.89547 12.5516 2.11442C11.7706 1.33337 10.5135 1.33337 7.99935 1.33337C5.4852 1.33337 4.22812 1.33337 3.44706 2.11442C2.66602 2.89547 2.66602 4.15255 2.66602 6.66671V9.69617C2.66602 11.8595 2.66602 12.9412 3.25673 13.6738C3.37607 13.8218 3.51089 13.9566 3.6589 14.076C4.39156 14.6667 5.47323 14.6667 7.63655 14.6667C8.10695 14.6667 8.34208 14.6667 8.55748 14.5907C8.60228 14.5749 8.64615 14.5567 8.68902 14.5362C8.89508 14.4376 9.06135 14.2714 9.39395 13.9388L12.5516 10.7811C12.937 10.3957 13.1297 10.203 13.2312 9.95797C13.3327 9.71297 13.3327 9.44044 13.3327 8.89544Z" stroke="white" stroke-width="1.5" stroke-linecap="round" stroke-linejoin="round"/>
</svg>
