<svg width="16" height="16" viewBox="0 0 16 16" fill="none" xmlns="http://www.w3.org/2000/svg">
<path d="M4.67578 10.6686H7.34246M4.67578 7.33691H10.0091" stroke="#03002F" stroke-width="1.2" stroke-linecap="round"/>
<path d="M6.67578 14.667H7.34245" stroke="#0A4BB8" stroke-width="1.2" stroke-linecap="round"/>
<path d="M5.00714 14.6663C4.22606 14.6497 3.69273 14.5997 3.17606 14.4498C2.47653 14.2665 1.96595 13.6502 1.81606 12.7839C1.62606 11.9676 1.69273 9.95198 1.67603 7.55318C1.67741 5.69221 1.59272 3.90496 1.89272 2.8888C2.07605 2.55562 2.22605 1.33956 4.70939 1.35622C5.12606 1.33956 9.54272 1.30624 10.2427 1.37287C12.5761 1.42285 12.8094 2.62226 12.9427 3.75504C13.0273 4.58796 13.0094 5.92064 13.0094 7.33658M4.67606 1.33956C4.87606 2.42236 4.85939 3.12201 5.59273 3.2886C5.90939 3.33857 6.63292 3.33724 7.40939 3.33857C8.10245 3.33976 8.80939 3.34602 9.12605 3.27194C9.90939 3.0887 9.82605 2.1225 10.0261 1.33956" stroke="#03002F" stroke-width="1.2" stroke-linecap="round"/>
<path d="M12.1853 9.58564C11.2693 10.5185 9.5038 12.1844 9.5038 12.301C9.3614 12.4987 9.23727 12.9006 9.154 13.467C9.0494 13.9921 8.92414 14.4499 9.07074 14.5832C9.21734 14.7164 9.76927 14.6041 10.3532 14.4832C10.8195 14.4332 11.2526 14.2666 11.4691 14.1001C11.7856 13.8201 13.9341 11.6513 14.184 11.3681C14.3672 11.1182 14.3839 10.6518 14.2239 10.3686C14.134 10.1687 13.5677 9.63557 13.3845 9.48571C13.0514 9.28577 12.5851 9.25244 12.1853 9.58564Z" stroke="#0A4BB8" stroke-width="1.2" stroke-linecap="round"/>
</svg>
