<svg width="20" height="20" viewBox="0 0 20 20" fill="none" xmlns="http://www.w3.org/2000/svg">
<path d="M5.83325 7.0835L8.28494 8.533C9.71425 9.37808 10.2856 9.37808 11.7149 8.533L14.1666 7.0835" stroke="#0A4BB8" stroke-width="1.5" stroke-linecap="round" stroke-linejoin="round"/>
<path d="M1.67989 11.2295C1.73437 13.7841 1.7616 15.0614 2.70421 16.0076C3.64682 16.9539 4.95869 16.9868 7.58244 17.0527C9.1995 17.0934 10.8007 17.0934 12.4178 17.0527C15.0415 16.9868 16.3533 16.9539 17.2959 16.0076C18.2386 15.0614 18.2658 13.7841 18.3203 11.2295C18.3378 10.4081 18.3378 9.59153 18.3203 8.7702C18.2658 6.21555 18.2386 4.93825 17.2959 3.99205C16.3533 3.04586 15.0415 3.0129 12.4178 2.94698C10.8007 2.90635 9.1995 2.90635 7.58244 2.94697C4.95869 3.01289 3.64682 3.04585 2.70421 3.99205C1.7616 4.93824 1.73436 6.21555 1.67989 8.77011C1.66237 9.59153 1.66237 10.4081 1.67989 11.2295Z" stroke="#03002F" stroke-width="1.5" stroke-linejoin="round"/>
</svg>
