<svg width="18" height="18" viewBox="0 0 18 18" fill="none" xmlns="http://www.w3.org/2000/svg">
<path d="M1.875 4.5L6 3L10.125 4.5L8.25 5.625V6.75C8.25 6.75 7.74998 6.375 6 6.375C4.25 6.375 3.75 6.75 3.75 6.75V5.625L1.875 4.5ZM1.875 4.5V7.5" stroke="#0A4BB8" stroke-width="1.2" stroke-linecap="round" stroke-linejoin="round"/>
<path d="M8.25 6.375V7.04167C8.25 8.33033 7.24264 9.375 6 9.375C4.75736 9.375 3.75 8.33033 3.75 7.04167V6.375" stroke="#0A4BB8" stroke-width="1.2" stroke-linecap="round" stroke-linejoin="round"/>
<path d="M11.4887 8.27205C11.4887 8.27205 11.8522 8.00738 13.125 8.00738C14.3978 8.00738 14.7614 8.27205 14.7614 8.27205M11.4887 8.27205V7.5L10.125 6.75L13.125 5.625L16.125 6.75L14.7614 7.5V8.27205M11.4887 8.27205V8.48865C11.4887 9.3924 12.2212 10.125 13.125 10.125C14.0288 10.125 14.7614 9.3924 14.7614 8.48865V8.27205" stroke="#0A4BB8" stroke-width="1.2" stroke-linecap="round" stroke-linejoin="round"/>
<path d="M3.28879 11.9445C2.5814 12.3394 0.726682 13.1457 1.85633 14.1547C2.40815 14.6475 3.02275 15 3.79543 15H8.20455C8.97727 15 9.59183 14.6475 10.1437 14.1547C11.2733 13.1457 9.41857 12.3394 8.71117 11.9445C7.05241 11.0185 4.94759 11.0185 3.28879 11.9445Z" stroke="#03002F" stroke-width="1.2" stroke-linecap="round" stroke-linejoin="round"/>
<path d="M12 15H14.7786C15.3581 15 15.8191 14.718 16.2329 14.3237C17.0802 13.5166 15.6892 12.8715 15.1586 12.5556C14.2022 11.986 13.0479 11.8544 12 12.1606" stroke="#03002F" stroke-width="1.2" stroke-linecap="round" stroke-linejoin="round"/>
</svg>
