<svg width="20" height="20" viewBox="0 0 20 20" fill="none" xmlns="http://www.w3.org/2000/svg">
<path d="M1.6665 6.66667C1.6665 6.66667 5.39746 2.5 9.99984 2.5C14.6022 2.5 18.3332 6.66667 18.3332 6.66667" stroke="#0A4BB8" stroke-width="1.5" stroke-linecap="round"/>
<path d="M17.9532 10.8708C18.2065 11.2261 18.3332 11.4037 18.3332 11.6666C18.3332 11.9296 18.2065 12.1072 17.9532 12.4625C16.8148 14.0588 13.9075 17.5 9.99984 17.5C6.09215 17.5 3.18492 14.0588 2.04654 12.4625C1.79318 12.1072 1.6665 11.9296 1.6665 11.6666C1.6665 11.4037 1.79318 11.2261 2.04654 10.8708C3.18492 9.27448 6.09215 5.83331 9.99984 5.83331C13.9075 5.83331 16.8148 9.27448 17.9532 10.8708Z" stroke="#03002F" stroke-width="1.5"/>
<path d="M12.5 11.6667C12.5 10.2859 11.3807 9.16669 10 9.16669C8.61925 9.16669 7.5 10.2859 7.5 11.6667C7.5 13.0474 8.61925 14.1667 10 14.1667C11.3807 14.1667 12.5 13.0474 12.5 11.6667Z" stroke="#0A4BB8" stroke-width="1.5"/>
</svg>
