<svg width="20" height="20" viewBox="0 0 20 20" fill="none" xmlns="http://www.w3.org/2000/svg">
<path d="M1.95884 11.0112C1.66466 9.09679 1.51757 8.13965 1.87949 7.29111C2.24141 6.44256 3.04437 5.86198 4.6503 4.70084L5.85017 3.83329C7.84792 2.38885 8.84678 1.66663 9.99937 1.66663C11.1519 1.66663 12.1508 2.38885 14.1485 3.83329L15.3484 4.70084C16.9544 5.86198 17.7573 6.44256 18.1192 7.29111C18.4811 8.13965 18.334 9.09679 18.0399 11.0112L17.789 12.6436C17.3719 15.3574 17.1634 16.7143 16.1902 17.5238C15.2169 18.3333 13.794 18.3333 10.9484 18.3333H9.05037C6.20463 18.3333 4.78177 18.3333 3.80852 17.5238C2.83526 16.7143 2.62674 15.3574 2.20971 12.6436L1.95884 11.0112Z" stroke="#03002F" stroke-width="1.5" stroke-linejoin="round"/>
</svg>
