<svg width="20" height="20" viewBox="0 0 20 20" fill="none" xmlns="http://www.w3.org/2000/svg">
<path d="M15.8327 9.28504C15.5618 9.24579 15.2835 9.21596 14.9993 9.19604M4.99935 10.8049C4.71516 10.785 4.43694 10.7551 4.16602 10.7159" stroke="#03002F" stroke-width="1.5" stroke-linecap="round" stroke-linejoin="round"/>
<path d="M9.99935 16.25C8.88893 16.7686 7.43024 17.0833 5.83268 17.0833C4.94442 17.0833 4.09909 16.986 3.33268 16.8105C2.08232 16.524 1.66602 15.772 1.66602 14.4883V5.5116C1.66602 4.69091 2.53271 4.12723 3.33268 4.31046C4.09909 4.486 4.94442 4.58329 5.83268 4.58329C7.43024 4.58329 8.88893 4.26859 9.99935 3.74996C11.1098 3.23133 12.5684 2.91663 14.166 2.91663C15.0543 2.91663 15.8996 3.01392 16.666 3.18946C17.9841 3.49136 18.3327 4.26693 18.3327 5.5116V14.4883C18.3327 15.309 17.466 15.8727 16.666 15.6895C15.8996 15.5139 15.0543 15.4166 14.166 15.4166C12.5684 15.4166 11.1098 15.7313 9.99935 16.25Z" stroke="#03002F" stroke-width="1.5"/>
<path d="M10.0007 7.49996C9.08015 7.49996 8.33398 8.0596 8.33398 8.74996C8.33398 9.44032 9.08015 9.99996 10.0007 9.99996C10.9212 9.99996 11.6673 10.5596 11.6673 11.25C11.6673 11.9403 10.9212 12.5 10.0007 12.5M10.0007 7.49996C10.7263 7.49996 11.3437 7.84779 11.5725 8.33329M10.0007 7.49996V6.66663M10.0007 12.5C9.27498 12.5 8.65765 12.1521 8.42882 11.6666M10.0007 12.5V13.3333" stroke="#0A4BB8" stroke-width="1.5" stroke-linecap="round"/>
</svg>
