<svg width="32" height="32" viewBox="0 0 32 32" fill="none" xmlns="http://www.w3.org/2000/svg">
<path d="M17.3332 4.00308C16.7064 4 16.0408 4 15.3332 4C9.36205 4 6.37649 4 4.52149 5.85499C2.6665 7.70999 2.6665 10.6955 2.6665 16.6667C2.6665 22.6377 2.6665 25.6233 4.52149 27.4784C6.37649 29.3333 9.36205 29.3333 15.3332 29.3333C21.3042 29.3333 24.2898 29.3333 26.1449 27.4784C27.9294 25.6937 27.9972 22.8627 27.9997 17.3333" stroke="#03002F" stroke-width="2" stroke-linecap="round"/>
<path d="M2.6665 18.8472C3.49186 18.7273 4.32629 18.6681 5.16212 18.6703C8.69804 18.5955 12.1474 19.6972 14.8946 21.7789C17.4425 23.7095 19.2328 26.3665 19.9998 29.3333" stroke="#03002F" stroke-width="2" stroke-linejoin="round"/>
<path d="M28 22.5283C26.4328 21.7345 24.8117 21.3317 23.1816 21.3335C20.7127 21.3237 18.2687 22.2311 16 24" stroke="#03002F" stroke-width="2" stroke-linejoin="round"/>
<path d="M22.6665 6.00002C23.3218 5.32575 25.0662 2.66669 25.9998 2.66669M25.9998 2.66669C26.9334 2.66669 28.6778 5.32575 29.3332 6.00002M25.9998 2.66669V13.3334" stroke="#0A4BB8" stroke-width="2" stroke-linecap="round" stroke-linejoin="round"/>
</svg>
