<svg width="375" height="502" viewBox="0 0 375 502" fill="none" xmlns="http://www.w3.org/2000/svg">
<path opacity="0.8" d="M191.414 251.644C191.492 251.698 191.555 251.737 191.598 251.761L438 488.253V441.254L191.716 251.695C191.664 251.621 191.606 251.552 191.54 251.489C191.631 251.525 191.702 251.551 191.748 251.564L438 401.475V366.607L191.836 251.468C191.771 251.409 191.7 251.356 191.626 251.309C191.7 251.322 191.774 251.332 191.849 251.337L438 335.082V305.823L191.909 251.224C191.838 251.183 191.764 251.149 191.687 251.122C191.772 251.119 191.857 251.111 191.942 251.1L438 278.002V250.365L191.948 250.969C191.867 250.948 191.784 250.932 191.701 250.92C191.781 250.901 191.859 250.875 191.935 250.843L438 223.423V195.581L191.89 250.723C191.812 250.72 191.734 250.722 191.656 250.727C191.733 250.69 191.806 250.646 191.875 250.596L438 166.291V134.725L191.801 250.49C191.756 250.497 191.682 250.515 191.586 250.542C191.657 250.486 191.723 250.425 191.782 250.357L438 99.8052V59.9378L191.677 250.276C191.633 250.294 191.566 250.327 191.481 250.372C191.54 250.303 191.591 250.227 191.633 250.146L438 12.7954V0H400.126L191.503 250.101C191.463 250.13 191.406 250.175 191.336 250.235C191.379 250.156 191.412 250.071 191.433 249.984L357.522 0H320.663L191.29 249.978C191.258 250.015 191.214 250.07 191.16 250.141C191.185 250.054 191.199 249.965 191.2 249.874L287.722 0H257.455L191.061 249.9C191.038 249.941 191.008 250.001 190.973 250.078C190.979 249.984 190.973 249.89 190.955 249.797L228.952 0H201.498L190.824 249.849C190.81 249.895 190.793 249.963 190.775 250.049C190.761 249.959 190.735 249.871 190.699 249.787L174.446 0H146.912L190.584 249.873C190.58 249.923 190.579 249.994 190.579 250.082C190.546 249.999 190.503 249.92 190.451 249.847L118.25 0H87.7459L190.354 249.945C190.361 249.992 190.374 250.061 190.393 250.146C190.341 250.07 190.281 250.001 190.214 249.938L54.454 0H17.1087L190.135 250.045C190.151 250.091 190.18 250.157 190.218 250.241C190.152 250.179 190.079 250.123 190.001 250.076L-26.1784 0H-64V13.3374L189.944 250.196C189.97 250.238 190.014 250.3 190.073 250.377C189.997 250.332 189.917 250.295 189.833 250.266L-64 59.9783V99.6707L189.797 250.391C189.832 250.427 189.89 250.479 189.968 250.545C189.887 250.52 189.804 250.501 189.72 250.49L-64 134.625V166.327L189.698 250.614C189.763 250.656 189.83 250.695 189.899 250.73C189.815 250.724 189.729 250.723 189.644 250.727L-64 195.827V223.917L189.629 250.85C189.703 250.879 189.778 250.903 189.855 250.923C189.77 250.934 189.686 250.951 189.603 250.973L-64 251.234V278.559L189.608 251.099C189.696 251.112 189.784 251.119 189.872 251.122C189.8 251.149 189.729 251.181 189.66 251.216L-64 306.671V336.194L189.681 251.339C189.765 251.335 189.849 251.325 189.932 251.309C189.846 251.367 189.782 251.414 189.744 251.446L-64 367.936V402.942L189.771 251.572C189.855 251.551 189.937 251.523 190.016 251.488C189.948 251.56 189.897 251.618 189.866 251.657L-64 442.721V489.507L189.912 251.781C189.993 251.742 190.071 251.695 190.143 251.642C190.094 251.723 190.057 251.787 190.036 251.832L-25.3998 502H17.7775L190.105 251.946C190.178 251.89 190.245 251.827 190.305 251.757C190.276 251.842 190.256 251.909 190.244 251.956L55.0665 502H88.3071L190.333 252.059C190.392 251.99 190.444 251.915 190.486 251.835C190.477 251.92 190.472 251.989 190.471 252.038L118.789 502H147.428L190.576 252.13C190.619 252.054 190.653 251.973 190.675 251.889C190.685 251.984 190.695 252.059 190.704 252.112L174.962 502H202.005L190.83 252.182C190.857 252.086 190.873 251.988 190.878 251.889C190.904 251.968 190.927 252.03 190.946 252.073L229.484 502H258.015L191.08 252.107C191.088 252.017 191.084 251.926 191.068 251.837C191.113 251.911 191.151 251.97 191.179 252.009L288.318 502H321.313L191.32 252.018C191.309 251.929 191.286 251.843 191.252 251.761C191.314 251.827 191.365 251.878 191.402 251.91L358.263 502H400.982L191.539 251.884C191.507 251.799 191.465 251.719 191.414 251.644Z" fill="url(#paint0_radial_1458_21616)"/>
<defs>
<radialGradient id="paint0_radial_1458_21616" cx="0" cy="0" r="1" gradientUnits="userSpaceOnUse" gradientTransform="translate(187 251) rotate(90) scale(222.377)">
<stop stop-color="#CDDCF4"/>
<stop offset="1" stop-color="#EAF2FF" stop-opacity="0"/>
</radialGradient>
</defs>
</svg>
