<svg width="16" height="16" viewBox="0 0 16 16" fill="none" xmlns="http://www.w3.org/2000/svg">
<path d="M4.00065 10.6663C3.38067 10.6663 3.07068 10.6663 2.81634 10.5982C2.12616 10.4133 1.58706 9.87414 1.40213 9.18401C1.33398 8.92967 1.33398 8.61967 1.33398 7.99967C1.33398 7.37967 1.33398 7.06967 1.40213 6.81534C1.58706 6.12519 2.12616 5.58609 2.81634 5.40115C3.07068 5.33301 3.38067 5.33301 4.00065 5.33301M8.00065 10.6663H12.0007C12.6207 10.6663 12.9307 10.6663 13.185 10.5982C13.8751 10.4133 14.4143 9.87414 14.5992 9.18401C14.6673 8.92967 14.6673 8.61967 14.6673 7.99967C14.6673 7.37967 14.6673 7.06967 14.5992 6.81534C14.4143 6.12519 13.8751 5.58609 13.185 5.40115C12.9307 5.33301 12.6207 5.33301 12.0007 5.33301H8.00065" stroke="white" stroke-width="1.5" stroke-linecap="round"/>
<path d="M4.66602 2H5.99935M5.99935 2H7.33268M5.99935 2V14M5.99935 14H4.66602M5.99935 14H7.33268" stroke="white" stroke-width="1.5" stroke-linecap="round" stroke-linejoin="round"/>
</svg>
