<svg width="134" height="44" viewBox="0 0 134 44" fill="none" xmlns="http://www.w3.org/2000/svg">
<path d="M0.858093 29.5789V1.9834H9.70076V22.0703H16.224L15.6837 29.5789H0.858093Z" fill="white"/>
<path d="M8.84257 2.84124V22.9281H15.3019L14.8851 28.7206H1.71624V2.84124H8.84257ZM10.5588 1.125H0V30.4368H16.4823L16.5969 28.8437L17.0137 23.0512L17.146 21.2118H10.5588L10.5588 1.125Z" fill="#03002F"/>
<path d="M24.7621 29.9955C21.6428 29.9955 19.2035 28.9428 17.5123 26.8664C15.8635 24.843 15.0273 22.0876 15.0273 18.6772C15.0273 15.0118 15.8389 12.1963 17.4395 10.3088C19.0756 8.3791 21.5252 7.40088 24.7202 7.40088C27.8218 7.40088 30.1046 8.19042 31.5053 9.74788C32.8818 11.2797 33.5798 13.4566 33.5798 16.2185C33.5798 16.4422 33.5493 17.1588 33.2856 20.7818L33.2277 21.5774H23.8626C24.1109 22.7958 24.9301 22.9868 25.8037 22.9868C26.3865 22.9868 27.7576 22.8245 30.9796 22.0516L31.9236 21.8252L32.6954 28.6634L32.0167 28.8735C29.6684 29.6092 27.2229 29.9874 24.7621 29.9955ZM25.5707 16.3191V16.1769C25.5707 15.2466 25.2283 15.0762 24.5537 15.0762C24.0213 15.0762 23.9455 15.242 23.9171 15.3043C23.7887 15.6283 23.7143 15.9711 23.6966 16.3191H25.5707Z" fill="white"/>
<path d="M24.7201 8.2592C27.5813 8.2592 29.6303 8.94683 30.8671 10.3221C32.1029 11.6972 32.721 13.6628 32.7216 16.2188C32.7216 16.5523 32.6243 18.0526 32.4297 20.7197H22.9282C22.9282 22.8032 23.8866 23.845 25.8036 23.8451C26.7204 23.8451 28.5124 23.5256 31.1797 22.8865L31.7629 28.0541C29.4972 28.7659 27.1369 29.1312 24.762 29.1376C21.8999 29.1376 19.7051 28.2 18.1775 26.3248C16.6493 24.4493 15.8853 21.9002 15.8854 18.6775C15.8854 11.7324 18.8303 8.25966 24.7201 8.2592ZM22.8033 17.1775H26.4288V16.1772C26.4288 14.8716 25.8037 14.2187 24.5536 14.2185C23.8307 14.2185 23.3583 14.4616 23.1365 14.9478C22.9139 15.4342 22.8028 16.1774 22.8033 17.1775ZM24.7201 6.54297C21.2613 6.54297 18.5916 7.62332 16.7849 9.754C15.0492 11.8009 14.1691 14.8032 14.1691 18.6775C14.1691 22.2905 15.0701 25.2282 16.8471 27.4089C18.709 29.6948 21.372 30.8539 24.762 30.8539C27.3088 30.8458 29.8398 30.4547 32.2702 29.6937L33.6277 29.2737L33.4683 27.8617L32.8851 22.694L32.8559 22.4359H34.0255L34.1414 20.8443C34.4026 17.2554 34.4378 16.4921 34.4378 16.2188C34.4378 13.2388 33.6659 10.869 32.1436 9.17495C30.573 7.42836 28.0755 6.54297 24.7201 6.54297Z" fill="#03002F"/>
<path d="M47.9316 29.9955C45.7205 29.9955 44.4804 29.2235 43.7857 28.3333C42.6206 29.4373 41.0346 29.9955 39.0553 29.9955C37.1554 29.9955 35.6642 29.3582 34.6228 28.1012C33.6211 26.893 33.1129 25.2504 33.1129 23.2197C33.1129 20.608 33.9713 18.7503 35.6642 17.6982C37.0962 16.8084 39.1838 16.2183 42.0309 15.9008V15.6769C42.0394 15.5845 42.0247 15.4915 41.9882 15.4061C41.9033 15.3746 41.8126 15.3616 41.7223 15.3679C40.4747 15.3679 38.4505 15.7636 35.7058 16.5438L34.7865 16.8052L33.4504 9.00025L34.2152 8.80315C37.8242 7.87258 40.8827 7.40088 43.3058 7.40088C45.9232 7.40088 47.7408 7.92979 48.8626 9.01805C49.9758 10.099 50.54 11.7644 50.54 13.9681L50.3316 22.6041C50.326 22.725 50.3418 22.8459 50.3782 22.9613C50.6502 23.0525 50.9375 23.0895 51.2238 23.07H52.1948L51.3632 29.7783L50.6574 29.8267C48.4949 29.975 48.0694 29.9955 47.9316 29.9955ZM42.3228 21.6245C42.0236 21.6847 41.7367 21.7949 41.4742 21.9506C41.4075 21.9957 41.2052 22.1326 41.2052 22.7197C41.2052 23.4036 41.3872 23.4036 41.6391 23.4036C42.2581 23.4036 42.3228 23.1697 42.3228 22.6362V21.6245Z" fill="white"/>
<path d="M43.3059 8.25921C45.6671 8.25921 47.3202 8.7176 48.2651 9.63438C49.2093 10.5512 49.6815 11.9959 49.6819 13.9685L49.4735 22.5948C49.4735 23.1231 49.6055 23.4773 49.8694 23.6575C50.1333 23.8387 50.5848 23.929 51.2238 23.9284L50.5987 28.9709C48.9872 29.0815 48.0982 29.1371 47.9316 29.1377C45.8754 29.1377 44.5697 28.4292 44.0143 27.0122H43.8059C42.7779 28.4293 41.1944 29.1378 39.0553 29.1377C37.4156 29.1377 36.1584 28.6098 35.2837 27.5541C34.4086 26.4985 33.971 25.0538 33.9711 23.22C33.9711 20.9144 34.6865 19.3169 36.1172 18.4275C37.5477 17.5387 39.805 16.9552 42.8891 16.6772V15.6772C42.8891 14.8995 42.5002 14.5105 41.7223 14.5101C40.3888 14.5101 38.3051 14.913 35.4711 15.7188L34.4295 9.63438C37.9854 8.71761 40.9442 8.25922 43.3059 8.25921ZM41.6391 24.2619C42.6665 24.2619 43.1804 23.7201 43.181 22.6365V20.5945C42.1528 20.7339 41.4234 20.9492 40.993 21.2404C40.562 21.5323 40.3467 22.0255 40.3472 22.72C40.3472 23.7479 40.7778 24.2619 41.6391 24.2619ZM43.3059 6.54297C40.8108 6.54297 37.6802 7.02392 34.001 7.97248L32.4713 8.36687L32.7379 9.92398L33.7795 16.0084L34.0967 17.8613C32.8733 19.1152 32.2549 20.911 32.2549 23.22C32.2549 25.4561 32.8294 27.2828 33.9625 28.6495C35.1744 30.1121 36.888 30.8539 39.0553 30.8539C40.9179 30.8539 42.4761 30.4035 43.7114 29.5113C44.5861 30.2787 45.9145 30.8539 47.9316 30.8539C48.0815 30.8539 48.42 30.8407 50.7162 30.6831L52.1278 30.5862L52.3019 29.1821L52.927 24.1395L53.166 22.2121H51.2238C51.2156 22.2121 51.2075 22.2121 51.1995 22.2121L51.3977 14.0099L51.3982 13.9892V13.9685C51.3982 11.5239 50.7463 9.65142 49.4607 8.40311C48.1703 7.15125 46.1573 6.54297 43.3059 6.54297Z" fill="#03002F"/>
<path d="M51.9489 29.5787V7.9009H59.5029L59.7243 8.54289C60.1482 8.19539 60.6319 7.92804 61.1516 7.75393C61.8955 7.51627 63.0237 7.40088 64.6005 7.40088H65.497L65.1303 15.7847H62.3917C61.1261 15.7847 60.8515 16.0348 60.8404 16.0455C60.8289 16.0564 60.5828 16.3061 60.5828 17.5103V29.5787H51.9489Z" fill="white"/>
<path d="M64.6005 8.2592L64.3089 14.9269H62.3918C61.3083 14.9269 60.5929 15.0936 60.2457 15.4272C59.8979 15.7604 59.7243 16.4549 59.7247 17.5107V28.7209H52.8071V8.75923H58.8912L59.308 9.96789H59.4747C60.1136 9.24583 60.7595 8.78046 61.4125 8.57179C62.065 8.3634 63.1277 8.2592 64.6005 8.2592ZM66.3934 6.54297H64.6005C62.9108 6.54297 61.7319 6.66813 60.8903 6.93689C60.6459 7.01538 60.4081 7.11345 60.1794 7.23015L60.1148 7.04298H51.0908V30.4371H61.441V17.5107C61.436 17.2422 61.4554 16.9738 61.4989 16.7087C61.7939 16.6591 62.0928 16.6372 62.3918 16.6431H65.9517L66.0235 15.0019L66.3151 8.3342L66.3934 6.54297Z" fill="#03002F"/>
<path d="M74.8691 29.5787V15.7184C74.8701 15.6573 74.865 15.5962 74.8539 15.5361C74.8417 15.5351 74.8271 15.5346 74.8101 15.5346C74.4324 15.525 74.0571 15.5972 73.7098 15.746V29.5787H64.9923V7.9009H72.8738L73.1526 8.87663C74.5318 7.9165 76.1718 7.40152 77.8523 7.40088C79.9368 7.40088 81.4516 7.92768 82.3548 8.96713C83.2274 9.97253 83.6696 11.4447 83.6696 13.3429V29.5787H74.8691Z" fill="white"/>
<path d="M77.8523 8.25923C79.6862 8.25923 80.9711 8.68289 81.7071 9.53021C82.4429 10.378 82.811 11.649 82.8116 13.3434V28.7209H75.7272V15.7188C75.7272 15.0247 75.4215 14.6774 74.8101 14.6769C74.1112 14.6529 73.4235 14.8578 72.8517 15.2604V28.7209H65.8505V8.75926H72.2266L72.6433 10.2179H72.8098C74.3375 8.91233 76.0183 8.25942 77.8523 8.25923ZM77.8523 6.543C76.3959 6.53907 74.9606 6.89084 73.671 7.56772L73.5211 7.04301H64.1343V30.4371H84.5278V13.3434C84.5278 11.2323 84.0149 9.57092 83.0033 8.40529C81.929 7.16926 80.1963 6.543 77.8523 6.543Z" fill="#03002F"/>
<path d="M88.8958 8.99179C87.3363 8.99179 86.213 8.6789 85.4619 8.03517C84.6823 7.36714 84.2872 6.33478 84.2872 4.96657C84.2872 3.60793 84.6766 2.56674 85.4445 1.87172C86.1994 1.18934 87.3282 0.85791 88.8958 0.85791C90.4632 0.85791 91.5921 1.18935 92.3466 1.87135C93.1151 2.56656 93.5045 3.60084 93.5045 4.9457C93.5045 6.29554 93.1122 7.32543 92.3382 8.00685C91.5869 8.66953 90.4606 8.99179 88.8958 8.99179Z" fill="white"/>
<path d="M88.8957 1.71623C90.2292 1.71623 91.1877 1.98021 91.7711 2.50815C92.3546 3.03611 92.6464 3.84869 92.6463 4.94591C92.6463 6.04395 92.3546 6.84962 91.7711 7.36297C91.1876 7.87748 90.2291 8.13448 88.8957 8.13393C87.5621 8.13393 86.6036 7.88392 86.0202 7.38391C85.4367 6.88391 85.145 6.07822 85.1451 4.96684C85.1451 3.85593 85.4368 3.03637 86.0202 2.50815C86.6038 1.98077 87.5622 1.71679 88.8957 1.71623ZM88.8957 0C87.1059 0 85.7889 0.403933 84.8695 1.23488C83.9133 2.09999 83.4288 3.35539 83.4288 4.96684C83.4288 6.597 83.925 7.84868 84.9035 8.68715C85.8168 9.46973 87.1227 9.85018 88.8957 9.85018C90.6786 9.85018 91.9905 9.45768 92.9062 8.65027C93.8722 7.79984 94.3625 6.55322 94.3625 4.94591C94.3625 3.34833 93.878 2.09999 92.9226 1.2355C92.0025 0.403932 90.6855 0 88.8957 0Z" fill="#03002F"/>
<path d="M93.2128 8.10938H84.6202V29.5788H93.2128V8.10938Z" fill="white"/>
<path d="M92.3547 8.96769V28.721H85.4784V8.96769H92.3547ZM94.0709 7.25146H83.7621V30.4372H94.0709L94.0709 7.25146Z" fill="#03002F"/>
<path d="M103.998 29.5787V15.7184C103.999 15.6573 103.994 15.5962 103.983 15.5361C103.971 15.5351 103.957 15.5346 103.939 15.5346C103.562 15.525 103.186 15.5972 102.839 15.746V29.5787H94.1217V7.9009H102.003L102.282 8.87663C103.661 7.9165 105.301 7.40152 106.982 7.40088C109.066 7.40088 110.581 7.92768 111.484 8.96713C112.357 9.97253 112.799 11.4447 112.799 13.3429V29.5787H103.998Z" fill="white"/>
<path d="M106.982 8.25923C108.816 8.25923 110.1 8.68289 110.837 9.53021C111.572 10.378 111.94 11.649 111.941 13.3434V28.7209H104.857V15.7188C104.857 15.0247 104.551 14.6774 103.939 14.6769C103.241 14.6529 102.553 14.8578 101.981 15.2604V28.7209H94.9799V8.75926H101.356L101.773 10.2179H101.939C103.467 8.91233 105.148 8.25942 106.982 8.25923ZM106.982 6.543C105.525 6.53907 104.09 6.89084 102.8 7.56772L102.651 7.04301H93.2637V30.4371H113.657V13.3434C113.657 11.2323 113.144 9.57092 112.133 8.40529C111.058 7.16926 109.326 6.543 106.982 6.543Z" fill="#03002F"/>
<path d="M122.567 43.1416C119.734 43.1416 117.629 42.8408 116.134 42.222C114.438 41.5193 113.541 40.1429 113.541 38.2412C113.541 37.6072 113.755 36.7643 114.638 35.9881C114.153 35.5805 113.766 35.0699 113.505 34.4936C113.243 33.9173 113.113 33.2898 113.125 32.657C113.125 30.9868 113.967 29.6503 115.632 28.6714C115.051 28.1071 114.566 27.4518 114.197 26.7314C113.651 25.6575 113.375 24.2439 113.375 22.5303C113.375 20.0773 114.202 18.1511 115.833 16.8051C117.415 15.4998 119.54 14.8379 122.151 14.8379H132.844V21.2214H130.601C130.993 21.9572 131.191 22.7805 131.177 23.614C131.177 26.4551 130.179 29.7476 125.9 30.7989H126.401C130.045 30.7989 132.052 32.5835 132.052 35.8241C132.052 38.3966 131.152 40.2987 129.376 41.4772C127.712 42.5817 125.421 43.1416 122.567 43.1416ZM122.526 22.0132C122.215 22.0132 122.169 22.1013 122.142 22.1539C122.061 22.31 121.925 22.7082 121.925 23.6139C121.925 24.7315 122.141 25.2981 122.567 25.2981C123.029 25.2981 123.126 24.4274 123.126 23.6972C123.126 22.7186 122.99 22.3098 122.909 22.1533C122.883 22.1013 122.837 22.0132 122.526 22.0132Z" fill="white"/>
<path d="M131.986 15.6962V20.3636H128.985V20.572C129.42 20.9474 129.766 21.4155 129.997 21.942C130.228 22.4684 130.338 23.0398 130.319 23.6142C130.319 28.0595 127.805 30.2821 122.776 30.2819H120.775C120.275 30.2819 120.025 30.5111 120.025 30.9696C120.025 31.428 120.262 31.6572 120.734 31.6573H126.401C129.596 31.6573 131.193 33.0463 131.194 35.8244C131.194 38.1024 130.43 39.7485 128.902 40.7627C127.374 41.7767 125.262 42.2838 122.568 42.284C119.872 42.284 117.837 41.9991 116.462 41.4295C115.087 40.8599 114.399 39.7972 114.399 38.2415C114.399 37.38 114.941 36.6577 116.025 36.0747V35.9079C114.663 35.1576 113.983 34.0741 113.983 32.6573C113.983 30.9903 115.052 29.7262 117.192 28.8651C116.256 28.2166 115.491 27.3517 114.962 26.3438C114.476 25.3854 114.233 24.1144 114.233 22.5306C114.233 20.3362 114.948 18.6484 116.379 17.4672C117.809 16.2867 119.733 15.6964 122.151 15.6962H131.986ZM122.568 26.1564C123.512 26.1564 123.984 25.3368 123.984 23.6975C123.984 22.8086 123.88 22.1627 123.672 21.7597C123.463 21.3572 123.081 21.1558 122.526 21.1555C121.97 21.1555 121.588 21.3569 121.38 21.7597C121.172 22.1628 121.067 22.7809 121.067 23.6142C121.067 25.3092 121.567 26.1566 122.568 26.1564ZM120.484 37.9915H124.776C125.276 37.9915 125.526 37.7692 125.526 37.3247V37.1582C125.526 36.7414 125.276 36.533 124.776 36.533H120.484C120.039 36.533 119.817 36.7553 119.817 37.1998V37.3663C119.817 37.7831 120.039 37.9915 120.484 37.9915ZM133.702 13.98H122.151C119.336 13.98 117.026 14.7079 115.287 16.1435C113.449 17.6605 112.517 19.8094 112.517 22.5306C112.517 24.4063 112.816 25.9077 113.432 27.1208C113.684 27.6174 113.988 28.0863 114.338 28.52C112.677 29.8358 112.267 31.4176 112.267 32.6573C112.243 33.8787 112.661 35.0676 113.445 36.0051C112.949 36.6449 112.681 37.432 112.683 38.2415C112.683 40.4858 113.792 42.1812 115.805 43.0151C117.407 43.678 119.619 44.0002 122.568 44.0002C125.593 44.0002 128.043 43.3921 129.851 42.1928C131.247 41.266 132.91 39.4091 132.91 35.8244C132.91 32.9821 131.539 31.0613 129.065 30.3034C131.01 28.8947 132.035 26.6332 132.035 23.6142C132.037 23.0969 131.974 22.5814 131.848 22.0799H133.702L133.702 13.98Z" fill="#03002F"/>
<path d="M76.3335 40.5709C76.6018 40.5626 76.8686 40.5293 77.1306 40.4712V39.4752H76.3004V37.1842H80.2183V43.1108H77.7115L77.4626 42.5796H77.3962C76.8188 43.0451 76.0957 43.292 75.3542 43.2769C72.7643 43.2769 71.4695 41.5282 71.4696 38.0308C71.4696 36.2823 71.8209 34.946 72.5236 34.0216C73.2265 33.0978 74.4135 32.6357 76.0846 32.6354C77.277 32.6286 78.4635 32.8022 79.604 33.1502L79.0562 36.2711C77.8166 35.9281 76.9284 35.7566 76.3917 35.7565C75.8548 35.7565 75.5006 35.9336 75.3293 36.2877C75.1575 36.6421 75.0717 37.2453 75.0719 38.0972C75.0719 38.9497 75.1522 39.575 75.3126 39.9733C75.473 40.3717 75.8133 40.5709 76.3335 40.5709Z" fill="#03002F"/>
<path d="M85.2649 39.4587C85.2649 40.0563 85.5333 40.3552 86.0699 40.3552C86.6067 40.3552 86.8751 40.0508 86.8752 39.4421V32.8018H90.4277V39.6579C90.4277 40.8755 90.0459 41.7831 89.2823 42.3806C88.5186 42.9782 87.4229 43.277 85.9953 43.2771C83.0955 43.2771 81.6456 42.0818 81.6458 39.6912V32.8018H85.2649V39.4587Z" fill="#03002F"/>
<path d="M99.94 36.122C99.9653 36.6692 99.8541 37.214 99.6162 37.7074C99.3716 38.1303 99.0267 38.4867 98.612 38.745L100.156 43.111H96.487L95.4577 39.5584H95.1921V43.111H91.7889V32.8018H96.1883C97.4719 32.8018 98.4182 33.0702 99.0271 33.607C99.6356 34.1437 99.9399 34.9821 99.94 36.122ZM96.0803 37.309C96.2068 37.0665 96.2615 36.7929 96.238 36.5204C96.2633 36.2495 96.2054 35.9772 96.0719 35.7401C96.0096 35.6657 95.9303 35.6073 95.8408 35.5697C95.7513 35.5322 95.6541 35.5167 95.5573 35.5244H95.1256V37.5331H95.5407C95.6422 37.5434 95.7446 37.5284 95.8388 37.4893C95.9331 37.4501 96.016 37.3882 96.0803 37.309Z" fill="#03002F"/>
<path d="M104.787 39.4587C104.787 40.0563 105.056 40.3552 105.593 40.3552C106.129 40.3552 106.398 40.0508 106.398 39.4421V32.8018H109.95V39.6579C109.95 40.8755 109.569 41.7831 108.805 42.3806C108.041 42.9782 106.945 43.277 105.518 43.2771C102.618 43.2771 101.168 42.0818 101.168 39.6912V32.8018H104.787V39.4587Z" fill="#03002F"/>
<path d="M0.762451 40.784C22.2596 35.4204 44.7452 35.4203 66.2424 40.7838C44.5188 37.784 22.486 37.7841 0.762451 40.784Z" fill="#3AD77E"/>
</svg>
