<svg width="20" height="20" viewBox="0 0 20 20" fill="none" xmlns="http://www.w3.org/2000/svg">
<path d="M5.8317 4.12915H12.915C13.6053 4.12915 14.165 4.69019 14.165 5.38228V6.63542" stroke="#03002F" stroke-width="1.5" stroke-linecap="round" stroke-linejoin="round"/>
<path d="M15.0058 1.66821L4.84127 1.66823C4.42686 1.66823 4.003 1.72872 3.66803 1.9733C2.60588 2.7488 1.78736 4.47836 3.44032 6.03985C3.90443 6.47829 4.55317 6.63723 5.19088 6.63723H14.8277C15.4894 6.63723 16.676 6.73142 16.676 8.74109M2.50508 4.29453L2.53302 14.9983C2.63858 16.9652 3.97503 18.257 5.81257 18.257H9.95992" stroke="#03002F" stroke-width="1.5" stroke-linecap="round"/>
<path d="M15.8333 14.5834L17.0378 15.3863C17.6081 15.7666 17.8933 15.9567 18.1133 15.8389C18.3333 15.7212 18.3333 15.3784 18.3333 14.693V13.6405C18.3333 12.9551 18.3333 12.6123 18.1133 12.4946C17.8933 12.3768 17.6081 12.5669 17.0378 12.9472L15.8333 13.7501M15.8333 14.5834V13.7501M15.8333 14.5834C15.8333 15.3622 15.8333 15.7517 15.6658 16.0417C15.5562 16.2317 15.3983 16.3896 15.2083 16.4992C14.9183 16.6667 14.5288 16.6667 13.75 16.6667H13.3333C12.1548 16.6667 11.5656 16.6667 11.1994 16.3007C10.8333 15.9345 10.8333 15.3452 10.8333 14.1667C10.8333 12.9882 10.8333 12.399 11.1994 12.0328C11.5656 11.6667 12.1548 11.6667 13.3333 11.6667H13.75C14.5288 11.6667 14.9183 11.6667 15.2083 11.8342C15.3983 11.9439 15.5562 12.1017 15.6658 12.2917C15.8333 12.5818 15.8333 12.9712 15.8333 13.7501" stroke="#0A4BB8" stroke-width="1.5" stroke-linejoin="round"/>
</svg>
