<svg width="20" height="20" viewBox="0 0 20 20" fill="none" xmlns="http://www.w3.org/2000/svg">
<g clip-path="url(#clip0_1717_7174)">
<path d="M7.14049 9.99967L6.42561 9.28476C5.63596 8.49517 5.63596 7.21488 6.42561 6.42524C7.21525 5.6356 8.49554 5.6356 9.28512 6.42524L13.5745 10.7146C14.3641 11.5042 14.3641 12.7845 13.5745 13.5741C12.7849 14.3638 11.5045 14.3638 10.715 13.5741L9.10646 11.9656C7.93077 10.7899 9.62196 9.20492 10.8334 10.4163L11.6667 11.2497" stroke="#0A4BB8" stroke-width="1.5" stroke-linecap="round" stroke-linejoin="round"/>
<path d="M9.99996 18.3337C14.6023 18.3337 18.3333 14.6027 18.3333 10.0003C18.3333 5.39795 14.6023 1.66699 9.99996 1.66699C5.39759 1.66699 1.66663 5.39795 1.66663 10.0003C1.66663 14.6027 5.39759 18.3337 9.99996 18.3337Z" stroke="#03002F" stroke-width="1.5"/>
</g>
<defs>
<clipPath id="clip0_1717_7174">
<rect width="20" height="20" fill="white"/>
</clipPath>
</defs>
</svg>
