<svg width="16" height="16" viewBox="0 0 16 16" fill="none" xmlns="http://www.w3.org/2000/svg">
<path d="M13.8493 12C14.3489 12 14.7462 11.6857 15.1029 11.2461C15.8333 10.3463 14.6342 9.6272 14.1769 9.27507C13.712 8.91707 13.1929 8.71427 12.6667 8.66667M12 7.33333C12.9205 7.33333 13.6667 6.58714 13.6667 5.66667C13.6667 4.74619 12.9205 4 12 4" stroke="#03002F" stroke-width="1.2" stroke-linecap="round"/>
<path d="M2.14999 12C1.65045 12 1.25313 11.6857 0.896378 11.2461C0.166076 10.3463 1.36513 9.6272 1.82244 9.27507C2.28733 8.91707 2.8064 8.71427 3.33268 8.66667M3.66602 7.33333C2.74554 7.33333 1.99935 6.58714 1.99935 5.66667C1.99935 4.74619 2.74554 4 3.66602 4" stroke="#03002F" stroke-width="1.2" stroke-linecap="round"/>
<path d="M5.38855 10.0738C4.70736 10.495 2.92134 11.3551 4.00915 12.4313C4.54054 12.957 5.13236 13.333 5.87643 13.333H10.1223C10.8664 13.333 11.4582 12.957 11.9896 12.4313C13.0774 11.3551 11.2914 10.495 10.6102 10.0738C9.01276 9.08607 6.9859 9.08607 5.38855 10.0738Z" stroke="#03002F" stroke-width="1.2" stroke-linecap="round" stroke-linejoin="round"/>
<path d="M10.3327 5.00033C10.3327 6.28899 9.28803 7.33366 7.99936 7.33366C6.7107 7.33366 5.66602 6.28899 5.66602 5.00033C5.66602 3.71166 6.7107 2.66699 7.99936 2.66699C9.28803 2.66699 10.3327 3.71166 10.3327 5.00033Z" stroke="#0A4BB8" stroke-width="1.2"/>
</svg>
