<svg width="20" height="20" viewBox="0 0 20 20" fill="none" xmlns="http://www.w3.org/2000/svg">
<path d="M10.8333 12.5C8.92359 17.5 3.5764 12.5 1.66667 17.5" stroke="#03002F" stroke-width="1.5" stroke-linecap="round" stroke-linejoin="round"/>
<path d="M12.9167 12.5H14.1677C16.1319 12.5 17.114 12.5 17.7242 11.8898C18.3344 11.2796 18.3344 10.2975 18.3344 8.33333V6.66667C18.3344 4.70248 18.3344 3.72039 17.7242 3.11019C17.114 2.5 16.1319 2.5 14.1677 2.5H10.8344C8.87025 2.5 7.88813 2.5 7.27794 3.11019C6.76093 3.6272 6.68198 4.4112 6.66992 5.83333" stroke="#03002F" stroke-width="1.5" stroke-linecap="round" stroke-linejoin="round"/>
<path d="M6.25001 12.4999C7.4006 12.4999 8.33334 11.5672 8.33334 10.4166C8.33334 9.26599 7.4006 8.33325 6.25001 8.33325C5.09941 8.33325 4.16667 9.26599 4.16667 10.4166C4.16667 11.5672 5.09941 12.4999 6.25001 12.4999Z" stroke="#03002F" stroke-width="1.5" stroke-linecap="round" stroke-linejoin="round"/>
<path d="M10 5.83325H15M15 9.16659H12.5" stroke="#0A4BB8" stroke-width="1.5" stroke-linecap="round" stroke-linejoin="round"/>
</svg>
