<svg width="24" height="24" viewBox="0 0 24 24" fill="none" xmlns="http://www.w3.org/2000/svg">
<path d="M7.01367 16.0029H11.0137M7.01367 11.0053H15.0137" stroke="#03002F" stroke-width="1.5" stroke-linecap="round"/>
<path d="M10.0137 21.9999H11.0137" stroke="#0A4BB8" stroke-width="1.5" stroke-linecap="round"/>
<path d="M7.51169 21.9999C6.34007 21.9749 5.54007 21.9 4.76507 21.6751C3.71577 21.4002 2.94991 20.4757 2.72507 19.1763C2.44007 17.9519 2.54007 14.9284 2.51502 11.3302C2.51709 8.53874 2.39006 5.85787 2.84006 4.33362C3.11506 3.83386 3.34006 2.00976 7.06507 2.03475C7.69007 2.00976 14.3151 1.95978 15.3651 2.05973C18.8651 2.1347 19.2151 3.93381 19.4151 5.63298C19.5419 6.88236 19.5151 8.88138 19.5151 11.0053M7.01507 2.00976C7.31507 3.63396 7.29007 4.68344 8.39007 4.93332C8.86507 5.00828 9.95036 5.00628 11.1151 5.00828C12.1547 5.01007 13.2151 5.01945 13.6901 4.90833C14.8651 4.63347 14.7401 3.18418 15.0401 2.00976" stroke="#03002F" stroke-width="1.5" stroke-linecap="round"/>
<path d="M18.278 14.3787C16.9039 15.778 14.2557 18.2768 14.2557 18.4517C14.0421 18.7483 13.8559 19.3512 13.731 20.2008C13.5741 20.9884 13.3862 21.6751 13.6061 21.875C13.826 22.0749 14.6539 21.9064 15.5298 21.7251C16.2293 21.6501 16.8789 21.4002 17.2037 21.1504C17.6784 20.7304 20.9012 17.4772 21.276 17.0524C21.5508 16.6776 21.5758 15.9779 21.3359 15.5531C21.201 15.2533 20.3516 14.4536 20.0768 14.2288C19.5771 13.9289 18.8776 13.8789 18.278 14.3787Z" stroke="#0A4BB8" stroke-width="1.5" stroke-linecap="round"/>
</svg>
