<svg width="20" height="20" viewBox="0 0 20 20" fill="none" xmlns="http://www.w3.org/2000/svg">
<path d="M2.10892 11.9951C1.93171 13.1227 2.72399 13.9052 3.69403 14.2952C7.41299 15.7906 12.5883 15.7906 16.3072 14.2952C17.2773 13.9052 18.0696 13.1227 17.8924 11.9951C17.7835 11.3022 17.245 10.7252 16.846 10.1617C16.3234 9.41466 16.2715 8.59983 16.2714 7.73292C16.2714 4.38267 13.4639 1.66675 10.0007 1.66675C6.53743 1.66675 3.72993 4.38267 3.72993 7.73292C3.72984 8.59983 3.67792 9.41466 3.15533 10.1617C2.75635 10.7252 2.21783 11.3022 2.10892 11.9951Z" stroke="#03002F" stroke-width="1.5" stroke-linecap="round" stroke-linejoin="round"/>
<path d="M7.5 17.5C8.16344 18.0183 9.03958 18.3333 10 18.3333C10.9604 18.3333 11.8366 18.0183 12.5 17.5" stroke="#0A4BB8" stroke-width="1.5" stroke-linecap="round" stroke-linejoin="round"/>
</svg>
