<svg width="20" height="20" viewBox="0 0 20 20" fill="none" xmlns="http://www.w3.org/2000/svg">
<g clip-path="url(#clip0_1208_2880)">
<path d="M3.14736 9.95196C2.35735 8.57438 1.97589 7.44953 1.74588 6.3093C1.4057 4.62294 2.18419 2.97564 3.47383 1.92452C4.01889 1.48028 4.64371 1.63206 4.96601 2.21029L5.69366 3.51572C6.27042 4.55044 6.5588 5.06779 6.5016 5.61629C6.44441 6.16479 6.05549 6.61151 5.27766 7.50497L3.14736 9.95196ZM3.14736 9.95196C4.74644 12.7402 7.25588 15.251 10.0473 16.852M10.0473 16.852C11.4249 17.642 12.5498 18.0235 13.69 18.2535C15.3763 18.5936 17.0237 17.8151 18.0748 16.5255C18.519 15.9805 18.3673 15.3556 17.789 15.0333L16.4836 14.3056C15.4488 13.7289 14.9315 13.4405 14.383 13.4977C13.8345 13.5549 13.3878 13.9438 12.4943 14.7216L10.0473 16.852Z" stroke="#03002F" stroke-width="1.5" stroke-linejoin="round"/>
<path d="M11.666 5.69317C12.852 6.19683 13.8025 7.14727 14.3062 8.33329M12.211 1.66663C15.1587 2.51726 17.4819 4.84039 18.3327 7.78798" stroke="#0A4BB8" stroke-width="1.5" stroke-linecap="round"/>
</g>
<defs>
<clipPath id="clip0_1208_2880">
<rect width="20" height="20" fill="white"/>
</clipPath>
</defs>
</svg>
