<svg width="20" height="20" viewBox="0 0 20 20" fill="none" xmlns="http://www.w3.org/2000/svg">
<g clip-path="url(#clip0_1718_21708)">
<path d="M3.14785 9.95184C2.35784 8.57426 1.97638 7.44941 1.74637 6.30918C1.40619 4.62282 2.18468 2.97551 3.47432 1.9244C4.01938 1.48016 4.64419 1.63194 4.9665 2.21017L5.69415 3.5156C6.27091 4.55031 6.55929 5.06766 6.50209 5.61616C6.44489 6.16466 6.05598 6.61139 5.27814 7.50485L3.14785 9.95184ZM3.14785 9.95184C4.74693 12.7401 7.25637 15.2509 10.0478 16.8518M10.0478 16.8518C11.4254 17.6418 12.5503 18.0233 13.6905 18.2533C15.3768 18.5935 17.0242 17.815 18.0753 16.5253C18.5195 15.9803 18.3678 15.3555 17.7895 15.0332L16.4841 14.3055C15.4493 13.7288 14.932 13.4404 14.3835 13.4976C13.835 13.5548 13.3883 13.9437 12.4948 14.7215L10.0478 16.8518Z" stroke="#03002F" stroke-width="1.5" stroke-linejoin="round"/>
<path d="M11.6665 5.69305C12.8525 6.1967 13.803 7.14715 14.3067 8.33317M12.2115 1.6665C15.1592 2.51714 17.4824 4.84027 18.3332 7.78786" stroke="#0A4BB8" stroke-width="1.5" stroke-linecap="round"/>
</g>
<defs>
<clipPath id="clip0_1718_21708">
<rect width="20" height="20" fill="white"/>
</clipPath>
</defs>
</svg>
