<svg width="18" height="18" viewBox="0 0 18 18" fill="none" xmlns="http://www.w3.org/2000/svg">
<path d="M13.275 16.0015C12.396 16.125 11.2497 16.125 9.71253 16.125H8.28753C5.26462 16.125 3.75318 16.125 2.81409 15.1859C1.875 14.2468 1.875 12.7354 1.875 9.71253V8.28753C1.875 5.26462 1.875 3.75317 2.81409 2.81408C3.75318 1.875 5.26462 1.875 8.28753 1.875H9.71253C12.7354 1.875 14.2468 1.875 15.1859 2.81408C16.125 3.75317 16.125 5.26462 16.125 8.28753V9.71253C16.125 10.6187 16.125 11.389 16.0997 12.0488C16.0794 12.5776 16.0693 12.842 15.8691 12.9408C15.6688 13.0396 15.4449 12.8811 14.9968 12.5642L13.9875 11.85" stroke="#03002F" stroke-width="1.5" stroke-linecap="round" stroke-linejoin="round"/>
<path d="M11.209 9.2961C11.0765 9.76612 10.45 10.0983 9.19718 10.7626C7.986 11.4048 7.38045 11.7259 6.89244 11.5969C6.69068 11.5435 6.50685 11.4421 6.35859 11.3025C6 10.9648 6 10.3099 6 9C6 7.69012 6 7.03513 6.35859 6.69746C6.50685 6.55786 6.69068 6.45651 6.89244 6.40315C7.38045 6.27408 7.986 6.59518 9.19718 7.23737C10.45 7.9017 11.0765 8.23387 11.209 8.7039C11.2637 8.89792 11.2637 9.10207 11.209 9.2961Z" stroke="#0A4BB8" stroke-width="1.5" stroke-linejoin="round"/>
</svg>
