<svg width="20" height="20" viewBox="0 0 20 20" fill="none" xmlns="http://www.w3.org/2000/svg">
<path d="M15.8332 9.28529C15.5623 9.24604 15.284 9.21621 14.9998 9.19629M4.99984 10.8051C4.71565 10.7853 4.43743 10.7554 4.1665 10.7161" stroke="#03002F" stroke-width="1.5" stroke-linecap="round" stroke-linejoin="round"/>
<path d="M9.99984 16.2503C8.88942 16.769 7.43073 17.0837 5.83317 17.0837C4.9449 17.0837 4.09958 16.9864 3.33317 16.8108C2.08281 16.5244 1.6665 15.7723 1.6665 14.4887V5.51197C1.6665 4.69128 2.5332 4.1276 3.33317 4.31083C4.09958 4.48637 4.9449 4.58366 5.83317 4.58366C7.43073 4.58366 8.88942 4.26896 9.99984 3.75033C11.1103 3.23169 12.5689 2.91699 14.1665 2.91699C15.0548 2.91699 15.9001 3.01428 16.6665 3.18983C17.9846 3.49173 18.3332 4.26729 18.3332 5.51197V14.4887C18.3332 15.3094 17.4665 15.8731 16.6665 15.6898C15.9001 15.5142 15.0548 15.417 14.1665 15.417C12.5689 15.417 11.1103 15.7317 9.99984 16.2503Z" stroke="#03002F" stroke-width="1.5"/>
<path d="M10.0002 7.50033C9.07966 7.50033 8.3335 8.05997 8.3335 8.75033C8.3335 9.44068 9.07966 10.0003 10.0002 10.0003C10.9207 10.0003 11.6668 10.56 11.6668 11.2503C11.6668 11.9407 10.9207 12.5003 10.0002 12.5003M10.0002 7.50033C10.7258 7.50033 11.3432 7.84816 11.572 8.33366M10.0002 7.50033V6.66699M10.0002 12.5003C9.2745 12.5003 8.65716 12.1525 8.42833 11.667M10.0002 12.5003V13.3337" stroke="#0A4BB8" stroke-width="1.5" stroke-linecap="round"/>
</svg>
