<svg width="20" height="20" viewBox="0 0 20 20" fill="none" xmlns="http://www.w3.org/2000/svg">
<path d="M1.66602 6.66667C1.66602 6.66667 5.39697 2.5 9.99935 2.5C14.6017 2.5 18.3327 6.66667 18.3327 6.66667" stroke="#0A4BB8" stroke-width="1.5" stroke-linecap="round"/>
<path d="M17.9527 10.8705C18.206 11.2258 18.3327 11.4034 18.3327 11.6663C18.3327 11.9293 18.206 12.1069 17.9527 12.4622C16.8143 14.0585 13.907 17.4997 9.99935 17.4997C6.09167 17.4997 3.18443 14.0585 2.04605 12.4622C1.79269 12.1069 1.66602 11.9293 1.66602 11.6663C1.66602 11.4034 1.79269 11.2258 2.04605 10.8705C3.18443 9.27417 6.09167 5.83301 9.99935 5.83301C13.907 5.83301 16.8143 9.27417 17.9527 10.8705Z" stroke="#03002F" stroke-width="1.5"/>
<path d="M12.5 11.667C12.5 10.2862 11.3807 9.16699 10 9.16699C8.61925 9.16699 7.5 10.2862 7.5 11.667C7.5 13.0477 8.61925 14.167 10 14.167C11.3807 14.167 12.5 13.0477 12.5 11.667Z" stroke="#0A4BB8" stroke-width="1.5"/>
</svg>
