<svg width="18" height="18" viewBox="0 0 18 18" fill="none" xmlns="http://www.w3.org/2000/svg">
<g clip-path="url(#clip0_1422_40290)">
<path d="M9 5.25V3.73666M9 3.73666V2.22777C9 1.87212 9 1.69429 9.1098 1.5838C9.45458 1.23705 10.875 2.05728 11.4152 2.3899C11.8714 2.67079 12 3.23186 12 3.73666H9Z" stroke="#0A4BB8" stroke-width="1.3" stroke-linecap="round" stroke-linejoin="round"/>
<path d="M5.25 16.5V9.20677C5.25 8.39542 5.25 7.98975 5.43343 7.64947C5.61686 7.30918 5.95382 7.08981 6.62773 6.65106L8.18887 5.63468C8.58277 5.37823 8.77972 5.25 9 5.25C9.22028 5.25 9.41723 5.37823 9.81113 5.63468L11.3723 6.65106C12.0462 7.08981 12.3831 7.30918 12.5665 7.64947C12.75 7.98975 12.75 8.39542 12.75 9.20677V16.5" stroke="#03002F" stroke-width="1.3" stroke-linecap="round" stroke-linejoin="round"/>
<path d="M9 9.75H9.00675" stroke="#03002F" stroke-width="2" stroke-linecap="round" stroke-linejoin="round"/>
<path d="M15 16.5V12.8717C15 11.153 14.2917 11.0139 12.75 10.5" stroke="#03002F" stroke-width="1.3" stroke-linecap="round" stroke-linejoin="round"/>
<path d="M3 16.5V12.8717C3 11.153 3.70828 11.0139 5.25 10.5" stroke="#03002F" stroke-width="1.3" stroke-linecap="round" stroke-linejoin="round"/>
<path d="M1.5 16.5H16.5" stroke="#03002F" stroke-width="1.3" stroke-linecap="round" stroke-linejoin="round"/>
<path d="M7.5 16.5V14.25C7.5 13.5429 7.5 13.1894 7.71968 12.9697C7.93935 12.75 8.2929 12.75 9 12.75C9.7071 12.75 10.0606 12.75 10.2803 12.9697C10.5 13.1894 10.5 13.5429 10.5 14.25V16.5" stroke="#03002F" stroke-width="1.3" stroke-linecap="round" stroke-linejoin="round"/>
</g>
<defs>
<clipPath id="clip0_1422_40290">
<rect width="18" height="18" fill="white"/>
</clipPath>
</defs>
</svg>
