<svg width="40" height="40" viewBox="0 0 40 40" fill="none" xmlns="http://www.w3.org/2000/svg">
<g opacity="0.16">
<path d="M33.332 14.9999C32.0067 8.3575 25.8534 3.33325 18.4642 3.33325C10.1078 3.33325 3.33203 9.7586 3.33203 17.6833C3.33203 21.4909 4.89568 24.9506 7.44628 27.5179C8.00785 28.0833 8.38278 28.8556 8.23146 29.6504C7.98173 30.9501 7.4158 32.1624 6.58711 33.1728C8.76741 33.5748 11.0345 33.2128 12.9787 32.1878C13.666 31.8256 14.0096 31.6444 14.2521 31.6076C14.4219 31.5819 14.643 31.6059 14.9987 31.6669" stroke="white" stroke-width="2.5" stroke-linecap="round" stroke-linejoin="round"/>
<path d="M18.332 27.1028C18.332 31.9456 22.4367 35.8723 27.4987 35.8723C28.0939 35.8729 28.6874 35.8179 29.272 35.7083C29.6929 35.6291 29.9034 35.5896 30.0502 35.6121C30.197 35.6344 30.4054 35.7453 30.8217 35.9666C31.9994 36.5929 33.3727 36.8141 34.6935 36.5684C34.1915 35.9511 33.8487 35.2102 33.6974 34.4159C33.6057 33.9303 33.8329 33.4583 34.173 33.1128C35.7182 31.5438 36.6654 29.4296 36.6654 27.1028C36.6654 22.2599 32.5607 18.3333 27.4987 18.3333C22.4367 18.3333 18.332 22.2599 18.332 27.1028Z" stroke="white" stroke-width="2.5" stroke-linejoin="round"/>
</g>
</svg>
