<svg width="40" height="40" viewBox="0 0 40 40" fill="none" xmlns="http://www.w3.org/2000/svg">
<g opacity="0.16">
<path d="M24.2247 7.63515C23.5923 7.54608 22.9462 7.5 22.2888 7.5C17.1623 7.5 12.701 10.3038 10.4009 14.4386M32.8552 12.4909C34.7185 14.775 35.8333 17.676 35.8333 20.8333C35.8333 23.1263 35.2453 25.2842 34.2097 27.1687M26.4693 33.5195C25.1528 33.9397 23.7477 34.1667 22.2888 34.1667C15.9715 34.1667 10.6642 29.909 9.16667 24.1497" stroke="white" stroke-width="2.5"/>
<path d="M34.1667 9.16675C34.1667 11.9282 31.9282 14.1667 29.1667 14.1667C26.4052 14.1667 24.1667 11.9282 24.1667 9.16675C24.1667 6.40533 26.4052 4.16675 29.1667 4.16675C31.9282 4.16675 34.1667 6.40533 34.1667 9.16675Z" stroke="white" stroke-width="2.5"/>
<path d="M14.1667 19.1667C14.1667 21.9282 11.9281 24.1667 9.16666 24.1667C6.40525 24.1667 4.16666 21.9282 4.16666 19.1667C4.16666 16.4053 6.40525 14.1667 9.16666 14.1667C11.9281 14.1667 14.1667 16.4053 14.1667 19.1667Z" stroke="white" stroke-width="2.5"/>
<path d="M35.8333 30.8333C35.8333 33.5948 33.5948 35.8333 30.8333 35.8333C28.0718 35.8333 25.8333 33.5948 25.8333 30.8333C25.8333 28.0718 28.0718 25.8333 30.8333 25.8333C33.5948 25.8333 35.8333 28.0718 35.8333 30.8333Z" stroke="white" stroke-width="2.5"/>
</g>
</svg>
