<svg width="40" height="40" viewBox="0 0 40 40" fill="none" xmlns="http://www.w3.org/2000/svg">
<g opacity="0.16">
<path d="M11.6641 8.25818H25.8306C27.2113 8.25818 28.3306 9.38026 28.3306 10.7644V13.2707" stroke="white" stroke-width="2.5" stroke-linecap="round" stroke-linejoin="round"/>
<path d="M30.0115 3.33655L9.68253 3.33658C8.85372 3.33658 8.006 3.45756 7.33605 3.94671C5.21177 5.49773 3.57472 8.95683 6.88063 12.0798C7.80887 12.9567 9.10633 13.2746 10.3818 13.2746H29.6553C30.9788 13.2746 33.352 13.463 33.352 17.4823M5.01017 8.58918L5.06603 29.9968C5.27717 33.9305 7.95005 36.5141 11.6251 36.5141H19.9198" stroke="white" stroke-width="2.5" stroke-linecap="round"/>
<path d="M31.666 29.1667L34.0748 30.7725C35.2155 31.533 35.7859 31.9132 36.2259 31.6777C36.666 31.4422 36.666 30.7567 36.666 29.3859V27.2809C36.666 25.91 36.666 25.2245 36.2259 24.989C35.7859 24.7535 35.2155 25.1337 34.0748 25.8942L31.666 27.5M31.666 29.1667V27.5M31.666 29.1667C31.666 30.7244 31.666 31.5032 31.331 32.0834C31.1117 32.4634 30.796 32.779 30.416 32.9984C29.8358 33.3334 29.057 33.3334 27.4993 33.3334H26.666C24.309 33.3334 23.1305 33.3334 22.3982 32.6012C21.666 31.8689 21.666 30.6904 21.666 28.3334C21.666 25.9764 21.666 24.7979 22.3982 24.0655C23.1305 23.3334 24.309 23.3334 26.666 23.3334H27.4993C29.057 23.3334 29.8358 23.3334 30.416 23.6684C30.796 23.8877 31.1117 24.2034 31.331 24.5834C31.666 25.1635 31.666 25.9424 31.666 27.5" stroke="white" stroke-width="2.5" stroke-linejoin="round"/>
</g>
</svg>
