<svg width="40" height="40" viewBox="0 0 40 40" fill="none" xmlns="http://www.w3.org/2000/svg">
<g opacity="0.16">
<path d="M25.0003 28.3333C23.6678 29.3706 21.9173 30 20.0003 30C18.0832 30 16.3329 29.3706 15.0003 28.3333" stroke="white" stroke-width="2.5" stroke-linecap="round"/>
<path d="M3.91928 22.0225C3.33092 18.1936 3.03673 16.2794 3.76058 14.5823C4.48442 12.8852 6.09035 11.724 9.3022 9.40175L11.702 7.66665C15.6975 4.77776 17.6952 3.33331 20.0003 3.33331C22.3053 3.33331 24.3032 4.77776 28.2987 7.66665L30.6983 9.40175C33.9103 11.724 35.5162 12.8852 36.24 14.5823C36.9638 16.2794 36.6697 18.1936 36.0813 22.0225L35.5797 25.2873C34.7455 30.7148 34.3285 33.4286 32.382 35.0476C30.4355 36.6666 27.5897 36.6666 21.8983 36.6666H18.1023C12.4109 36.6666 9.56515 36.6666 7.61863 35.0476C5.67212 33.4286 5.25508 30.7148 4.42102 25.2873L3.91928 22.0225Z" stroke="white" stroke-width="2.5" stroke-linejoin="round"/>
</g>
</svg>
