<svg width="40" height="40" viewBox="0 0 40 40" fill="none" xmlns="http://www.w3.org/2000/svg">
<g opacity="0.16">
<path d="M25.984 29.5675C24.936 30.2695 22.1884 31.703 23.8619 33.4967C24.6794 34.3728 25.59 34.9995 26.7347 34.9995H30.0007H33.2667C34.4114 34.9995 35.322 34.3728 36.1395 33.4967C37.813 31.703 35.0654 30.2695 34.0174 29.5675C31.5599 27.9213 28.4415 27.9213 25.984 29.5675Z" stroke="white" stroke-width="2.5"/>
<path d="M33.3327 20.833C33.3327 22.674 31.8403 24.1663 29.9993 24.1663C28.1583 24.1663 26.666 22.674 26.666 20.833C26.666 18.992 28.1583 17.4996 29.9993 17.4996C31.8403 17.4996 33.3327 18.992 33.3327 20.833Z" stroke="white" stroke-width="2.5"/>
<path d="M16.666 9.99963H24.9993M16.666 4.99963H29.9993" stroke="white" stroke-width="2.5" stroke-linecap="round" stroke-linejoin="round"/>
<path d="M11.6673 15.8329V23.333C11.6673 24.9043 11.6673 25.69 11.1792 26.1781C10.691 26.6663 9.90533 26.6663 8.33398 26.6663H6.66732C5.09597 26.6663 4.3103 26.6663 3.82213 26.1781C3.33398 25.69 3.33398 24.9043 3.33398 23.333V19.1663C3.33398 17.595 3.33398 16.8093 3.82213 16.321C4.3103 15.8329 5.09597 15.8329 6.66732 15.8329H11.6673ZM11.6673 15.8329H20.0007" stroke="white" stroke-width="2.5" stroke-linecap="round" stroke-linejoin="round"/>
<path d="M10.8327 8.33297C10.8327 10.1739 9.3403 11.6663 7.49935 11.6663C5.6584 11.6663 4.16602 10.1739 4.16602 8.33297C4.16602 6.49202 5.6584 4.99963 7.49935 4.99963C9.3403 4.99963 10.8327 6.49202 10.8327 8.33297Z" stroke="white" stroke-width="2.5"/>
</g>
</svg>
