<svg width="40" height="40" viewBox="0 0 40 40" fill="none" xmlns="http://www.w3.org/2000/svg">
<g opacity="0.16">
<path d="M11.6634 8.2583H25.83C27.2106 8.2583 28.33 9.38038 28.33 10.7646V13.2708" stroke="white" stroke-width="2.5" stroke-linecap="round" stroke-linejoin="round"/>
<path d="M30.0115 3.33643L9.68253 3.33646C8.85372 3.33646 8.006 3.45744 7.33605 3.94659C5.21177 5.49761 3.57472 8.95671 6.88063 12.0797C7.80887 12.9566 9.10633 13.2745 10.3818 13.2745H29.6553C30.9788 13.2745 33.352 13.4628 33.352 17.4822M5.01017 8.58906L5.06603 29.9967C5.27717 33.9303 7.95005 36.514 11.6251 36.514H19.9198" stroke="white" stroke-width="2.5" stroke-linecap="round"/>
<path d="M31.6667 29.1668L34.0755 30.7727C35.2162 31.5332 35.7865 31.9133 36.2265 31.6778C36.6667 31.4423 36.6667 30.7568 36.6667 29.386V27.281C36.6667 25.9102 36.6667 25.2247 36.2265 24.9892C35.7865 24.7537 35.2162 25.1338 34.0755 25.8943L31.6667 27.5002M31.6667 29.1668V27.5002M31.6667 29.1668C31.6667 30.7245 31.6667 31.5033 31.3317 32.0835C31.1124 32.4635 30.7967 32.7792 30.4167 32.9985C29.8365 33.3335 29.0577 33.3335 27.5 33.3335H26.6667C24.3097 33.3335 23.1312 33.3335 22.3989 32.6013C21.6667 31.869 21.6667 30.6905 21.6667 28.3335C21.6667 25.9765 21.6667 24.798 22.3989 24.0657C23.1312 23.3335 24.3097 23.3335 26.6667 23.3335H27.5C29.0577 23.3335 29.8365 23.3335 30.4167 23.6685C30.7967 23.8878 31.1124 24.2035 31.3317 24.5835C31.6667 25.1637 31.6667 25.9425 31.6667 27.5002" stroke="white" stroke-width="2.5" stroke-linejoin="round"/>
</g>
</svg>
