<svg width="20" height="20" viewBox="0 0 20 20" fill="none" xmlns="http://www.w3.org/2000/svg">
<path d="M12.991 14.7837C12.467 15.1347 11.0932 15.8514 11.93 16.7483C12.3387 17.1864 12.794 17.4997 13.3664 17.4997H14.9994H16.6324C17.2047 17.4997 17.66 17.1864 18.0688 16.7483C18.9055 15.8514 17.5317 15.1347 17.0077 14.7837C15.779 13.9606 14.2198 13.9606 12.991 14.7837Z" stroke="#03002F" stroke-width="1.5"/>
<path d="M16.6673 10.4165C16.6673 11.337 15.9212 12.0832 15.0007 12.0832C14.0802 12.0832 13.334 11.337 13.334 10.4165C13.334 9.49604 14.0802 8.74988 15.0007 8.74988C15.9212 8.74988 16.6673 9.49604 16.6673 10.4165Z" stroke="#03002F" stroke-width="1.5"/>
<path d="M8.33398 4.99976H12.5007M8.33398 2.49976H15.0007" stroke="#0A4BB8" stroke-width="1.5" stroke-linecap="round" stroke-linejoin="round"/>
<path d="M5.83268 7.9165V11.6665C5.83268 12.4522 5.83268 12.845 5.58861 13.0891C5.34452 13.3332 4.95169 13.3332 4.16602 13.3332H3.33268C2.54701 13.3332 2.15417 13.3332 1.91009 13.0891C1.66602 12.845 1.66602 12.4522 1.66602 11.6665V9.5832C1.66602 8.79754 1.66602 8.4047 1.91009 8.16058C2.15417 7.9165 2.54701 7.9165 3.33268 7.9165H5.83268ZM5.83268 7.9165H9.99935" stroke="#03002F" stroke-width="1.5" stroke-linecap="round" stroke-linejoin="round"/>
<path d="M5.41732 4.16642C5.41732 5.0869 4.67113 5.83309 3.75065 5.83309C2.83018 5.83309 2.08398 5.0869 2.08398 4.16642C2.08398 3.24595 2.83018 2.49976 3.75065 2.49976C4.67113 2.49976 5.41732 3.24595 5.41732 4.16642Z" stroke="#03002F" stroke-width="1.5"/>
</svg>
