<svg width="16" height="16" viewBox="0 0 16 16" fill="none" xmlns="http://www.w3.org/2000/svg">
<path d="M8.66732 10C7.13952 14 2.86176 10 1.33398 14" stroke="#03002F" stroke-width="1.2" stroke-linecap="round" stroke-linejoin="round"/>
<path d="M10.3333 10H11.3342C12.9055 10 13.6912 10 14.1794 9.51187C14.6675 9.02367 14.6675 8.238 14.6675 6.66667V5.33333C14.6675 3.76199 14.6675 2.97631 14.1794 2.48815C13.6912 2 12.9055 2 11.3342 2H8.66753C7.0962 2 6.3105 2 5.82235 2.48815C5.40874 2.90176 5.34558 3.52896 5.33594 4.66667" stroke="#03002F" stroke-width="1.2" stroke-linecap="round" stroke-linejoin="round"/>
<path d="M5.00065 10C5.92113 10 6.66732 9.25383 6.66732 8.33335C6.66732 7.41288 5.92113 6.66669 5.00065 6.66669C4.08018 6.66669 3.33398 7.41288 3.33398 8.33335C3.33398 9.25383 4.08018 10 5.00065 10Z" stroke="#03002F" stroke-width="1.2" stroke-linecap="round" stroke-linejoin="round"/>
<path d="M8 4.66669H12M12 7.33335H10" stroke="#0A4BB8" stroke-width="1.2" stroke-linecap="round" stroke-linejoin="round"/>
</svg>
