<svg width="151" height="289" viewBox="0 0 151 289" fill="none" xmlns="http://www.w3.org/2000/svg">
<g opacity="0.06">
<path d="M147.85 173.331C141.764 196.454 113.004 212.793 55.4807 245.474C-0.126305 277.064 -27.9289 292.861 -50.3351 286.511C-59.6156 283.876 -68.0583 278.889 -74.8456 272.033C-91.3096 255.422 -91.3096 223.203 -91.3096 158.765C-91.3096 94.3274 -91.3096 62.1085 -74.8456 45.4975C-68.0584 38.6415 -59.6156 33.6545 -50.3351 31.0194C-27.929 24.6701 -0.126305 40.4657 55.4807 72.0572C113.004 104.736 141.764 121.076 147.85 144.199C150.362 153.747 150.362 163.783 147.85 173.331Z" fill="#82E8A1" stroke="#03002F" stroke-width="1.7711" stroke-miterlimit="10"/>
<path opacity="0.8" d="M137.625 171.899C133.833 186.294 120.418 197.816 95.6282 213.141C114.342 199.108 125.717 186.51 129.05 173.843C131.679 163.839 131.679 153.326 129.05 143.323C125.745 130.77 115.708 119.185 98.411 106.178C121.427 120.483 133.975 131.427 137.625 145.278C139.92 154.003 139.92 163.174 137.625 171.899Z" fill="url(#paint0_linear_1717_1754)"/>
<path d="M51.1602 78.9262C12.4705 56.9594 -2.49049 52.081 -15.9605 50.8889C-21.8099 50.3712 -27.3297 49.0485 -34.47 49.8236C-44.2847 50.8889 -57.797 57.7319 -64.9811 66.3196C-79.7876 84.0185 -81.7147 99.8393 -82.0548 159.66V158.764C-82.0548 99.879 -83.1883 68.1749 -68.1467 52.9916C-61.9432 46.7286 -54.2285 42.1723 -45.7487 39.7636C-40.2228 38.1977 -33.5692 37.1065 -26.6822 38.6752C-8.39443 42.8409 15.1936 58.4685 51.1602 78.9262Z" fill="url(#paint1_linear_1717_1754)"/>
<path d="M123.704 212.623C123.914 218.833 121.296 225.048 117.592 229.92C113.851 234.849 108.68 239.503 102.34 240.351C99.4936 240.718 96.6035 240.201 94.0613 238.87C92.0161 237.807 90.4367 236.191 88.8342 234.584C82.0839 233.172 75.5197 231.183 69.4264 227.68C68.4433 227.107 67.4836 226.499 66.5473 225.858C66.5104 225.898 66.4698 225.933 66.426 225.965C62.8622 228.91 59.2331 231.793 55.5714 234.626C52.0144 237.431 48.2916 240.02 44.4232 242.378C43.0442 243.198 41.3207 244.33 39.5084 245.271C36.1261 249.897 30.1165 253.386 24.4608 251.704C21.2837 253.521 17.6359 253.861 14.007 254.066C10.7691 254.257 5.70058 254.644 2.66767 252.78C-5.01434 254.02 -13.3255 247.805 -18.3475 242.308C-26.4863 233.41 -34.8391 224.297 -41.9576 214.551C-49.6164 204.056 -53.7951 191.976 -58.5377 179.998C-61.0302 173.728 -63.6111 167.634 -62.9541 160.739C-62.3672 154.567 -60.4758 148.431 -58.4399 142.599C-57.2891 139.314 -55.9989 136.076 -54.5547 132.918C-54.5456 132.898 -54.5378 132.878 -54.5312 132.857C-54.5137 132.824 -54.4982 132.79 -54.4848 132.755C-54.4774 132.731 -54.4681 132.707 -54.4568 132.685C-53.1429 129.564 -39.7634 96.2449 -16.3025 90.9061C-16.3025 90.9061 -16.484 90.3331 -15.7292 87.1512V87.1464C-15.6269 86.6619 -15.5477 86.1635 -15.4917 85.6604C-15.2485 83.1064 -15.5323 80.5298 -16.3257 78.09C-17.5229 74.2373 -19.3631 70.6362 -20.9516 66.9372C-23.913 60.0529 -26.2397 52.9126 -27.9025 45.6052C-29.4537 38.7291 -29.3186 32.5749 -26.4535 26.0388C-24.795 22.27 -22.5078 18.9437 -19.3211 16.6516C-20.2507 15.402 -20.6794 13.85 -20.5231 12.3004C-20.2437 8.65731 -17.1455 5.94138 -13.9636 4.63693C-9.9899 3.01106 -5.39176 3.12753 -1.18031 2.8574C4.28885 2.50322 9.80006 2.30294 15.2087 1.39918C25.509 -0.329161 35.3622 -0.972115 45.4108 2.54053C52.8833 5.15408 59.8947 9.77078 64.2317 16.5072C66.6077 20.1923 68.7041 25.0512 66.971 29.407C65.9556 31.9367 63.8498 33.5299 61.5157 34.7458C60.9848 35.0254 60.435 35.2863 59.89 35.5331C60.0064 35.1653 60.109 34.7972 60.1927 34.415C60.5596 32.9554 60.5403 31.4254 60.1367 29.9754C59.784 30.8066 59.2819 31.566 58.6554 32.2161C57.4226 33.4051 55.9434 34.3084 54.3227 34.8622C55.0215 37.308 55.607 39.7679 56.0791 42.2417C56.4658 44.2355 56.5729 45.6891 55.8789 47.5944L55.8509 47.6783C55.1148 49.6583 53.9363 51.6662 53.6754 53.7812C53.1535 58.1323 55.2731 62.5069 54.7841 66.9652C53.8755 75.2111 48.8582 82.1943 45.2104 89.4339C44.0505 91.7352 43.1606 94.4233 42.0007 96.8829C42.0007 96.8829 41.1128 99.234 40.3255 99.8678C40.3255 99.8678 45.9138 101.617 56.108 113.346C56.8098 114.247 57.2904 115.42 57.9148 115.839C61.1572 118.024 62.2566 118.42 65.5875 120.461C68.5924 122.301 71.9745 123.829 74.7742 125.981C77.4018 128.003 78.3103 130.84 79.2373 133.901C80.4019 137.739 82.6755 140.251 85.4286 143.064C88.047 145.832 90.8121 148.457 93.7119 150.928C96.3253 153.076 98.976 154.506 99.9405 157.935C100.588 160.25 101.608 162.738 102.237 165.193C103.663 165.97 105.017 166.871 106.285 167.886C110.25 171.058 115.132 176.751 115.715 182.262C116.003 182.602 116.278 182.952 116.553 183.301C120.084 187.815 122.826 192.893 124.664 198.321C126.094 202.737 126.723 208.598 123.695 212.418C123.7 212.483 123.704 212.558 123.704 212.623Z" fill="#03002F"/>
<path d="M41.3196 204.725C43.1213 205.565 44.912 206.427 46.7081 207.278C51.8738 213.368 57.6211 218.94 63.8686 223.914C56.9025 229.325 50.205 235.177 42.5741 239.66C46.9305 228.387 45.0479 216.075 41.3196 204.725Z" fill="#EBCAA6"/>
<path d="M87.1638 181.319C84.3175 183.459 80.5284 181.581 77.2212 181.657C79.4927 179.96 81.9355 179.899 84.7431 179.225C88.0733 177.937 91.0191 177.563 87.1638 181.319Z" fill="#EBCAA6"/>
<path d="M87.6832 172.25C84.517 177.156 77.2971 177.151 73.4408 181.308C72.2028 181.198 70.9612 181.093 69.7158 180.993C72.5511 177.401 74.5531 173.123 79.4043 172.239C81.843 171.926 90.2027 165.772 87.6832 172.25Z" fill="#EBCAA6"/>
<path d="M83.4 167.63C70.234 173.143 75.4785 169.565 66.1953 180.728C65.9632 180.711 65.7366 180.695 65.51 180.678C67.0721 177.822 67.3306 174.162 69.3565 171.824C71.8653 169.506 76.0339 167.999 79.0946 166.143C81.5411 164.378 86.3886 162.524 83.4 167.63Z" fill="#EBCAA6"/>
<path d="M69.5333 167.475C69.4062 167.746 69.2791 168.016 69.1574 168.293C65.0732 170.857 64.3934 176.273 62.2214 180.479C61.0166 180.418 59.8062 180.363 58.6069 180.319C61.6291 164.116 59.8154 172.825 67.8043 160.921C71.1548 153.325 73.5139 161.6 69.5333 167.475Z" fill="#EBCAA6"/>
<path d="M40.7837 179.954C55.1845 182.155 68.2113 189.565 83.0631 189.477C77.8591 187.845 71.2737 186.2 65.7534 184.016C76.4985 184.796 87.2604 185.613 97.9522 186.94C107.53 196.07 114.285 210.268 110.907 223.554C107.788 236.502 96.9747 233.27 87.0034 231.043C73.377 228.334 63.0959 219.65 53.4399 210.324C58.3587 212.473 63.3217 214.551 68.1023 216.961C60.195 210.682 49.1591 204.642 39.2639 200.16C35.7558 192.907 28.4467 188.438 20.3569 189.51C27.1383 187.044 33.6829 179.161 40.7837 179.954Z" fill="#EBCAA6"/>
<path d="M8.88314 249.807C8.51937 250.121 8.13934 250.416 7.74463 250.691C9.49746 250.878 11.2624 250.924 13.0227 250.829C15.9076 250.708 18.9584 250.575 21.6444 249.436C22.1154 249.241 22.5716 249.012 23.0094 248.751C25.7397 247.126 27.7624 244.462 29.2215 241.682C30.9237 238.427 33.046 234.149 33.2892 230.48C33.2947 230.364 33.4771 230.325 33.5047 230.452C34.7703 236.824 32.3386 244.578 27.6077 249.271C29.1195 249.146 30.5957 248.745 31.9627 248.088C32.5842 247.774 33.1713 247.396 33.7147 246.96C35.2744 245.658 36.5867 244.085 37.5889 242.318C37.9427 241.732 38.2687 241.141 38.5727 240.555C42.3032 233.354 42.3917 224.865 40.9823 217.044C40.1533 212.44 39.0867 207.256 36.9479 202.785C36.1193 201.016 35.0681 199.359 33.8197 197.855C33.329 197.276 32.803 196.728 32.2446 196.214C29.636 193.832 26.961 193.113 23.7942 192.776C25.4487 194.231 26.9572 195.843 28.2985 197.59C32.7231 203.346 34.9669 210.483 34.6321 217.735C34.6266 217.879 34.389 217.928 34.3669 217.774C33.2891 210.915 30.7082 204.438 26.1431 199.138C24.151 196.858 21.8672 194.851 19.3508 193.169C20.9867 196.297 21.7162 199.801 22.197 203.327C22.8772 208.265 23.0531 213.259 22.7221 218.232C22.1307 227.053 20.329 236.559 14.9073 243.777C13.2974 245.934 11.3423 247.811 9.12079 249.331C9.11676 249.423 9.09352 249.512 9.05257 249.594C9.01163 249.676 8.95389 249.749 8.88314 249.807Z" fill="white"/>
<path d="M88.4404 175.444C88.8224 175.342 89.2225 175.327 89.611 175.401C89.9995 175.474 90.3664 175.635 90.6843 175.87C92.9668 177.688 91.4967 181.093 89.7945 182.845C90.2145 182.883 90.6345 182.922 91.0601 182.961C93.3991 182.351 95.883 182.659 98.0017 183.823C99.783 184.795 101.392 186.054 102.766 187.548C104.719 189.676 106.475 191.977 108.011 194.423C113.283 202.509 116.29 212.341 114.593 221.996C113.913 225.848 112.426 229.888 109.663 232.756C111.744 231.514 113.556 229.868 114.991 227.915C118.263 223.652 120.202 218.516 120.562 213.153C120.562 213.12 120.567 213.081 120.567 213.048C120.731 210.466 120.564 207.873 120.07 205.333C119.506 202.586 118.064 200.232 116.754 197.805C116.726 197.756 116.787 197.673 116.842 197.717C119.351 199.657 121.214 202.603 122.352 205.775C122.452 203.059 122.003 200.35 121.032 197.811C119.275 193.327 116.941 189.091 114.09 185.21C114.035 185.138 113.985 185.066 113.93 184.994C111.045 181.025 107.043 178.006 102.434 176.323C98.781 174.936 94.6746 173.2 90.5848 172.532C90.5461 172.626 90.5019 172.725 90.4577 172.819C89.9705 173.822 89.2841 174.715 88.4404 175.444Z" fill="white"/>
<path d="M7.60113 144.362C5.87679 144.694 4.9207 147.269 5.46783 150.115C6.0205 152.956 7.8609 154.995 9.59076 154.658C11.3151 154.327 12.2712 151.751 11.7241 148.911C11.1769 146.064 9.33097 144.03 7.60113 144.362Z" fill="#00274C"/>
<path d="M31.8962 182.812C34.1097 181.386 35.8325 180.221 38.0632 179.915C38.8558 183.415 36.2469 193.429 39.1131 194.636C42.3119 195.983 48.8779 196.993 61.8416 205.748C74.8053 214.502 97.5337 229.655 102.585 212.482C106.471 199.268 99.0972 190.148 95.4892 186.642C95.9821 186.701 96.4755 186.757 96.9679 186.819C97.294 186.857 97.6201 186.902 97.9517 186.94C99.9725 188.652 101.744 190.639 103.213 192.843C106.282 197.082 108.676 201.771 110.309 206.743C111.973 212.164 112.426 218.05 110.906 223.555C109.492 228.667 106.065 233.691 100.162 233.188C95.7264 232.821 91.3263 232.104 87.0033 231.044C80.982 229.628 75.2133 227.298 69.898 224.135C69.6438 223.98 69.3896 223.82 69.1409 223.654C68.2676 223.091 67.4165 222.488 66.5931 221.864C63.3102 219.382 60.3478 216.514 57.264 213.784C55.9928 212.656 54.7272 211.479 53.4394 210.324C58.3582 212.474 63.3212 214.552 68.1019 216.961C68.134 216.979 68.1718 216.983 68.2071 216.974C68.2424 216.964 68.2726 216.941 68.2912 216.909C68.3098 216.878 68.3155 216.84 68.307 216.805C68.2985 216.769 68.2765 216.738 68.2456 216.718C62.144 212.833 56.2968 208.727 49.8913 205.322C46.636 203.592 43.2924 202.023 39.9487 200.481C39.7221 200.376 39.4955 200.271 39.2634 200.16C38.4887 198.706 37.5803 197.328 36.5498 196.043C34.3209 193.177 31.2736 191.057 27.812 189.963C25.43 189.273 22.8379 189.61 20.3564 189.51C24.3275 187.499 28.1804 185.263 31.8962 182.812ZM83.0903 189.3C77.1767 188.024 71.4566 186.05 65.753 184.017C67.5658 184.144 69.3785 184.271 71.1913 184.409C73.8994 184.614 76.6056 184.831 79.31 185.061C79.7035 185.095 80.098 185.129 80.4935 185.163C85.8765 187.408 92.8197 190.09 92.8197 190.09C89.5654 189.99 86.3181 189.726 83.0903 189.3ZM41.3193 204.725C43.121 205.565 44.9117 206.427 46.7079 207.279C49.7214 210.891 52.9787 214.292 56.457 217.459C58.8335 219.703 61.2764 221.913 63.8684 223.914C60.6131 226.44 57.4297 229.059 54.1745 231.591C50.7871 234.276 47.2518 236.768 43.5853 239.057C43.2482 239.262 42.911 239.466 42.5739 239.66C44.9891 233.735 45.4754 227.031 44.7901 220.731C44.2319 215.607 43.2592 209.904 41.3193 204.725Z" fill="#C39777"/>
<path d="M60.0441 173.449C60.2265 172.482 60.3094 171.349 60.5858 170.349C60.6205 170.21 60.6706 170.079 60.7151 169.945C62.1511 171.087 64.3821 171.166 66.255 171.291C64.5293 174.024 63.7371 177.545 62.2216 180.479C61.0168 180.418 59.8065 180.363 58.6072 180.319C59.1378 178.042 59.6167 175.752 60.0441 173.449ZM80.7357 181.998C79.5641 181.884 78.3985 181.768 77.2212 181.656C77.8105 181.218 78.454 180.858 79.1358 180.585C79.4761 181.238 80.046 181.741 80.7357 181.998ZM68.9927 172.263C69.6378 173.029 70.9024 173.244 72.1997 173.21C70.9003 174.841 69.7385 176.616 68.384 178.208C67.6055 179.004 66.8747 179.845 66.1954 180.728C65.9632 180.711 65.7366 180.695 65.51 180.678C66.5656 178.6 67.1847 176.157 67.9473 174.184C68.2024 173.497 68.5545 172.85 68.9927 172.263ZM74.0986 175.19C74.4222 174.805 74.7827 174.452 75.1749 174.136C75.4237 175.123 76.4541 175.715 78.361 176.097C81.0681 176.638 86.4861 173.553 86.7424 173.406C85.3108 174.855 83.2686 176.041 81.3662 177.108C80.9793 177.185 80.587 177.263 80.1945 177.34C77.3704 177.887 75.5079 179.656 73.4409 181.308C72.2029 181.198 70.9612 181.093 69.7159 180.993C70.3736 180.17 70.9539 179.291 71.4844 178.633C72.3908 177.517 73.1756 176.284 74.0986 175.19ZM87.1638 181.319C86.5195 181.752 85.8301 182.113 85.1078 182.397C85.0912 182.402 85.0747 182.413 85.0581 182.419C84.6735 182.381 84.2851 182.344 83.9002 182.306C85.9195 181.76 87.9437 179.976 88.962 178.971C88.7251 179.806 87.4888 181.073 87.1638 181.319Z" fill="#C39777"/>
<path d="M97.9521 180.479C104.051 182.514 110.922 192.776 110.922 192.776C110.922 192.776 109.894 185.984 102.357 179.832C106.743 180.719 110.905 182.933 113.68 184.679C113.762 184.786 113.849 184.885 113.93 184.995C113.985 185.066 114.035 185.138 114.09 185.21C116.941 189.091 119.275 193.327 121.032 197.811C122.003 200.35 122.452 203.059 122.353 205.775C121.214 202.603 119.352 199.657 116.842 197.717C116.787 197.673 116.726 197.756 116.754 197.806C118.064 200.232 119.506 202.586 120.07 205.333C120.564 207.873 120.731 210.466 120.567 213.048C120.567 213.081 120.562 213.12 120.562 213.153C120.202 218.516 118.263 223.652 114.991 227.915C113.556 229.868 111.744 231.514 109.663 232.757C112.427 229.888 113.913 225.848 114.593 221.996C116.29 212.341 113.283 202.509 108.011 194.423C106.475 191.977 104.719 189.676 102.766 187.548C101.393 186.054 99.7832 184.795 98.0018 183.823C95.8832 182.659 93.3993 182.351 91.0603 182.961C90.6347 182.922 90.2147 182.883 89.7947 182.845C90.6647 181.942 91.3053 180.843 91.6628 179.641C93.7915 179.564 95.9179 179.847 97.9521 180.479Z" fill="#CDDCF4"/>
<path d="M8.88312 249.807C8.95389 249.749 9.01163 249.676 9.05257 249.594C9.09352 249.512 9.11676 249.423 9.12077 249.331C11.3423 247.811 13.2974 245.934 14.9073 243.777C20.329 236.559 22.1307 227.053 22.7221 218.232C23.0531 213.259 22.8772 208.265 22.197 203.327C21.7162 199.801 20.9867 196.297 19.3507 193.169C20.5686 193.989 21.7353 194.883 22.8443 195.845C26.7613 205.2 24.7838 225.289 24.7838 225.289C24.7838 225.289 31.0118 233.269 33.6022 223.826C37.6556 227.949 34.7358 231.407 38.0608 232.072C39.694 232.399 40.9 230.768 41.7054 229.024C41.4463 233.039 40.3809 236.961 38.5727 240.555C38.2687 241.141 37.9426 241.732 37.5889 242.318C36.5867 244.085 35.2744 245.658 33.7147 246.96C33.1713 247.396 32.5841 247.774 31.9627 248.088C30.5956 248.745 29.1195 249.146 27.6077 249.271C32.3385 244.578 34.7703 236.824 33.5047 230.452C33.477 230.325 33.2947 230.364 33.2892 230.48C33.046 234.149 30.9237 238.427 29.2214 241.682C27.7624 244.462 25.7396 247.126 23.0094 248.751C22.5716 249.012 22.1154 249.241 21.6444 249.436C18.9584 250.575 15.9076 250.708 13.0226 250.829C11.2624 250.924 9.49746 250.878 7.74463 250.691C8.13934 250.416 8.51936 250.121 8.88312 249.807ZM34.6684 216.456C34.6934 209.635 32.4529 202.999 28.2985 197.59C26.9572 195.843 25.4487 194.231 23.7942 192.776C26.9611 193.113 29.636 193.832 32.2446 196.214C32.3198 196.283 32.3895 196.358 32.4634 196.428C33.9284 200.883 36.2145 209.701 34.6322 217.735C34.6787 217.31 34.6909 216.882 34.6684 216.456Z" fill="#CDDCF4"/>
<path d="M41.9485 181.667C47.5387 183.065 74.3268 193.622 86.2818 193.124C98.2369 192.626 101.226 198.728 101.226 205.079C101.226 211.43 100.105 216.163 93.3802 214.419C86.6554 212.676 74.9494 196.736 60.3792 192.502C66.2629 196.946 71.5017 202.184 75.9457 208.068C75.9457 208.068 52.0356 194.37 46.3071 192.626C40.5787 190.883 41.3259 188.143 41.2013 186.026C41.0768 183.909 39.956 181.169 41.9485 181.667Z" fill="#FFE3C9"/>
<path d="M-14.8466 93.2459C-8.21732 100.989 5.9404 106.653 13.8415 109.202C22.2503 115.076 28.3111 123.22 36.5663 129.49L38.2062 130.851C39.3801 125.922 38.1689 120.765 39.2589 115.803C39.2883 115.802 39.3181 115.801 39.349 115.801C41.2982 115.801 46.3909 118.523 47.831 119.376C49.2006 111.736 41.4998 105.862 35.7372 102.409C35.9677 102.368 36.2015 102.348 36.4357 102.349C42.7226 102.35 54.1675 115.817 55.0378 117.769C60.4187 121.692 66.5307 124.566 72.0233 128.279C76.9895 133.087 74.4459 138.314 82.1793 144.854C85.9522 148.878 90.0621 152.572 94.464 155.896C96.607 157.815 96.4069 160.62 97.3898 163.098C94.2409 162.048 90.4669 161.131 87.1912 161.131C86.8905 161.131 86.5942 161.139 86.3023 161.155C95.5309 163.96 104.299 168.334 109.381 176.799C103.655 173.206 97.0946 171.161 90.3413 170.864C90.5262 168.662 88.9339 166.34 86.6503 166.34C86.5153 166.34 86.3804 166.348 86.2463 166.364C87.1594 164.281 86.088 161.43 83.6327 161.169C83.5881 161.168 83.5436 161.168 83.4994 161.168C79.5056 161.168 76.1674 164.252 72.6336 165.795C75.4338 161.556 73.0149 154.811 69.4856 154.811C68.341 154.811 67.0789 155.521 65.8413 157.256C64.811 159.182 63.6171 161.017 62.2729 162.739C62.0192 159.145 62.3431 155.534 63.2324 152.043C60.903 155.043 59.119 157.312 59.119 157.312C58.8779 160.236 58.9184 163.177 59.24 166.093C55.8625 169.937 56.92 175.387 55.0192 180.046C46.9357 177.66 42.1995 176.573 38.6807 176.573C31.7498 176.573 29.5419 180.789 15.7793 187.593C13.2823 186.829 11.7496 184.668 9.64391 183.209C7.56617 168.795 3.51781 153.939 -4.714 142.055C-3.67059 141.482 -3.66579 141.025 -5.54336 140.885C-5.2638 141.272 -4.98425 141.664 -4.714 142.055C-5.24704 142.335 -5.79982 142.577 -6.36796 142.777C0.913654 154.205 4.83144 167.738 7.05842 180.955C6.42014 180.456 5.76797 179.962 5.11555 179.496C3.94341 170.563 -0.473938 162.374 -7.29496 156.487C-0.45142 165.222 4.086 185.338 4.81756 195.373C4.81756 195.373 6.13599 187.439 5.69788 183.88C17.6289 191.846 20.5264 201.751 19.5622 215.648C19.3852 228.948 15.1271 245.966 0.489635 249.642C-12.6665 249.358 -35.3167 217.861 -43.3018 206.68C-46.4743 201.471 -48.729 195.881 -50.9699 190.235C-55.4143 178.541 -62.4582 166.778 -58.3865 153.948C-52.9871 135.835 -41.8529 101.799 -14.8466 93.2459ZM-16.4399 96.2461C-18.3406 98.1608 -21.0473 101.683 -22.1747 104.031C-12.7223 110.003 -3.87083 117.974 -1.74644 129.197C5.29274 123.136 9.30377 113.148 11.6051 113.148C13.3801 113.148 18.882 116.521 21.2998 118.058C15.2258 112.585 12.6581 110.051 10.8831 110.051C8.24079 110.051 7.3557 115.669 -0.726212 125.568C-1.59743 118.473 -8.94871 110.357 -19.1559 102.819C-18.3698 100.581 -17.4631 98.3866 -16.4399 96.2461ZM-54.6782 161.106C-54.631 161.105 -54.5859 161.086 -54.5524 161.053C-47.7056 153.128 -39.3355 148.131 -29.8092 148.131C-26.1778 148.158 -22.5806 148.836 -19.1886 150.133C-22.9313 147.095 -27.7783 145.671 -32.7049 145.671C-42.4223 145.671 -52.4425 151.218 -54.8599 160.876C-54.8651 160.903 -54.8644 160.931 -54.8578 160.958C-54.8512 160.985 -54.8388 161.01 -54.8216 161.032C-54.8044 161.054 -54.7826 161.072 -54.7579 161.085C-54.7331 161.097 -54.7059 161.104 -54.6782 161.106ZM-13.7734 89.4854L-15.8311 90.1371C-28.3451 94.1003 -39.0148 103.604 -47.5437 118.382C-54.1791 129.88 -58.3243 142.327 -61.5037 152.99C-65.1822 164.619 -60.8072 175.033 -56.5764 185.105C-55.7063 187.177 -54.8065 189.319 -54.0183 191.393L-54.0098 191.415L-54.001 191.437C-51.8943 196.745 -49.5068 202.762 -46.0867 208.376L-46.0248 208.478L-45.9555 208.575C-42.2037 213.829 -34.3966 224.76 -25.7785 234.418C-14.8082 246.712 -6.23902 252.758 0.419132 252.902L0.858154 252.911L1.28399 252.805C8.80859 250.915 14.7322 245.661 18.4141 237.61C21.9006 229.987 22.7375 221.55 22.8216 215.782C23.3658 207.813 22.6249 201.627 20.4912 196.323C19.6613 194.257 18.597 192.293 17.3193 190.47C21.4654 188.406 25.4962 186.119 29.3938 183.618C33.5309 181.02 35.4191 179.834 38.6807 179.834C41.633 179.834 45.9551 180.771 54.0961 183.174L56.9245 184.009L58.0387 181.278C58.8157 179.171 59.3312 176.977 59.5737 174.745C59.7364 173.191 60.0661 171.658 60.557 170.174L64.8322 164.76C66.2479 162.952 67.5083 161.028 68.6001 159.007C68.8343 158.671 69.1217 158.375 69.451 158.131C69.9079 158.619 70.2268 159.219 70.3752 159.871C70.5833 160.554 70.6495 161.272 70.57 161.982C70.4904 162.692 70.2667 163.378 69.9126 163.998L63.836 173.196L73.9388 168.784C75.2243 168.193 76.4731 167.525 77.6785 166.784C79.6396 165.631 81.4969 164.539 83.2377 164.437C83.3231 164.632 83.331 164.853 83.2598 165.054L80.9739 170.268L86.6274 169.603L87.0668 166.366L86.656 169.601C86.8059 169.716 86.9244 169.867 87.0005 170.04C87.0766 170.213 87.108 170.403 87.0916 170.591L86.8075 173.975L90.2003 174.122C96.3726 174.387 102.37 176.252 107.604 179.533L119.45 187.232L112.177 175.12C109.466 170.69 105.755 166.956 101.342 164.216L100.421 161.896C100.183 161.228 99.9934 160.544 99.8543 159.849C99.4052 157.886 98.8461 155.443 96.6398 153.466L96.5361 153.374L96.4246 153.29C92.172 150.077 88.2009 146.507 84.5544 142.62L84.4272 142.485L84.2853 142.365C80.63 139.273 79.7458 136.646 78.8095 133.866C77.9772 131.393 77.0341 128.591 74.2914 125.936L74.0863 125.737L73.8497 125.578C71.2908 123.848 68.6069 122.296 66.0114 120.795C63.0115 119.06 60.1676 117.416 57.4948 115.52C56.1723 113.476 53.07 109.901 50.0282 106.977C44.5074 101.669 40.0614 99.0887 36.4364 99.0878C36.0062 99.0871 35.5769 99.1251 35.1535 99.2013L26.6257 100.753L34.0614 105.207C38.8092 108.051 41.9756 110.852 43.5604 113.609C42.2293 113.011 40.8042 112.649 39.349 112.54C39.2657 112.54 39.1852 112.542 39.1065 112.546L36.61 112.662L36.0738 115.104C35.5739 117.782 35.382 120.508 35.502 123.23C35.5051 123.633 35.5083 124.033 35.509 124.429C32.9715 122.236 30.5767 119.867 28.2394 117.556C24.3892 113.748 20.4082 109.811 15.709 106.529L15.308 106.248L14.8426 106.098C-3.60641 100.148 -10.6502 93.1332 -12.3694 91.1251L-13.7734 89.4854Z" fill="#03002F"/>
<path fill-rule="evenodd" clip-rule="evenodd" d="M28.2906 124.733V124.746L23.8324 120.484L21.2981 118.057C22.0153 118.513 22.458 118.807 22.458 118.807L28.2906 124.733Z" fill="white"/>
<path fill-rule="evenodd" clip-rule="evenodd" d="M25.8816 104.207C25.8679 104.207 25.8585 104.202 25.8447 104.202H25.8769L25.8816 104.207Z" fill="#EBCAA6"/>
<path fill-rule="evenodd" clip-rule="evenodd" d="M46.2238 115.85C44.5754 113.216 42.5058 110.871 40.0977 108.908C39.0725 110.505 38.3185 112.26 37.8662 114.103C37.391 115.862 37.1775 117.681 37.2327 119.502C37.2372 119.693 37.2186 119.777 37.1674 119.726C36.5477 119.134 35.5462 117.62 32.928 113.809C31.9329 112.321 31.0185 110.779 30.1887 109.193C30.1887 109.193 35.5275 108.717 37.5168 105.433C38.6721 106.244 39.7622 107.054 40.8618 107.865C43.2408 110.078 45.1006 112.791 46.3077 115.808C46.3309 115.859 46.2566 115.896 46.2238 115.85Z" fill="white"/>
<path fill-rule="evenodd" clip-rule="evenodd" d="M50.1301 42.6701C51.3369 42.7444 52.6831 44.1841 53.2609 45.5351C52.4874 36.8326 49.1845 28.4192 47.0788 19.9451C39.1823 18.7058 30.6431 22.1765 22.5417 21.7666C15.0362 21.9784 7.52793 21.4557 0.124172 20.2059C4.00575 21.8401 7.72304 23.8399 11.2258 26.1783C8.94308 31.6896 10.7786 38.5239 6.69292 43.1125C2.27174 48.1579 1.87594 55.5558 -3.49107 60.0281C-2.4613 53.986 -7.07812 40.406 -15.049 45.1902C-18.4452 47.869 -18.939 54.5963 -16.6052 58.025C-14.5133 60.0049 -10.8376 69.0194 -7.43683 65.5905C-7.41278 65.5676 -7.38268 65.552 -7.35006 65.5457C-7.31744 65.5394 -7.28369 65.5425 -7.25281 65.5548C-7.22192 65.567 -7.19519 65.5879 -7.1758 65.6149C-7.15641 65.6418 -7.14517 65.6738 -7.1434 65.707C-7.19935 67.6637 -9.90584 67.999 -11.2989 67.0534C-10.6001 75.1408 -11.4899 82.6461 -12.9854 90.5098C-13.0784 91.0037 -13.1717 91.4975 -13.2743 91.9911C-13.2508 92.0191 -13.2229 92.0471 -13.1949 92.0751C-13.153 92.1217 -13.1112 92.1683 -13.0646 92.2195C-8.57355 96.8689 5.4584 105.157 10.3172 105.609C11.9396 105.819 13.4928 106.396 14.8594 107.295C18.3348 109.321 21.1907 112.475 24.0278 115.275C26.6553 117.865 29.2176 120.153 31.9195 122.664C33.1076 123.768 34.0998 124.662 35.7163 126.069C36.1403 126.433 36.5829 126.778 37.0208 127.127C37.072 125.934 37.0301 124.742 37.0208 123.544C37.016 123.162 37.016 122.785 37.016 122.403L31.0112 113.57C29.0743 110.577 27.3569 107.448 25.8726 104.206C25.8632 104.206 25.8539 104.202 25.8446 104.202L25.8307 104.197H25.8166C18.7356 102.995 12.6745 97.9823 6.73476 93.9806C7.82959 96.347 8.85435 98.7323 10.0238 101.043C3.32469 94.3905 -5.78311 86.6944 -7.39954 76.9856C-7.67911 73.9063 -6.78924 70.5429 -6.25809 67.6126C-6.22101 67.3655 -5.82953 67.4354 -5.83886 67.6731C-5.88094 72.998 -6.33747 79.2033 -1.38059 82.5062C6.43679 88.8606 13.9463 96.198 23.0355 100.74C26.3851 102.082 30.5219 101.509 34.0298 101.448C39.569 98.4063 41.4045 87.9755 45.2153 82.5853C56.9784 62.7255 48.1595 63.8669 51.7654 49.7185C51.5605 45.1297 46.4498 45.4605 44.7868 50.0959C46.7387 49.29 50.0416 49.3225 50.4238 51.5588C50.4283 51.6052 50.3631 51.6612 50.3212 51.6145C50.1241 51.3685 49.8756 51.1684 49.5932 51.0284C49.3107 50.8884 49.001 50.8118 48.6859 50.804C50.2746 52.034 50.1767 56.4922 47.3815 55.3089C47.1254 55.0387 48.3319 54.8849 48.3039 54.5355C48.1736 53.6224 47.8522 52.4346 46.8784 52.0479C47.5308 54.2282 45.2712 55.6397 43.3145 55.3137C43.8689 58.6958 45.1548 61.9475 46.2169 65.1899C46.8319 67.0395 48.3647 69.1032 46.8738 70.7244C46.0071 71.6654 44.3721 72.7416 42.9838 72.5366C41.712 73.5523 39.611 73.8831 38.2692 72.8114C40.1326 72.1313 43.0584 71.8378 43.9016 69.5645C44.2276 69.5504 44.0368 70.7896 44.0088 71.1204C46.0817 69.9512 45.5647 68.2274 44.7633 66.4617C43.5102 62.0592 41.6794 57.517 41.833 52.905C41.2368 50.8272 46.4266 38.151 44.7867 44.8922C46.1796 43.0986 47.8195 42.5302 50.1301 42.6701ZM-8.16362 63.2334C-8.28464 63.0749 -8.09378 62.6463 -8.22412 62.4227C-8.73297 62.3991 -9.2284 62.2518 -9.66755 61.9937C-10.1067 61.7355 -10.4763 61.3743 -10.7445 60.9412C-10.8376 60.8714 -11.2989 60.6571 -11.0054 60.5547C-9.78938 60.7176 -8.30805 59.3946 -7.38565 60.6339C-7.24255 60.8497 -7.14867 61.0943 -7.11064 61.3504C-7.07262 61.6065 -7.09139 61.8679 -7.16563 62.1159C-7.23986 62.364 -7.36773 62.5927 -7.5402 62.7858C-7.71267 62.9789 -7.92551 63.1317 -8.16362 63.2334ZM-6.2815 56.0125C-6.43049 58.8541 -7.85151 58.5652 -10.4044 58.5748C-8.29395 57.5637 -8.94158 55.9891 -8.87629 53.7531C-10.4695 53.0868 -12.1888 53.1473 -12.976 55.1739C-13.6842 53.8882 -11.5318 50.6828 -9.5007 51.3259C-11.8021 46.9514 -14.9466 48.9732 -15.105 52.961C-16.5258 47.9623 -11.6995 44.9808 -8.18227 49.0989C-6.66343 50.7854 -6.16503 53.8135 -6.2815 56.0125Z" fill="#EBCAA6"/>
<path d="M21.8376 76.5659C22.2356 76.8367 22.6335 77.1075 23.0204 77.3618C25.4846 78.9611 28.147 80.2319 30.9402 81.1421C33.6143 81.9599 36.46 82.0382 39.175 81.3686C40.6838 80.9818 41.6509 79.8433 42.8392 79.0032C41.8499 78.959 40.833 78.7766 39.7995 78.7877C37.3538 78.7886 34.9214 78.4273 32.5816 77.7155C29.7464 76.9362 26.8669 76.8478 23.9544 76.682C23.2856 76.6433 22.5672 76.6157 21.8376 76.5659Z" fill="white"/>
<path d="M47.0788 19.9451C39.1823 18.7058 30.6432 22.1765 22.5417 21.7666C15.0362 21.9784 7.52793 21.4557 0.124176 20.2059C4.00575 21.8401 7.72304 23.8399 11.2258 26.1783C8.94309 31.6896 10.7786 38.5239 6.69293 43.1125C2.27175 48.1579 1.87595 55.5558 -3.49107 60.0281C-2.4613 53.986 -7.07811 40.406 -15.049 45.1902C-18.4452 47.869 -18.939 54.5963 -16.6052 58.025C-14.5133 60.0049 -10.8376 69.0194 -7.43682 65.5905C-7.41278 65.5676 -7.38268 65.552 -7.35006 65.5457C-7.31744 65.5394 -7.28369 65.5425 -7.25281 65.5548C-7.22192 65.567 -7.19519 65.5879 -7.1758 65.6149C-7.15641 65.6418 -7.14516 65.6738 -7.14339 65.707C-7.19935 67.6637 -9.90584 67.999 -11.2989 67.0534C-11.0566 70.0039 -11.0145 72.9674 -11.1731 75.9235C-9.44546 78.4071 -7.84848 80.9791 -6.38864 83.629C-4.07342 87.9521 0.762463 96.5567 4.92728 100.81C5.70305 101.654 6.60895 102.368 7.61055 102.925C12.1527 105.194 11.3982 103.302 17.4497 106.899C21.1721 109.107 25.7938 109.468 28.4912 109.403C26.8957 106.506 25.9237 104.332 25.8819 104.206C25.868 104.206 25.8585 104.202 25.8446 104.202L25.8307 104.197H25.8166C18.7401 102.995 12.6745 97.9823 6.73475 93.9806C7.82957 96.347 8.85435 98.7323 10.0238 101.043C3.3247 94.3905 -5.78313 86.6944 -7.39956 76.9856C-7.67912 73.9063 -6.78924 70.5429 -6.25809 67.6126C-6.22101 67.3655 -5.82953 67.4354 -5.83886 67.6731C-5.88094 72.998 -6.33748 79.2033 -1.38061 82.5062C6.43678 88.8607 13.9463 96.198 23.0355 100.74C26.3851 102.082 30.5219 101.509 34.0298 101.448C29.0683 101.397 24.4518 98.1966 22.9422 92.4199C21.4375 86.6432 11.9619 87.4118 9.48332 83.5823C7.00499 79.7483 11.9619 72.4668 10.2615 69.2103C8.55635 65.9586 9.88412 61.3047 12.0085 60.098C14.1374 58.8914 19.7185 60.9273 22.2762 59.3714C17.2727 58.3651 18.3814 52.9423 18.3814 52.9423L23.902 52.6396L29.837 53.7997L32.9258 54.587C33.2034 54.2298 33.399 53.816 33.4988 53.3748C33.5987 52.9336 33.6002 52.4759 33.5034 52.034C33.1028 50.7063 35.0316 45.018 35.0316 45.018L32.3387 43.9698C32.3387 43.9698 27.0977 43.3316 26.8928 42.5024C26.6879 41.6685 21.3909 42.5024 21.3909 42.5024C21.3909 42.5024 16.1267 38.2257 17.608 33.9909C19.0943 29.7562 14.4543 25.4842 14.4543 25.4842C14.4543 25.4842 29.5577 26.4951 35.898 24.2264C39.6156 22.8986 44.689 23.5556 48.2574 24.3289C47.8429 22.8708 47.4421 21.4079 47.0788 19.9451ZM-8.16362 63.2334C-8.28463 63.0749 -8.09378 62.6463 -8.22412 62.4227C-8.73297 62.3991 -9.2284 62.2518 -9.66755 61.9937C-10.1067 61.7355 -10.4763 61.3743 -10.7445 60.9412C-10.8376 60.8714 -11.2989 60.6571 -11.0054 60.5547C-9.78938 60.7176 -8.30805 59.3946 -7.38565 60.6339C-7.24255 60.8497 -7.14867 61.0943 -7.11064 61.3504C-7.07262 61.6065 -7.09139 61.8679 -7.16563 62.1159C-7.23986 62.364 -7.36773 62.5927 -7.5402 62.7858C-7.71267 62.9789 -7.9255 63.1317 -8.16362 63.2334ZM-6.28149 56.0125C-6.43049 58.8541 -7.85151 58.5652 -10.4044 58.5748C-8.29395 57.5637 -8.94157 55.9891 -8.87629 53.7531C-10.4695 53.0868 -12.1888 53.1473 -12.976 55.1738C-13.6842 53.8882 -11.5318 50.6828 -9.5007 51.3259C-11.802 46.9514 -14.9466 48.9732 -15.105 52.961C-16.5258 47.9623 -11.6995 44.9808 -8.18227 49.0989C-6.66342 50.7854 -6.16502 53.8135 -6.28149 56.0125Z" fill="#C39777"/>
<path d="M14.443 71.1111C12.785 72.4209 12.2047 75.3833 12.3705 77.3895C12.3709 77.4062 12.3768 77.4222 12.3872 77.4353C12.3975 77.4484 12.4118 77.4579 12.4279 77.4622C12.4441 77.4665 12.4612 77.4656 12.4767 77.4594C12.4922 77.4533 12.5054 77.4423 12.5142 77.4282C12.9895 76.5881 13.1387 75.6209 13.6361 74.7809C14.1274 74.0431 14.7168 73.3756 15.3881 72.7968C16.8969 71.3874 19.3065 70.5253 21.3293 70.2324C21.3468 70.2266 21.362 70.2155 21.3728 70.2007C21.3836 70.1858 21.3894 70.1678 21.3894 70.1495C21.3894 70.1311 21.3836 70.1132 21.3728 70.0983C21.362 70.0834 21.3468 70.0723 21.3293 70.0666C19.2236 69.6023 16.2115 69.7129 14.443 71.1111Z" fill="#00274C"/>
<path d="M15.3075 45.4286C14.9706 45.9848 14.6852 46.5704 14.4546 47.1783C15.1508 46.7583 15.8491 46.3492 16.5612 45.9825C17.9063 45.2429 19.3719 44.7476 20.8899 44.5195C23.7839 44.1466 26.5427 45.1274 29.3873 45.4673C31.0981 45.6749 33.5262 46.1619 35.0297 45.0193C35.8443 44.3295 36.489 43.4612 36.9137 42.4818C37.0758 42.1526 37.2217 41.8265 37.3567 41.5025C37.0907 41.5533 36.8216 41.5879 36.5515 41.617C32.0989 42.1077 27.366 40.3956 22.8867 40.8351C21.3493 40.9436 19.8599 41.4169 18.5419 42.2157C17.2238 43.0146 16.1151 44.1159 15.3075 45.4286Z" fill="#00274C"/>
<path d="M15.7639 55.9401C15.7087 55.8848 15.6037 55.9567 15.6534 56.023C16.7974 57.6368 18.0962 58.9467 20.1356 59.2893C22.0257 59.5988 23.7832 59.3667 25.2312 58.0679C25.2588 58.0458 25.2257 57.9905 25.1925 58.0071C22.6226 58.8803 17.7315 57.8026 15.7639 55.9401Z" fill="#00274C"/>
<path d="M16.1286 75.3058C15.2719 77.1959 16.2004 78.876 17.6208 80.1803C17.6705 80.2246 17.7645 80.1803 17.7369 80.114C17.3345 78.9628 17.2656 77.7214 17.5379 76.5327C19.7534 78.2264 22.1217 79.7103 24.6121 80.9651C26.9601 82.2952 29.4935 83.2676 32.1285 83.8501C34.807 84.3362 37.562 84.1924 40.1754 83.43C42.0213 82.8221 42.6569 81.6505 43.4582 80.4014C44.3896 80.084 45.1761 79.4426 45.6745 78.5942C46.31 77.5275 46.2824 76.0353 45.2434 75.2339C45.2392 75.2345 45.2353 75.2364 45.2323 75.2394C45.2093 76.1102 44.9242 76.9538 44.4144 77.6601C44.1259 77.4407 43.7945 77.2844 43.4417 77.2014C42.5242 76.9914 41.5184 77.2346 40.5954 77.2788C40.5401 77.2788 40.4849 77.2843 40.4296 77.2843C39.9224 77.186 39.409 77.1233 38.8932 77.0964C36.1795 76.9804 33.897 76.1237 31.2663 75.6097C29.0048 75.2379 26.7207 75.0201 24.4297 74.9576C22.7717 74.8636 21.086 74.5099 19.417 74.322C19.9008 74.0721 20.408 73.8703 20.9313 73.7196C21.0142 73.6975 20.9866 73.5869 20.9092 73.5814C19.4557 73.4433 17.9469 73.3382 16.9078 74.2281C16.7613 74.3583 16.628 74.5026 16.5099 74.6591C16.3588 74.8596 16.2309 75.0765 16.1286 75.3058Z" fill="#00274C"/>
<path d="M16.0957 52.9283C16.4605 52.967 16.8308 52.9947 17.1624 53.0112C17.1624 53.007 17.1635 53.0028 17.1654 52.9989C17.1673 52.9951 17.17 52.9918 17.1734 52.9891C17.1965 52.9979 17.2207 53.0034 17.2453 53.0057C17.6247 53.0686 18.0132 53.0479 18.3838 52.9449C18.4095 52.9374 18.4321 52.9218 18.4481 52.9004C18.4642 52.8789 18.4729 52.8529 18.4729 52.8261C18.4729 52.7993 18.4642 52.7732 18.4481 52.7518C18.4321 52.7304 18.4095 52.7148 18.3838 52.7073C18.0466 52.4088 18.1903 51.823 18.3617 51.3974V51.3919C18.4722 51.2758 18.5772 51.1653 18.6877 51.0603C18.6923 51.2971 18.7238 51.5326 18.7817 51.7622C19.0635 52.8233 19.8318 53.1494 20.8597 53.1826C22.0093 53.2213 23.1202 53.2876 23.9602 52.3812C24.3365 51.9695 24.5658 51.4448 24.6124 50.889C25.5496 51.5008 26.3694 52.2758 27.0331 53.177C26.801 53.1936 26.5688 53.2102 26.3367 53.2323C26.3036 53.2378 26.2814 53.2876 26.3201 53.3042C26.6704 53.4836 27.0392 53.6244 27.42 53.7242C27.6576 53.785 27.9063 53.8347 28.1606 53.8734C28.4669 53.9081 28.7753 53.9211 29.0835 53.9121C29.3372 53.9013 29.5891 53.8642 29.8352 53.8015C29.769 53.5322 29.6783 53.2695 29.5643 53.0167C29.1425 52.1242 28.5933 51.2976 27.934 50.5629C27.7317 50.3275 27.5158 50.1042 27.2873 49.8941C28.617 50.3322 29.8393 51.046 30.8742 51.9888C30.935 52.0441 31.0344 51.9778 30.9902 51.9059C28.8127 48.4904 25.3198 47.5066 21.4235 48.0372C18.6546 48.4075 16.1068 50.071 16.0957 52.9283Z" fill="#00274C"/>
<path d="M24.2474 69.1712C24.2197 69.1822 24.2308 69.2209 24.2529 69.2264C25.9993 69.7073 27.6794 69.337 29.3209 68.7567C29.2496 68.9447 29.1959 69.139 29.1606 69.337C28.8566 71.0723 30.8518 72.3932 32.3772 72.4098C32.4048 72.4098 32.4324 72.3656 32.4048 72.3435C31.2773 71.4482 30.0007 70.1825 30.686 68.6185C30.7609 68.4514 30.8458 68.289 30.9402 68.1321C31.3986 67.4147 31.9382 66.7527 32.5485 66.1591C32.6756 66.0375 32.7917 65.9214 32.9077 65.8109C32.9161 65.8031 32.922 65.7929 32.9246 65.7817C32.9271 65.7705 32.9263 65.7588 32.9221 65.7481C32.9179 65.7373 32.9106 65.7281 32.9012 65.7216C32.8917 65.7151 32.8805 65.7115 32.869 65.7114C32.5156 65.7593 32.1723 65.8638 31.8521 66.0209C29.1993 65.717 26.6736 68.0769 24.2474 69.1712Z" fill="#00274C"/>
<path d="M29.5641 87.3208C29.5498 87.6937 29.6099 88.0657 29.7409 88.4151C30.0484 89.1438 30.5611 89.7673 31.2165 90.2099C31.872 90.6524 32.642 90.8948 33.4328 90.9076C34.1599 90.911 34.8763 90.7328 35.5172 90.3893C36.158 90.0457 36.7029 89.5476 37.1025 88.9401C37.3418 88.5842 37.5227 88.1924 37.6386 87.7795C37.2241 87.774 36.8096 87.7795 36.3951 87.7906H36.3895C34.8895 87.8808 33.3855 87.8827 31.8853 87.7961C31.1163 87.733 30.3576 87.579 29.6248 87.3374C29.6083 87.3319 29.5862 87.3263 29.5641 87.3208Z" fill="#00274C"/>
<path d="M33.4273 70.647C33.4225 70.6611 33.4215 70.6762 33.4247 70.6908C33.4278 70.7054 33.4349 70.7189 33.4452 70.7297C33.4554 70.7405 33.4685 70.7483 33.4829 70.7523C33.4973 70.7562 33.5125 70.7561 33.5268 70.752C34.1538 70.5699 34.8028 70.4751 35.4557 70.4701C35.8452 70.4207 36.2408 70.4865 36.5934 70.6594C36.946 70.8322 37.2402 71.1046 37.4397 71.4428C37.4508 71.4649 37.495 71.4649 37.5005 71.4373C37.5306 70.9551 37.3913 70.4775 37.1068 70.087C36.8222 69.6965 36.4103 69.4176 35.942 69.2984C35.6884 69.2211 35.4219 69.1946 35.158 69.2206C34.8941 69.2466 34.638 69.3245 34.4043 69.4498C34.1706 69.5751 33.964 69.7454 33.7963 69.9509C33.6286 70.1563 33.5033 70.3929 33.4273 70.647Z" fill="#00274C"/>
<path d="M45.5364 58.676C45.4922 58.6704 45.4811 58.7257 45.5032 58.7533C46.2162 59.5547 47.0341 60.0577 48.1395 59.7039C48.8303 59.4829 49.6207 58.886 49.5322 58.0736C49.5322 58.068 49.5212 58.0625 49.5156 58.0625C48.9431 58.3061 48.3344 58.4536 47.7139 58.4991C46.9946 58.6209 46.266 58.68 45.5364 58.676Z" fill="#00274C"/>
<path d="M-1.97387 26.2297C-1.58486 26.213 -1.19517 26.2241 -0.807744 26.2629C-1.59136 26.8291 -2.30881 27.4817 -2.94658 28.2083C-3.62633 28.9599 -4.26193 29.7723 -4.88646 30.5461C-2.56523 29.1036 -0.326921 27.8878 2.46411 27.3074C2.52489 27.2964 2.56911 27.3793 2.50829 27.4124C0.120745 28.7775 -1.24988 31.1706 -3.91376 32.0659C-4.8975 32.3975 -5.91996 32.7236 -6.93133 33.0939C-8.34366 33.5822 -9.69838 34.2234 -10.9714 35.0062C-10.8719 34.7851 -10.7669 34.564 -10.6508 34.3429C-9.59393 32.5497 -8.28969 30.9143 -6.77659 29.4849C-6.58867 29.297 -6.40631 29.1202 -6.22392 28.9488C-8.15828 29.5513 -9.9821 30.5019 -11.8999 31.154C-11.9164 31.1595 -11.9275 31.1374 -11.9164 31.1208C-10.6847 29.6655 -9.16599 28.48 -7.45522 27.6384C-5.74444 26.7968 -3.87843 26.3173 -1.97387 26.2297Z" fill="#4071C9"/>
<path d="M-4.39447 8.7262C-3.9855 7.98564 -3.48808 7.05716 -2.6591 6.73659C-1.60986 6.41123 -0.499791 6.33181 0.585084 6.50448C0.586373 6.50544 0.587427 6.50669 0.588147 6.50813C0.588867 6.50957 0.589237 6.51116 0.589237 6.51276C0.589237 6.51437 0.588867 6.51596 0.588147 6.5174C0.587427 6.51883 0.586373 6.52008 0.585084 6.52105C-1.12904 7.09892 -2.77329 7.86636 -4.31712 8.80912C-4.36686 8.84227 -4.4221 8.77596 -4.39447 8.7262Z" fill="#4071C9"/>
<path d="M0.336203 30.9992C2.07157 29.6231 4.06674 29.1588 5.97347 28.1032C5.98601 28.0965 6.00052 28.0945 6.0144 28.0976C6.02828 28.1006 6.04064 28.1084 6.04926 28.1197C6.05789 28.131 6.06223 28.145 6.06151 28.1592C6.06079 28.1734 6.05505 28.1868 6.04532 28.1972C4.50887 29.8883 3.53621 31.773 1.35867 32.7512C-0.498884 33.662 -2.47726 34.3022 -4.51624 34.6524C-4.55493 34.6524 -4.57153 34.6027 -4.54391 34.5861C-3.09035 33.221 -1.23335 32.2428 0.336203 30.9992Z" fill="#4071C9"/>
<path d="M0.723097 7.79215C4.28231 5.10064 8.93027 4.82428 13.219 4.89061C13.2266 4.89025 13.234 4.89264 13.2399 4.89734C13.2458 4.90204 13.2498 4.90873 13.2512 4.91617C13.2525 4.92361 13.2511 4.93128 13.2473 4.93777C13.2434 4.94425 13.2373 4.94911 13.2301 4.95143C11.1686 5.74728 9.00211 6.8029 6.80802 7.14C4.81287 7.44949 2.79009 7.57663 0.772855 7.91375C0.757647 7.9167 0.74188 7.91428 0.728252 7.90692C0.714625 7.89955 0.70398 7.88769 0.698113 7.87335C0.692247 7.85902 0.691516 7.84309 0.696072 7.82828C0.700628 7.81348 0.710185 7.80071 0.723097 7.79215Z" fill="#4071C9"/>
<path d="M19.4367 5.76385C23.1452 5.36041 26.7486 2.99497 30.5123 3.73002C30.5399 3.73555 30.5344 3.77424 30.5123 3.77977C27.0194 4.78011 24.4992 7.15106 20.8074 7.54347C16.9939 7.95244 13.2966 6.85813 9.45548 7.7148C9.43337 7.7148 9.4223 7.68714 9.4389 7.67611C12.5449 6.11203 16.0433 6.12863 19.4367 5.76385Z" fill="#4071C9"/>
<path d="M15.0155 16.3036C21.2884 18.238 27.4064 14.4632 33.32 13.0539C33.4637 13.0207 33.6019 12.9875 33.7456 12.9599C36.801 11.7174 39.9943 10.8454 43.2571 10.3624C47.1498 9.74217 51.1389 10.2703 54.7361 11.8822C54.7914 11.9043 54.7637 11.9983 54.7085 11.9928C52.2386 11.7044 49.7431 11.7118 47.275 12.0149C47.7448 12.0646 48.2146 12.1309 48.6898 12.2028C56.0901 13.3634 67.9505 19.0836 63.9215 28.5398C63.8773 28.6448 63.7281 28.5619 63.7446 28.4624C65.9664 16.8618 49.2315 14.1592 41.2232 14.4687C39.2948 14.5485 37.3722 14.7348 35.4643 15.0269C32.6181 15.447 29.7995 16.0383 26.9587 16.6186C24.9712 17.0702 22.9546 17.3823 20.9235 17.5526C18.7073 17.6853 17.0659 17.1105 14.9823 16.4141C14.9677 16.4097 14.9555 16.3996 14.9482 16.3862C14.941 16.3727 14.9395 16.3569 14.9438 16.3423C14.9482 16.3277 14.9583 16.3154 14.9717 16.3082C14.9851 16.3009 15.0009 16.2993 15.0155 16.3036Z" fill="#4071C9"/>
<path d="M39.5264 9.01916C37.5865 9.62709 35.829 10.6219 33.9499 11.357C30.3188 12.7829 25.6322 12.9542 21.7966 12.6005C21.7137 12.5949 21.6861 12.4734 21.7745 12.4513C24.0681 11.9152 26.4004 11.7549 28.6719 11.1248C30.4004 10.6276 32.0936 10.0145 33.7399 9.28996C32.4521 9.57183 31.1644 9.8537 29.8546 10.036C27.8176 10.326 25.7657 10.4994 23.7089 10.5556C21.0804 10.6521 18.4494 10.45 15.8665 9.95316C17.4968 9.66022 19.188 9.62154 20.8128 9.28441C21.3379 9.17386 21.8574 9.0523 22.3714 8.91413C24.2059 8.43312 25.983 7.75491 27.6715 6.89136C31.1644 5.07858 34.0162 3.24924 38.0452 4.58116C38.0497 4.58254 38.0536 4.58549 38.0561 4.58946C38.0586 4.59344 38.0597 4.59819 38.059 4.60286C38.0583 4.60753 38.056 4.61181 38.0525 4.61492C38.0489 4.61804 38.0444 4.61979 38.0397 4.61986C35.6245 4.66408 33.4193 5.68651 31.2639 6.88583C31.8774 6.74213 32.4964 6.61503 33.1154 6.50449C36.5198 5.91312 40.6151 5.73073 43.9588 7.09585C44.5014 7.31279 45.0246 7.57532 45.5229 7.88064C44.4894 7.99671 43.4504 8.12934 42.4279 8.32277C41.4467 8.49205 40.4775 8.72467 39.5264 9.01916Z" fill="#4071C9"/>
<path d="M44.1876 55.299C45.3593 55.2106 46.5586 54.7519 46.8515 53.5083C46.9985 53.0344 47.008 52.5285 46.8791 52.0493C47.0893 52.1233 47.2788 52.2465 47.4318 52.4085C47.9414 53.0071 48.2472 53.7524 48.305 54.5363C48.1983 54.6909 48.0616 54.8224 47.903 54.923C47.7445 55.0237 47.5673 55.0914 47.3821 55.1222C47.3642 55.1265 47.3482 55.1363 47.3363 55.1502C47.3244 55.1641 47.3172 55.1815 47.3157 55.1998C46.1482 55.4764 44.9393 55.5326 43.7512 55.3652C43.8988 55.3604 44.0453 55.3382 44.1876 55.299Z" fill="white"/>
<path d="M18.3836 52.707C18.0464 52.4085 18.1901 51.8227 18.3614 51.3971V51.3916C18.472 51.2756 18.577 51.165 18.6875 51.06C18.6921 51.2968 18.7236 51.5323 18.7815 51.7619C19.0633 52.823 19.8315 53.1491 20.8595 53.1823C22.0091 53.221 23.1199 53.2873 23.96 52.3809C24.3363 51.9692 24.5656 51.4445 24.6122 50.8887C25.5493 51.5005 26.3692 52.2755 27.0329 53.1767C26.8008 53.1933 26.5686 53.2099 26.3365 53.232C26.3034 53.2375 26.2813 53.2873 26.32 53.3038C23.6695 53.3553 21.0185 53.2353 18.3835 52.9446C18.4093 52.9371 18.4319 52.9215 18.4479 52.9001C18.464 52.8787 18.4727 52.8526 18.4727 52.8258C18.4727 52.799 18.464 52.773 18.4479 52.7515C18.4319 52.7301 18.4093 52.7145 18.3836 52.707Z" fill="white"/>
<path d="M24.4665 51.7736L24.4245 51.7657L22.7141 51.4272L23.9041 52.6393L24.4665 51.7736Z" fill="white"/>
<path d="M47.0541 53.7209L47.0128 53.7124L45.3018 53.3745L46.4918 54.586L47.0541 53.7209Z" fill="white"/>
<path d="M29.321 68.7566C29.2497 68.9446 29.1961 69.1389 29.1607 69.3369C29.0989 69.6941 29.135 70.0613 29.2653 70.3996C27.6072 70.3426 25.9765 69.9596 24.4663 69.2727C26.1002 69.5801 27.7883 69.4006 29.321 68.7566ZM44.0645 70.2078L44.0406 69.6312C44.0459 69.824 44.057 70.0163 44.0645 70.2078ZM44.0645 70.2078L44.0698 70.3357L45.0002 70.2509C44.6982 70.5713 44.367 70.863 44.011 71.122C44.0683 70.8208 44.0862 70.5135 44.0645 70.2078ZM38.6894 69.8202C39.4604 70.3073 40.3567 70.559 41.2686 70.5445C42.1805 70.5299 43.0684 70.2498 43.8234 69.7384C43.5553 70.2464 43.1891 70.6961 42.7461 71.0617C42.303 71.4273 41.7919 71.7014 41.2422 71.8681C40.7945 72.0284 40.3414 72.2219 39.8882 72.3711C39.3576 72.5479 38.8104 72.5424 38.2909 72.7358L37.484 72.3435C36.413 72.8758 32.405 72.3435 32.4049 72.3435C31.5389 71.6557 30.5884 70.7486 30.5031 69.6564C33.2864 68.0391 35.8938 68.1055 38.6894 69.8202ZM33.4274 70.6467C33.4225 70.6608 33.4216 70.676 33.4247 70.6906C33.4279 70.7052 33.435 70.7186 33.4452 70.7295C33.4555 70.7403 33.4685 70.7481 33.4829 70.752C33.4973 70.756 33.5125 70.7558 33.5269 70.7517C34.1538 70.5697 34.8029 70.4748 35.4557 70.4699C35.8453 70.4205 36.2408 70.4863 36.5934 70.6591C36.946 70.832 37.2402 71.1044 37.4398 71.4426C37.4508 71.4647 37.4951 71.4647 37.5006 71.437C37.5306 70.9548 37.3913 70.4772 37.1068 70.0867C36.8223 69.6962 36.4103 69.4173 35.9421 69.2982C35.6884 69.2208 35.422 69.1944 35.1581 69.2204C34.8942 69.2463 34.638 69.3242 34.4043 69.4496C34.1706 69.5749 33.964 69.7452 33.7963 69.9506C33.6287 70.1561 33.5033 70.3926 33.4274 70.6467Z" fill="#C39777"/>
<path d="M41.4212 76.5657C42.5706 76.5134 43.7215 76.6316 44.8363 76.9164C44.7224 77.1785 44.5811 77.4278 44.4146 77.66C44.1262 77.4406 43.7948 77.2843 43.4419 77.2013C42.5245 76.9913 41.5186 77.2344 40.5956 77.2787C40.5404 77.2787 40.4851 77.2842 40.4299 77.2842C39.9227 77.1859 39.4093 77.1231 38.8934 77.0963C36.1798 76.9802 33.8973 76.1236 31.2665 75.6096C29.0051 75.2378 26.721 75.0199 24.43 74.9574C22.772 74.8635 21.0863 74.5098 19.4172 74.3219C19.6792 74.1843 19.9495 74.0634 20.2267 73.96C23.5851 74.0129 31.0164 74.238 33.4228 75.198C35.952 76.2501 38.6861 76.7177 41.4212 76.5657Z" fill="#C39777"/>
<path d="M29.5643 87.3218C29.5501 87.6944 29.6102 88.066 29.7411 88.4151C30.0485 89.1438 30.5612 89.7673 31.2167 90.2099C31.8722 90.6524 32.6421 90.8949 33.4329 90.9077C34.1291 90.9101 34.8158 90.7458 35.4355 90.4286C36.0551 90.1113 36.5898 89.6502 36.9948 89.084C36.1404 90.5488 34.4298 92.6866 31.8279 92.3921C27.9168 91.9493 27.033 86.71 27.033 86.71C27.033 86.71 27.468 86.7831 29.5643 87.3218Z" fill="#C39777"/>
<path d="M48.3052 60.5338C47.5759 60.68 46.8215 60.6377 46.1132 60.4111C45.4048 60.1844 44.766 59.7809 44.257 59.2386C44.2241 59.1278 44.1902 59.0172 44.158 58.9063C44.7479 58.7718 45.5363 58.6759 45.5363 58.6759C45.4921 58.6703 45.481 58.7256 45.5031 58.7532C46.2161 59.5546 47.034 60.0576 48.1394 59.7038C48.8139 59.4879 49.5774 58.9122 49.531 58.1289C49.6084 58.4812 49.9086 60.2302 48.3052 60.5338Z" fill="#C39777"/>
<path d="M32.869 65.7113C32.5156 65.7592 32.1722 65.8637 31.8521 66.0208C31.5078 65.9831 31.1603 65.9868 30.8169 66.0317C31.5036 65.1748 32.4017 64.5116 33.4226 64.1073C35.4358 63.4514 36.0663 60.6138 36.0663 60.6138C36.3283 62.3336 36.6946 64.036 37.1631 65.7114C36.5546 64.9541 34.1642 64.96 32.869 65.7113Z" fill="#C39777"/>
<path d="M40.5432 25.5172C40.5432 25.5172 46.327 25.2418 47.3369 26.2517C48.3467 27.2615 51.5599 42.5013 51.5599 42.5013C49.9992 41.4915 50.1726 41.4298 49.632 41.4915C48.7192 41.5957 46.0516 42.3197 46.0516 42.3197C46.0516 42.3197 46.6942 40.4816 46.327 36.9012C45.9598 33.3207 40.8546 30.7583 40.5432 25.5172Z" fill="#FFE3C9"/>
<path d="M46.4485 61.512C47.0801 61.7511 47.7688 61.7955 48.4259 61.6396C49.083 61.4837 49.6783 61.1345 50.1352 60.6372C50.9357 63.7439 50.8491 67.0127 49.8852 70.0726C49.5911 66.9469 48.3974 63.9734 46.4485 61.512Z" fill="#FFE3C9"/>
<path d="M19.33 68.3555C19.33 68.3555 13.2392 70.6396 12.1733 67.1374C11.1075 63.6352 15.4472 62.1886 19.4823 63.1022C23.5175 64.0158 27.9333 59.2954 29.7606 59.1432C31.5878 58.9909 27.4765 65.6908 19.33 68.3555Z" fill="#FFE3C9"/>
<path d="M28.3903 54.6513C28.3903 54.6513 26.7915 57.8489 21.2336 57.0876C21.995 56.4785 21.9189 54.4229 21.9189 54.4229C21.9189 54.4229 27.3245 55.1842 28.3903 54.6513Z" fill="#FFE3C9"/>
<path d="M46.7993 56.0888C46.7993 56.0888 48.629 56.1803 49.4981 55.4941C49.4524 56.8664 48.3546 57.5983 47.1653 57.8728C47.2261 57.2548 47.0986 56.6329 46.7993 56.0888Z" fill="#FFE3C9"/>
<path d="M42.5738 63.2485C42.5738 63.2485 42.7032 65.1893 43.2854 68.6179C41.5387 70.5586 38.4336 68.2297 38.4336 68.2297C38.4336 68.2297 41.2153 68.4885 41.6681 67.8416C41.4375 66.2521 41.7571 64.6315 42.5738 63.2485Z" fill="#FFE3C9"/>
<path d="M40.3258 84.7294C40.3258 84.7294 32.3724 86.3201 27.7771 83.5806C31.6654 88.5293 37.5863 86.7619 40.3258 84.7294Z" fill="#FFE3C9"/>
<path d="M40.3257 89.9434C40.3257 89.9434 39.0002 92.8596 36.9676 96.6596C34.9351 100.46 33.3444 100.548 29.7212 100.194C33.1677 98.1619 32.6374 94.0084 32.6374 94.0084C32.6374 94.0084 36.5258 94.1852 40.3257 89.9434Z" fill="#FFE3C9"/>
<path d="M23.0204 77.3618C22.6335 77.1075 22.2356 76.8367 21.8376 76.5659C22.5672 76.6157 23.2856 76.6433 23.9544 76.682C26.867 76.8478 29.7464 76.9362 32.5816 77.7155C34.9214 78.4273 37.3538 78.7887 39.7995 78.7877C40.833 78.7766 41.8499 78.959 42.8392 79.0032C41.6509 79.8433 40.6838 80.9818 39.175 81.3687C36.46 82.0382 33.6143 81.9599 30.9402 81.1421C28.147 80.2319 25.4846 78.9611 23.0204 77.3618Z" fill="white"/>
<path d="M103.836 170.171C103.24 169.608 102.625 169.086 102.006 168.592C101.034 167.822 100.011 167.119 98.9446 166.486C95.106 164.176 90.8852 162.731 86.4827 161.213C86.4222 161.194 86.3662 161.176 86.3057 161.157C86.293 161.151 86.2831 161.14 86.2779 161.127C86.2727 161.115 86.2726 161.1 86.2778 161.087C86.2778 161.078 86.2825 161.078 86.2871 161.073L86.3012 161.059C86.3057 161.054 86.3151 161.054 86.3244 161.054C90.0959 161.176 93.8276 161.865 97.3935 163.099C97.2722 162.736 97.1605 162.363 97.0534 162C96.946 161.632 96.8482 161.264 96.7458 160.9C96.6294 160.453 96.5268 160.011 96.4151 159.587C96.3733 159.41 96.3266 159.233 96.28 159.06C96.0286 157.84 95.3936 156.731 94.4677 155.897C93.0701 154.677 91.4908 153.642 90.07 152.426C87.2934 150.06 84.7312 147.465 82.183 144.856C79.9281 142.536 77.6499 140.235 76.3922 137.197C75.097 134.085 74.92 130.433 72.027 128.281C68.957 126.007 65.3045 124.344 62.0575 122.322C59.6954 120.85 57.3429 119.345 55.0415 117.771C52.76 114.417 50.0925 111.343 47.0938 108.612C44.6647 106.408 41.9679 104.519 39.067 102.989C38.1477 102.508 37.1165 102.283 36.0807 102.336C35.9651 102.35 35.8511 102.375 35.7406 102.411C37.8464 103.725 39.8449 105.085 41.8342 106.557L41.9227 106.618L41.9973 106.692C44.3023 108.822 46.1435 111.404 47.4059 114.277C47.4083 114.281 47.4099 114.286 47.4107 114.291C48.12 115.891 48.2693 117.683 47.8345 119.378C46.3718 118.511 41.1402 115.716 39.2626 115.805C39.1182 116.643 38.9924 117.482 38.9087 118.33C38.7557 120.13 38.6981 121.937 38.7362 123.743C38.7456 124.968 38.7874 126.193 38.7315 127.414C38.7037 128.001 38.6245 128.336 38.5731 128.947C38.5027 129.59 38.3828 130.227 38.2144 130.852L36.57 129.492C35.9503 128.979 35.3028 128.504 34.7018 127.978C33.0853 126.571 32.0883 125.676 30.9005 124.572C28.1983 122.061 25.6408 119.774 23.0133 117.184C20.1762 114.384 17.3203 111.23 13.8449 109.203C12.4783 108.304 10.9251 107.728 9.30275 107.517C4.44391 107.065 -9.58803 98.7774 -14.079 94.1281C-14.1257 94.0767 -14.1675 94.0303 -14.2094 93.9837C-14.3852 93.8028 -14.5516 93.6131 -14.708 93.4152C-14.7358 93.3827 -14.7637 93.3499 -14.7872 93.3219C-14.8093 93.3 -14.8281 93.2749 -14.8431 93.2476C-20.671 94.7616 -25.7396 97.9481 -29.9558 101.605C-39.1798 109.6 -44.3182 119.853 -44.3182 119.853C-44.8262 120.79 -45.3339 121.721 -45.8323 122.653C-47.7752 126.249 -49.6245 129.892 -51.3062 133.615C-51.9864 135.106 -52.6294 136.615 -53.2491 138.138C-55.0692 142.632 -56.6095 147.235 -57.8611 151.919C-57.8599 151.927 -57.8615 151.935 -57.8657 151.942C-58.0426 152.613 -58.215 153.284 -58.3782 153.955C-58.9148 156.068 -59.284 158.221 -59.4823 160.393C-59.4916 160.523 -59.5055 160.658 -59.5148 160.793C-59.83 164.871 -59.2563 168.969 -57.8331 172.803C-55.7042 178.669 -53.263 184.431 -50.9664 190.236C-48.7253 195.882 -46.4706 201.473 -43.298 206.681C-37.4701 216.241 -29.6669 224.365 -22.3295 232.746C-16.1102 239.855 -8.98249 248.945 0.497925 249.643C3.33493 248.873 5.99193 247.55 8.31666 245.75C10.6414 243.951 12.5882 241.71 14.0453 239.157C16.7987 234.354 18.2568 228.791 18.9836 223.21C19.0161 222.954 19.0486 222.702 19.0766 222.446C19.1746 221.659 19.249 220.876 19.3143 220.089C19.3516 219.646 19.3842 219.204 19.4121 218.761C19.4867 217.718 19.5331 216.679 19.5659 215.649C19.8175 207.66 19.6637 197.518 14.0035 191.261C13.3604 190.544 12.6803 189.864 11.9769 189.202C11.4831 188.75 10.9799 188.298 10.4674 187.86C9.4565 186.989 8.41309 186.137 7.38331 185.284C6.81963 184.823 6.25141 184.362 5.70161 183.882C6.1395 187.441 4.82105 195.375 4.82105 195.375C4.82105 195.375 3.50283 185.792 2.76673 181.296C2.3939 179.861 1.98877 178.45 1.57864 177.043C1.39234 176.423 1.21536 175.808 1.03361 175.203C-0.988174 168.434 -2.88416 162.21 -7.47776 156.675C-7.58945 156.545 -7.40793 156.354 -7.28671 156.489C-4.88754 158.986 -2.40445 161.38 -0.373333 164.208C1.87681 167.33 2.94368 170.73 3.94524 174.401C4.41111 176.102 4.81193 177.802 5.11924 179.498C5.77141 179.964 6.42381 180.458 7.06211 180.956C7.02003 180.555 6.9734 180.15 6.91743 179.75C6.06964 173.707 4.22962 167.73 2.35681 161.935C-0.000476837 154.639 -3.10778 147.228 -7.56149 140.84C-8.31147 139.769 -9.10036 138.725 -9.92813 137.71C-9.21545 137.714 -8.49322 137.766 -7.77576 137.84L-5.53971 140.542C-1.2864 145.993 1.64392 152.79 3.91751 159.573C6.40973 167.003 8.86485 175.109 9.64758 183.211C11.1475 184.39 12.6338 185.601 14.008 186.919C14.6185 187.092 15.2124 187.318 15.783 187.595C20.9075 184.813 26.0414 182.181 30.9562 178.999C33.1831 177.565 35.2982 176.316 38.0326 176.386C40.9211 176.456 43.9119 177.178 46.7119 177.872C49.2507 178.496 51.7666 179.232 54.2495 180.034C54.5058 180.038 54.7667 180.043 55.0229 180.048C55.2697 178.999 55.6612 177.937 55.8102 177.22C56.304 174.797 56.7699 172.37 57.2592 169.948C57.6177 168.177 57.8879 167.404 59.2436 166.095C59.1317 164.879 59.0805 163.682 59.0153 162.624C58.9221 161.155 58.9315 159.681 59.0432 158.212C59.0619 157.91 59.0944 157.612 59.1226 157.314C59.1226 157.314 60.9067 155.045 63.236 152.045L63.1707 152.315C63.1475 152.403 63.1243 152.492 63.1057 152.58C63.0217 152.925 62.9473 153.27 62.8773 153.615C62.8029 153.959 62.7422 154.304 62.6817 154.649C62.6491 154.821 62.6212 154.993 62.598 155.166C62.5465 155.511 62.5001 155.855 62.4535 156.2C62.4301 156.372 62.4114 156.545 62.3975 156.717C62.3696 156.917 62.3509 157.127 62.3277 157.327C62.1798 159.089 62.158 160.859 62.2624 162.624C62.2626 162.664 62.2672 162.703 62.2763 162.741C62.6118 162.322 62.9287 161.893 63.2408 161.455C63.5529 161.022 63.8556 160.57 64.1539 160.113C64.7455 159.205 65.2999 158.255 65.8449 157.258C67.4661 154.276 70.1496 154.369 71.9571 156.042C72.0083 156.088 72.0596 156.14 72.1109 156.195C72.9974 157.102 73.5732 158.267 73.7553 159.522C73.8911 160.393 73.899 161.28 73.7787 162.154C73.7739 162.182 73.774 162.21 73.7692 162.238C73.746 162.415 73.718 162.582 73.6855 162.755C73.6737 162.794 73.6659 162.835 73.6623 162.876C73.581 163.266 73.4783 163.652 73.3547 164.031C73.1559 164.635 72.9162 165.225 72.6373 165.797C74.4168 164.823 76.2197 163.892 78.004 162.946C79.5741 162.112 81.498 161.012 83.3567 161.138C83.4504 161.144 83.5437 161.155 83.6363 161.171C83.7296 161.185 83.8274 161.199 83.9159 161.217C84.5162 161.342 85.0688 161.634 85.5091 162.061C85.748 162.293 85.9506 162.56 86.1101 162.852C86.1474 162.923 86.1799 162.992 86.2127 163.062C86.2452 163.132 86.2732 163.202 86.3012 163.276C86.3336 163.349 86.3601 163.424 86.3803 163.5C86.4085 163.576 86.4318 163.654 86.4502 163.733C86.4688 163.812 86.4875 163.892 86.5013 163.975C86.5154 164.054 86.5293 164.134 86.5387 164.213C86.548 164.297 86.5573 164.376 86.5621 164.46C86.5882 164.921 86.5426 165.383 86.427 165.829C86.3827 166.013 86.3234 166.192 86.2498 166.365C86.5778 166.337 86.908 166.35 87.2329 166.402C87.365 166.426 87.4957 166.457 87.6242 166.496C88.1464 166.661 88.6257 166.939 89.0276 167.312C89.4295 167.684 89.7442 168.14 89.9489 168.648C90.0045 168.766 90.0527 168.887 90.0932 169.011C90.2967 169.607 90.3821 170.237 90.3447 170.865C90.559 170.87 90.7733 170.87 90.9878 170.88C91.095 170.884 91.2021 170.889 91.3092 170.898C91.3995 170.898 91.4897 170.903 91.5795 170.912C91.7098 170.917 91.8356 170.921 91.9614 170.935C92.1431 170.949 92.3201 170.963 92.5019 170.982C92.6788 170.996 92.8606 171.015 93.0376 171.038C93.2191 171.057 93.3963 171.08 93.5733 171.108C95.3738 171.362 97.1535 171.746 98.8982 172.259C100.128 172.608 101.367 173.009 102.616 173.442C105.014 174.248 107.292 175.379 109.385 176.801C107.831 174.359 105.966 172.131 103.836 170.171ZM-41.1736 147.139C-37.3696 145.687 -33.2526 145.252 -29.229 145.876C-25.5924 146.479 -22.1458 147.919 -19.1615 150.083C-19.1428 150.102 -19.157 150.148 -19.1849 150.134C-25.5999 147.819 -33.5428 147.479 -39.9903 149.873C-46.0748 152.128 -49.9694 156.796 -54.5486 161.054C-54.572 161.077 -54.6013 161.094 -54.6332 161.101C-54.6652 161.109 -54.6986 161.107 -54.7298 161.097C-54.7611 161.087 -54.789 161.069 -54.8105 161.044C-54.8319 161.019 -54.8462 160.989 -54.8516 160.956C-54.8603 160.931 -54.8619 160.904 -54.8562 160.877C-53.7102 154.169 -47.1321 149.347 -41.1736 147.139ZM11.4458 116.601C7.0387 122.374 -1.207 128.784 -1.71949 129.18C-1.72427 129.185 -1.7336 129.189 -1.73814 129.194L-1.74292 129.198C-2.46972 126.99 -3.09867 123.184 -5.25079 119.816C-7.56103 116.288 -10.3734 113.117 -13.5991 110.401C-16.2568 108.022 -19.126 105.89 -22.171 104.032C-21.4236 102.568 -20.5359 101.179 -19.5204 99.8862C-18.5665 98.6125 -17.5366 97.3974 -16.4363 96.2477C-17.4594 98.3883 -18.3661 100.583 -19.1524 102.821C-8.94519 110.359 -1.59369 118.474 -0.722698 125.569C12.7829 109.408 5.88792 104.223 20.9821 117.752L21.3036 118.059C13.6027 114.85 11.4458 116.601 11.4458 116.601Z" fill="white"/>
<path d="M0.758904 161.125C-2.51334 151.839 -12.6492 137.72 -12.6492 137.72L-9.92845 137.726C-9.09945 138.737 -8.31466 139.782 -7.563 140.854C-3.10847 147.243 0.00308704 154.654 2.35744 161.949C4.23101 167.741 6.07139 173.721 6.91699 179.768C6.97228 180.165 7.02201 180.569 7.06623 180.972C6.42515 180.475 5.77295 179.983 5.1208 179.513C4.81131 177.817 4.40787 176.12 3.94361 174.418C2.94327 170.742 1.87663 167.343 -0.372756 164.221C-2.35295 161.471 -4.75709 159.13 -7.09627 156.697C-6.03399 156.759 -2.8871 157.286 0.758904 161.125Z" fill="#CDDCF4"/>
<path d="M59.2448 166.108L59.24 166.117C57.8845 167.421 57.6188 168.195 57.2601 169.96C56.892 171.81 56.524 173.66 56.1561 175.509C56.0488 176.026 55.9464 176.543 55.8438 177.06C55.8393 177.079 55.8345 177.102 55.8299 177.125C55.8206 177.163 55.8158 177.2 55.8067 177.237C55.6575 177.955 55.2708 179.017 55.024 180.065C54.7631 180.061 54.5022 180.056 54.2506 180.046C52.499 179.483 50.7427 178.956 48.9677 178.477C48.2689 178.286 47.5701 178.099 46.8666 177.927C46.8154 177.913 46.7642 177.903 46.7128 177.889C43.9131 177.195 40.9175 176.473 38.0292 176.399C35.2991 176.334 33.1795 177.577 30.9621 179.017C26.0425 182.199 20.9086 184.831 15.7841 187.607C15.2126 187.334 14.6188 187.109 14.0091 186.937C12.6186 185.628 11.1633 184.391 9.6487 183.228C8.86597 175.122 6.41084 167.016 3.91841 159.59C1.64026 152.807 -0.917218 146.756 -5.25903 140.904C-4.28999 140.97 -3.6285 141.011 -2.72953 141.072C-2.05871 141.119 -1.3879 141.147 -0.712303 141.175C2.819 146.127 11.5679 160.336 15.2391 183.843C28.6791 173.781 31.8005 170.068 39.2776 172.094C40.2279 172.35 41.2436 172.602 42.287 172.844C38.7232 170.734 33.1048 168.493 27.2863 170.51C33.4635 165.162 40.2421 165.199 45.143 166.345C45.9071 166.522 46.6197 166.727 47.2812 166.942C48.937 167.465 50.5304 168.168 52.0332 169.038L59.1235 157.326C59.091 157.624 59.063 157.927 59.0444 158.23C58.931 159.697 58.9201 161.169 59.0118 162.637C59.0817 163.699 59.1283 164.892 59.2448 166.108Z" fill="#CDDCF4"/>
<path d="M86.2738 161.084C86.2738 161.076 86.2778 161.068 86.2818 161.068C86.2857 161.06 86.2897 161.056 86.2937 161.056C86.3012 161.053 86.3094 161.052 86.3175 161.052C90.0883 161.173 93.8193 161.862 97.3843 163.097C97.2652 162.732 97.1541 162.362 97.047 161.997C96.9398 161.632 96.8366 161.263 96.7373 160.898C96.6182 160.449 96.515 160.009 96.4118 159.584C96.3681 159.405 96.3205 159.231 96.2728 159.056C95.0387 157.839 93.45 157.045 91.7358 156.789C86.6033 156.206 80.3753 157.877 77.6601 159.139C77.0449 151.077 68.8559 147.648 63.2312 152.042L63.1637 152.312L63.0962 152.578C63.0169 152.923 62.9374 153.268 62.8699 153.614C62.7985 153.955 62.7349 154.3 62.6754 154.646C62.6437 154.816 62.6158 154.991 62.5921 155.162C62.5404 155.507 62.4928 155.852 62.4492 156.198C62.4253 156.369 62.4056 156.543 62.3896 156.714C62.3618 156.916 62.3459 157.123 62.3222 157.325C62.1704 159.086 62.1478 160.856 62.2546 162.62C62.2546 162.66 62.2626 162.704 62.2665 162.743L62.2705 162.739C62.604 162.319 62.9214 161.89 63.235 161.453C63.5486 161.017 63.8503 160.568 64.148 160.112C64.7395 159.203 65.2952 158.25 65.839 157.254C67.4586 154.273 70.1459 154.368 71.9519 156.039C72.0036 156.091 72.0551 156.138 72.1068 156.194C72.9885 157.103 73.5619 158.267 73.7461 159.52C73.8802 160.392 73.8896 161.278 73.774 162.152L73.762 162.235C73.7422 162.41 73.7105 162.581 73.6787 162.751C73.6708 162.795 73.6589 162.835 73.6549 162.874C73.5726 163.264 73.4706 163.65 73.3492 164.029C73.1517 164.633 72.9116 165.222 72.6307 165.792C74.4092 164.819 76.2153 163.887 77.9974 162.942C79.5694 162.108 81.4906 161.009 83.3523 161.136C83.4455 161.14 83.5384 161.151 83.6302 161.167C83.7214 161.179 83.8088 161.199 83.8961 161.219C83.9017 161.22 83.9073 161.218 83.9119 161.215C84.7622 161.092 85.6256 161.091 86.4762 161.211C86.4167 161.191 86.361 161.171 86.3016 161.152C86.2951 161.149 86.2893 161.146 86.2843 161.141C86.2794 161.136 86.2755 161.13 86.2729 161.124C86.2703 161.118 86.2691 161.111 86.2692 161.104C86.2694 161.097 86.2709 161.09 86.2738 161.084ZM98.8927 172.254C96.6698 170.15 91.1126 165.181 86.1032 162.851C86.1389 162.918 86.1746 162.986 86.2064 163.057C86.2381 163.129 86.2699 163.2 86.2977 163.275C86.3282 163.348 86.3547 163.422 86.377 163.498C86.4048 163.577 86.4246 163.652 86.4445 163.732C86.4644 163.811 86.4802 163.891 86.4961 163.97C86.5122 164.05 86.5241 164.131 86.5318 164.212C86.5439 164.294 86.5518 164.376 86.5557 164.458C86.5831 164.884 86.5442 165.311 86.4405 165.724C86.4326 165.76 86.4246 165.792 86.4168 165.828C86.3706 166.01 86.3136 166.189 86.246 166.364C86.573 166.335 86.9024 166.347 87.2265 166.399C87.3614 166.423 87.4925 166.455 87.6195 166.491C88.1418 166.657 88.6211 166.936 89.0231 167.309C89.4252 167.681 89.7401 168.138 89.9456 168.646C89.9997 168.764 90.0474 168.884 90.0885 169.007C90.2895 169.603 90.3744 170.233 90.3385 170.861C90.5529 170.865 90.7673 170.869 90.9816 170.877C91.0887 170.881 91.1959 170.885 91.3031 170.893C91.3944 170.897 91.4856 170.901 91.5731 170.909C91.704 170.913 91.831 170.924 91.9581 170.932C92.1367 170.944 92.3153 170.96 92.4939 170.98C92.6726 170.996 92.8552 171.016 93.0338 171.036C93.2124 171.055 93.391 171.079 93.5696 171.103C95.375 171.361 97.1594 171.75 98.9086 172.266C98.9046 172.262 98.8967 172.258 98.8927 172.254Z" fill="#CDDCF4"/>
<path d="M37.5166 105.433C35.5274 108.717 30.1886 109.193 30.1886 109.193C28.7723 106.523 27.7473 104.208 27.7473 104.208C29.4452 104.142 31.1353 103.942 32.802 103.611C33.3004 103.514 33.7849 103.402 34.2508 103.29C35.425 104.008 36.4964 104.72 37.5166 105.433Z" fill="#CDDCF4"/>
<path fill-rule="evenodd" clip-rule="evenodd" d="M47.0271 166.86C46.3656 166.646 45.9071 166.522 45.143 166.345C43.0536 153.746 40.2713 141.271 36.8086 128.978C37.3629 128.899 37.9173 128.819 38.4717 128.74C42.1144 141.256 44.9718 153.988 47.0271 166.86Z" fill="#03002F"/>
<path fill-rule="evenodd" clip-rule="evenodd" d="M39.6702 154.724C39.2312 154.741 38.8079 154.892 38.4574 155.157C38.1068 155.422 37.8458 155.788 37.7096 156.205C37.5733 156.623 37.5682 157.072 37.6951 157.493C37.822 157.913 38.0748 158.285 38.4193 158.557C38.7639 158.83 39.1837 158.99 39.6222 159.017C40.0606 159.044 40.4968 158.935 40.8718 158.707C41.2468 158.478 41.5427 158.14 41.7197 157.738C41.8966 157.335 41.9461 156.889 41.8614 156.458C41.7977 155.939 41.5319 155.466 41.1217 155.141C40.7115 154.817 40.19 154.667 39.6702 154.724Z" fill="#03002F"/>
<path fill-rule="evenodd" clip-rule="evenodd" d="M36.0122 139.387C35.5732 139.404 35.15 139.555 34.7994 139.82C34.4489 140.084 34.1879 140.45 34.0516 140.868C33.9153 141.285 33.9103 141.735 34.0372 142.155C34.1641 142.576 34.4168 142.948 34.7614 143.22C35.1059 143.493 35.5257 143.653 35.9642 143.68C36.4027 143.706 36.8388 143.598 37.2139 143.369C37.5889 143.14 37.8848 142.802 38.0617 142.4C38.2387 141.998 38.2881 141.551 38.2035 141.12C38.1397 140.601 37.8739 140.128 37.4637 139.804C37.0536 139.479 36.532 139.33 36.0122 139.387Z" fill="#03002F"/>
<path fill-rule="evenodd" clip-rule="evenodd" d="M21.3046 118.058C13.6039 114.849 11.447 116.6 11.447 116.6C7.03991 122.372 -1.20601 128.782 -1.71851 129.178C5.30679 123.113 9.31329 113.148 11.6101 113.148C13.3848 113.148 18.887 116.521 21.3046 118.058Z" fill="#CDDCF4"/>
<path d="M19.4121 218.761C19.3842 219.204 19.3515 219.646 19.3143 220.089C19.249 220.876 19.1746 221.659 19.0766 222.446C19.0486 222.702 19.0161 222.954 18.9836 223.21C18.2707 228.852 16.808 234.475 14.0267 239.325C12.5719 241.878 10.627 244.119 8.30377 245.918C5.9805 247.718 3.3246 249.041 0.488602 249.811C-8.99637 249.108 -16.1195 240.023 -22.3388 232.914C-29.6762 224.533 -37.4795 216.409 -43.3121 206.844C-46.4847 201.641 -48.7349 196.05 -50.9755 190.404C-53.2771 184.599 -55.7181 178.836 -57.847 172.971C-59.2869 169.083 -59.8562 164.926 -59.5149 160.793C-59.5055 160.658 -59.4917 160.523 -59.4823 160.393C-59.28 158.278 -58.9155 156.181 -58.392 154.122C-58.2151 153.395 -58.0381 152.669 -57.8657 151.942C-57.8615 151.935 -57.8599 151.927 -57.8611 151.919C-56.6095 147.235 -55.0692 142.632 -53.2491 138.138C-52.6295 136.615 -51.9864 135.106 -51.3062 133.615C-49.6245 129.892 -47.7752 126.249 -45.8323 122.653C-45.3339 121.721 -44.8262 120.79 -44.3183 119.853C-44.3183 119.853 -39.1798 109.6 -29.9558 101.605C-29.1834 101.321 -28.3571 101.215 -27.538 101.293C-19.3152 102.039 -30.1933 101.889 -23.6618 106.492C-23.6618 106.492 -12.9376 113.555 -6.67637 124.349C-5.62971 126.14 -4.73971 128.018 -4.0163 129.963C-5.47802 127.802 -7.11732 125.767 -8.91717 123.878C-12.4741 120.154 -17.8444 115.571 -23.4074 117.369C-25.5743 118.07 -27.3014 119.661 -28.8255 121.292C-30.524 123.044 -32.1166 124.896 -33.5946 126.837C-35.4683 129.396 -37.0804 132.132 -38.7873 134.802L-38.8376 134.88C-40.9647 138.202 -43.0644 141.541 -45.1366 144.897C-45.2461 145.074 -45.475 145.663 -45.6695 145.76C-45.6695 145.76 -38.3971 141.758 -29.229 145.876C-29.0286 145.965 -28.8282 146.058 -28.6233 146.156C-32.8362 145.38 -37.1814 145.778 -41.1832 147.307C-47.1135 149.501 -53.6636 154.295 -54.8517 160.956C-54.86 160.985 -54.8663 161.015 -54.8703 161.045C-54.8794 161.084 -54.8758 161.124 -54.8599 161.161C-54.8441 161.198 -54.8169 161.228 -54.7824 161.248C-54.7478 161.268 -54.7078 161.276 -54.6683 161.271C-54.6287 161.267 -54.5917 161.249 -54.5628 161.222C-51.311 158.194 -48.3994 154.97 -44.8076 152.543C-44.407 157.467 -42.9628 175.766 -43.2237 180.085C-43.531 185.084 -35.127 190.278 -33.4498 196.39C-31.7679 202.503 -11.6053 206.728 -7.32854 204.897C-18.6351 213.45 -28.4044 210.599 -28.4044 210.599C-28.4044 210.599 -17.7127 225.726 -9.30847 225.423C-0.904228 225.116 4.01989 230.464 11.8698 227.254C16.2534 225.465 18.3871 221.719 19.4121 218.761Z" fill="#CDDCF4"/>
<mask id="mask0_1717_1754" style="mask-type:luminance" maskUnits="userSpaceOnUse" x="-101" y="29" width="251" height="259">
<path d="M147.85 173.435C141.764 196.558 113.004 212.897 55.4808 245.578C-0.126228 277.168 -27.9289 292.965 -50.3351 286.615C-54.7323 285.369 -58.9599 283.587 -62.923 281.31C-67.2676 278.815 -95.2043 269.808 -98.7693 266.211C-105.837 259.08 -93.6432 255.645 -95.9452 241.448C-99.0056 222.573 -91.3095 195.645 -91.3095 158.869C-91.3095 94.4314 -91.3095 62.2125 -74.8456 45.6015C-68.0583 38.7455 -59.6156 33.7585 -50.3351 31.1234C-27.9289 24.7741 -0.126266 40.5697 55.4807 72.1612C113.004 104.84 141.764 121.18 147.85 144.303C150.362 153.851 150.362 163.887 147.85 173.435Z" fill="white"/>
</mask>
<g mask="url(#mask0_1717_1754)">
<path d="M-25.3979 292.17L-89.1955 267.573L-89.6655 265.428L-47.503 205.468L13.896 226.139L13.4929 228.382L-25.3979 292.17Z" fill="#0067AB"/>
<g style="mix-blend-mode:multiply">
<path d="M-89.2599 267.734C-89.2863 267.724 -89.3097 267.707 -89.3281 267.685C-89.3465 267.664 -89.3593 267.638 -89.3654 267.61L-89.8353 265.466C-89.8405 265.442 -89.8407 265.418 -89.8359 265.394C-89.8312 265.371 -89.8215 265.348 -89.8077 265.328L-47.6455 205.368C-47.6239 205.337 -47.5929 205.314 -47.5572 205.303C-47.5216 205.291 -47.4831 205.291 -47.4475 205.303L13.9519 225.974C13.9921 225.986 14.0262 226.013 14.0476 226.05C14.069 226.086 14.0762 226.129 14.0678 226.17L13.6645 228.413C13.6607 228.434 13.653 228.454 13.6418 228.473L-25.2488 292.26C-25.27 292.295 -25.3028 292.322 -25.3414 292.335C-25.38 292.348 -25.422 292.347 -25.4601 292.332L-89.2578 267.735L-89.2599 267.734ZM-89.4787 265.466L-89.0452 267.444L-25.4704 291.955L13.3275 228.319L13.6984 226.256L-47.4354 205.675L-89.4787 265.466Z" fill="#263B76"/>
</g>
<g style="mix-blend-mode:multiply">
<path d="M-25.3979 292.17L-25.5226 291.082L-89.6655 265.428L-47.503 205.468L13.896 226.139L13.4929 228.382L-25.3979 292.17Z" fill="#0067AB"/>
</g>
<path d="M-25.5226 291.082L-89.6655 265.429L-47.973 203.324L13.896 226.139L-25.5226 291.082Z" fill="#064782"/>
<g style="mix-blend-mode:multiply">
<path d="M-25.5872 291.243L-89.7299 265.59C-89.754 265.58 -89.7756 265.565 -89.7932 265.546C-89.8108 265.527 -89.8239 265.505 -89.8316 265.48C-89.8393 265.455 -89.8413 265.429 -89.8375 265.403C-89.8337 265.377 -89.8243 265.353 -89.8098 265.331L-48.1176 203.227C-48.0958 203.194 -48.0638 203.17 -48.0267 203.158C-47.9895 203.146 -47.9494 203.147 -47.9128 203.16L13.9566 225.975C13.9805 225.984 14.0022 225.999 14.0201 226.017C14.0381 226.035 14.052 226.057 14.0608 226.081C14.0692 226.106 14.0722 226.131 14.0695 226.157C14.0668 226.182 14.0585 226.207 14.0452 226.229L-25.3736 291.172C-25.395 291.207 -25.4282 291.234 -25.4673 291.247C-25.5064 291.26 -25.5489 291.259 -25.5872 291.243ZM-89.4006 265.347L-25.5948 290.865L13.6378 226.229L-47.9048 203.534L-89.4006 265.347Z" fill="#263B76"/>
</g>
<path d="M-30.3005 284.859L-26.0199 289.369L11.5603 226.24C11.5603 226.24 12.3375 219.874 14.1649 217.036L-46.3501 193.526L-30.3005 284.859Z" fill="#CACAC2"/>
<path d="M-26.0846 289.531C-26.1079 289.522 -26.1289 289.508 -26.1462 289.489L-30.4268 284.979C-30.4503 284.955 -30.466 284.923 -30.4719 284.89L-46.5215 193.556C-46.5269 193.526 -46.5241 193.495 -46.5133 193.466C-46.5026 193.437 -46.4844 193.411 -46.4605 193.392C-46.4366 193.372 -46.408 193.359 -46.3775 193.354C-46.347 193.349 -46.3157 193.353 -46.287 193.364L14.228 216.874L14.2296 216.875C14.2534 216.884 14.2749 216.899 14.2924 216.918C14.3099 216.936 14.323 216.959 14.3308 216.983C14.3386 217.008 14.3409 217.034 14.3376 217.059C14.3342 217.085 14.3253 217.109 14.3114 217.131C12.5266 219.903 11.7409 226.198 11.7332 226.261C11.7303 226.285 11.7223 226.308 11.7099 226.329L-25.8703 289.459C-25.8915 289.494 -25.9248 289.521 -25.964 289.535C-26.0033 289.548 -26.0461 289.547 -26.0846 289.531ZM-30.1381 284.778L-26.0519 289.083L11.392 226.183C11.4627 225.62 12.2097 219.95 13.9064 217.123L-46.125 193.801L-30.1381 284.778Z" fill="#BAB8A9"/>
<g style="mix-blend-mode:multiply" opacity="0.61">
<path d="M-30.3005 284.859L-26.6443 285.739L12.0019 223.552C12.2586 221.253 12.9955 219.033 14.1649 217.036L-46.3501 193.526L-30.3005 284.859Z" fill="#C8C8C1"/>
</g>
<path d="M-24.5719 280.49L-88.0425 255.631L-88.5125 253.487L-46.3505 193.526L15.049 214.197L14.9629 216.149L-24.5719 280.49Z" fill="#0067AB"/>
<g style="mix-blend-mode:multiply">
<path d="M-88.1071 255.793C-88.1334 255.782 -88.1568 255.765 -88.1752 255.743C-88.1936 255.722 -88.2064 255.696 -88.2125 255.668L-88.6825 253.524C-88.6877 253.5 -88.6879 253.476 -88.6831 253.452C-88.6783 253.429 -88.6687 253.406 -88.6548 253.387L-46.4926 193.426C-46.471 193.395 -46.4401 193.372 -46.4044 193.361C-46.3687 193.349 -46.3302 193.349 -46.2946 193.361L15.1048 214.032C15.1404 214.044 15.171 214.068 15.1923 214.099C15.2136 214.13 15.2244 214.167 15.2232 214.205L15.1367 216.157C15.1355 216.187 15.1266 216.216 15.1111 216.241L-24.4236 280.581C-24.445 280.616 -24.4779 280.642 -24.5166 280.655C-24.5553 280.668 -24.5973 280.667 -24.6354 280.652L-88.1058 255.793L-88.1071 255.793ZM-88.3259 253.524L-87.8922 255.503L-24.6441 280.275L14.7908 216.097L14.8694 214.32L-46.2825 193.733L-88.3259 253.524Z" fill="#263B76"/>
</g>
<g style="mix-blend-mode:multiply">
<path d="M-24.5719 280.49L-88.0425 255.631L-24.3695 279.14L-46.3505 193.526L15.049 214.197L14.9629 216.149L-24.5719 280.49Z" fill="#931E18"/>
</g>
<path d="M15.0521 214.195L-0.612671 240.005L-5.2547 247.65L-10.9279 256.996L-20.3299 272.485L-24.371 279.139L-68.6742 261.422L-81.9131 256.129L-88.2781 253.584L-88.5105 253.488L-46.8202 191.383L-44.9159 192.086L-41.6345 193.293L2.26052 209.48L15.0521 214.195Z" fill="#0A4BB8"/>
<g style="mix-blend-mode:multiply">
<path d="M-24.4343 279.302L-88.5771 253.649C-88.6012 253.639 -88.6228 253.624 -88.6404 253.605C-88.658 253.586 -88.6711 253.563 -88.6788 253.538C-88.6864 253.514 -88.6884 253.487 -88.6847 253.462C-88.6809 253.436 -88.6715 253.411 -88.657 253.39L-46.9648 191.285C-46.943 191.253 -46.911 191.229 -46.8739 191.217C-46.8367 191.204 -46.7966 191.205 -46.7599 191.219L15.1095 214.034C15.1336 214.043 15.1554 214.057 15.1734 214.075C15.1914 214.093 15.2051 214.115 15.2136 214.14C15.222 214.164 15.225 214.19 15.2224 214.215C15.2197 214.241 15.2114 214.265 15.1981 214.287L-24.2208 279.231C-24.2422 279.266 -24.2754 279.292 -24.3145 279.305C-24.3536 279.318 -24.396 279.317 -24.4343 279.302ZM-88.2479 253.405L-24.442 278.924L14.7907 214.287L-46.7519 191.593L-88.2479 253.405Z" fill="#263B76"/>
</g>
<g style="mix-blend-mode:screen">
<path d="M15.0521 214.195L-0.612889 240.005L-5.25462 247.651L-5.43028 247.605C-5.43028 247.605 -11.0092 219.382 -6.97389 206.075L15.0521 214.195Z" fill="#0067AB"/>
</g>
<g style="mix-blend-mode:multiply" opacity="0.62">
<path d="M15.0521 214.195L-4.59747 246.229C-4.84688 246.383 5.71768 217.596 5.71768 217.596C2.8158 215.6 -38.7449 198.717 -41.6708 198.957C-44.9246 199.224 -77.619 240.867 -81.7849 247.203C-74.9442 236.831 -47.6271 195.092 -46.1251 193.352L-46.1171 193.342C-45.9053 193.109 -45.6276 192.945 -45.3206 192.873C-45.0137 192.8 -44.6921 192.823 -44.3982 192.937L15.0521 214.195Z" fill="#0067AB"/>
</g>
</g>
</g>
<defs>
<linearGradient id="paint0_linear_1717_1754" x1="147.528" y1="107.774" x2="95.7113" y2="167.603" gradientUnits="userSpaceOnUse">
<stop offset="0.32997" stop-color="white"/>
<stop offset="0.42907" stop-color="#FEFFFE" stop-opacity="0.98764"/>
<stop offset="0.50759" stop-color="#FCFEFC" stop-opacity="0.9487"/>
<stop offset="0.57905" stop-color="#F7FDF9" stop-opacity="0.88299"/>
<stop offset="0.64634" stop-color="#F1FCF4" stop-opacity="0.79036"/>
<stop offset="0.71076" stop-color="#EAFAEE" stop-opacity="0.67059"/>
<stop offset="0.77294" stop-color="#E0F8E7" stop-opacity="0.52365"/>
<stop offset="0.83338" stop-color="#D5F5DE" stop-opacity="0.34931"/>
<stop offset="0.89095" stop-color="#C8F2D4" stop-opacity="0.15266"/>
<stop offset="0.93039" stop-color="#BEF0CC" stop-opacity="0"/>
</linearGradient>
<linearGradient id="paint1_linear_1717_1754" x1="-121.514" y1="69.2504" x2="-23.951" y2="111.781" gradientUnits="userSpaceOnUse">
<stop offset="0.18393" stop-color="white"/>
<stop offset="0.27585" stop-color="#FEFFFE" stop-opacity="0.98838"/>
<stop offset="0.34376" stop-color="#FCFEFD" stop-opacity="0.95126"/>
<stop offset="0.40398" stop-color="#F8FDF9" stop-opacity="0.88839"/>
<stop offset="0.45973" stop-color="#F2FCF5" stop-opacity="0.79963"/>
<stop offset="0.51239" stop-color="#EBFAEF" stop-opacity="0.68487"/>
<stop offset="0.56278" stop-color="#E1F8E8" stop-opacity="0.54385"/>
<stop offset="0.61134" stop-color="#D6F6DF" stop-opacity="0.37651"/>
<stop offset="0.65721" stop-color="#CAF3D6" stop-opacity="0.18802"/>
<stop offset="0.69682" stop-color="#BEF0CC" stop-opacity="0"/>
</linearGradient>
</defs>
</svg>
