<svg width="18" height="18" viewBox="0 0 18 18" fill="none" xmlns="http://www.w3.org/2000/svg">
<path d="M5.25 5.25H5.25673M9.74325 5.25H9.75" stroke="white" stroke-width="2" stroke-linecap="round" stroke-linejoin="round"/>
<path d="M13.4932 10.875H13.5M10.5 10.875H10.5067" stroke="white" stroke-width="2" stroke-linecap="round" stroke-linejoin="round"/>
<path d="M7.5 12C7.5 14.071 9.51473 15.75 12 15.75C12.6804 15.75 13.3255 15.6242 13.9037 15.3989C14.045 15.3439 14.1984 15.3241 14.3475 15.3517L16.5 15.75L16.0112 14.2276C15.9398 14.0053 15.9806 13.765 16.0931 13.5604C16.3544 13.0852 16.5 12.5568 16.5 12C16.5 9.92895 14.4853 8.25 12 8.25C9.51473 8.25 7.5 9.92895 7.5 12Z" stroke="white" stroke-width="1.5" stroke-linejoin="round"/>
<path d="M13.4048 8.43637C13.4674 8.13255 13.5 7.81957 13.5 7.5C13.5 4.60051 10.8137 2.25 7.5 2.25C4.18629 2.25 1.5 4.60051 1.5 7.5C1.5 8.3343 1.7224 9.12307 2.11815 9.82357C2.22826 10.0185 2.26478 10.249 2.19932 10.463L1.5 12.75L4.43561 12.1796C4.59137 12.1493 4.75216 12.1705 4.89839 12.2321C5.71171 12.5747 6.63103 12.7618 7.58985 12.7494" stroke="white" stroke-width="1.5" stroke-linejoin="round"/>
</svg>
