<svg width="18" height="18" viewBox="0 0 18 18" fill="none" xmlns="http://www.w3.org/2000/svg">
<path d="M15.75 8.25V7.5C15.75 4.67157 15.75 3.25736 14.8196 2.37868C13.8893 1.5 12.3919 1.5 9.39705 1.5H8.60295C5.60814 1.5 4.11073 1.5 3.18037 2.37868C2.25 3.25736 2.25 4.67157 2.25 7.5V10.5C2.25 13.3284 2.25 14.7427 3.18037 15.6213C4.11073 16.5 5.60813 16.5 8.60295 16.5H9" stroke="white" stroke-width="1.5" stroke-linecap="round"/>
<path d="M6 5.25H12" stroke="white" stroke-width="1.5" stroke-linecap="round"/>
<path d="M6 9H9.75" stroke="white" stroke-width="1.5" stroke-linecap="round"/>
<path d="M15.75 15.4853V12.75C15.75 11.678 14.7427 10.5 13.5 10.5C12.2573 10.5 11.25 11.678 11.25 12.75V15.375C11.25 15.9598 11.7995 16.5 12.4773 16.5C13.1551 16.5 13.7045 15.9598 13.7045 15.375V13.3235" stroke="white" stroke-width="1.5" stroke-linecap="round"/>
</svg>
