<svg width="18" height="18" viewBox="0 0 18 18" fill="none" xmlns="http://www.w3.org/2000/svg">
<path d="M1.875 9C1.875 5.64124 1.875 3.96187 2.91843 2.91843C3.96187 1.875 5.64124 1.875 9 1.875C12.3587 1.875 14.0381 1.875 15.0816 2.91843C16.125 3.96187 16.125 5.64124 16.125 9C16.125 12.3587 16.125 14.0381 15.0816 15.0816C14.0381 16.125 12.3587 16.125 9 16.125C5.64124 16.125 3.96187 16.125 2.91843 15.0816C1.875 14.0381 1.875 12.3587 1.875 9Z" stroke="white" stroke-width="1.5"/>
<path d="M12.375 6.75C12.9963 6.75 13.5 6.24632 13.5 5.625C13.5 5.00368 12.9963 4.5 12.375 4.5C11.7537 4.5 11.25 5.00368 11.25 5.625C11.25 6.24632 11.7537 6.75 12.375 6.75Z" stroke="white" stroke-width="1.5"/>
<path d="M12 16.5C11.5354 14.8312 10.4509 13.3366 8.90738 12.2506C7.24321 11.0797 5.15372 10.4599 3.01177 10.502C2.75743 10.5014 2.50332 10.5095 2.25 10.5263" stroke="white" stroke-width="1.5" stroke-linejoin="round"/>
<path d="M9.75 13.5C11.0261 12.5049 12.4009 11.9946 13.7896 12C14.5771 11.9992 15.3609 12.1662 16.125 12.4962" stroke="white" stroke-width="1.5" stroke-linejoin="round"/>
</svg>
