<svg width="16" height="16" viewBox="0 0 16 16" fill="none" xmlns="http://www.w3.org/2000/svg">
<path d="M9.1519 2.29579L10.3251 4.66159C10.4851 4.99092 10.9117 5.30681 11.2717 5.36729L13.3981 5.72351C14.758 5.95203 15.078 6.94674 14.098 7.92801L12.4449 9.59481C12.1649 9.87707 12.0116 10.4215 12.0982 10.8113L12.5716 12.8747C12.9448 14.5079 12.0849 15.1397 10.6518 14.2861L8.65863 13.0965C8.2987 12.8814 7.70543 12.8814 7.33876 13.0965L5.34567 14.2861C3.91916 15.1397 3.0526 14.5011 3.42589 12.8747L3.89917 10.8113C3.98582 10.4215 3.83251 9.87707 3.55254 9.59481L1.89939 7.92801C0.926162 6.94674 1.23946 5.95203 2.59931 5.72351L4.72574 5.36729C5.07904 5.30681 5.50566 4.99092 5.66564 4.66159L6.83883 2.29579C7.47876 1.01208 8.51863 1.01208 9.1519 2.29579Z" fill="#3AD77E"/>
</svg>
