<svg width="16" height="16" viewBox="0 0 16 16" fill="none" xmlns="http://www.w3.org/2000/svg">
<path d="M8.66665 10C7.13885 14 2.86109 10 1.33331 14" stroke="#03002F" stroke-width="1.2" stroke-linecap="round" stroke-linejoin="round"/>
<path d="M10.3333 10H11.3342C12.9055 10 13.6912 10 14.1794 9.51187C14.6675 9.02367 14.6675 8.238 14.6675 6.66667V5.33333C14.6675 3.76199 14.6675 2.97631 14.1794 2.48815C13.6912 2 12.9055 2 11.3342 2H8.66753C7.0962 2 6.3105 2 5.82235 2.48815C5.40874 2.90176 5.34558 3.52896 5.33594 4.66667" stroke="#03002F" stroke-width="1.2" stroke-linecap="round" stroke-linejoin="round"/>
<path d="M5.00004 10.0003C5.92052 10.0003 6.66671 9.25413 6.66671 8.33366C6.66671 7.41318 5.92052 6.66699 5.00004 6.66699C4.07957 6.66699 3.33337 7.41318 3.33337 8.33366C3.33337 9.25413 4.07957 10.0003 5.00004 10.0003Z" stroke="#03002F" stroke-width="1.2" stroke-linecap="round" stroke-linejoin="round"/>
<path d="M8 4.66699H12M12 7.33366H10" stroke="#0A4BB8" stroke-width="1.2" stroke-linecap="round" stroke-linejoin="round"/>
</svg>
