<svg width="18" height="18" viewBox="0 0 18 18" fill="none" xmlns="http://www.w3.org/2000/svg">
<path d="M15 11.25C15 12.6479 15 13.3467 14.7716 13.898C14.4671 14.6331 13.8831 15.2171 13.148 15.5216C12.5967 15.75 11.8977 15.75 10.5 15.75H8.24997C5.42156 15.75 4.00733 15.75 3.12865 14.8713C2.24996 13.9926 2.24998 12.5784 2.25 9.74992L2.25005 5.24987C2.25006 3.59308 3.59316 2.25 5.24995 2.25" stroke="#130404" stroke-width="1.5" stroke-linecap="round" stroke-linejoin="round"/>
<path d="M11.25 9C13.3211 9 15 7.32107 15 5.25C15 3.17893 13.3211 1.5 11.25 1.5C9.17893 1.5 7.5 3.17893 7.5 5.25C7.5 7.32107 9.17893 9 11.25 9Z" stroke="#0A4BB8" stroke-width="1.5"/>
<path d="M12.0833 6.08333L11.25 5.66667V4" stroke="#0A4BB8" stroke-width="1.5" stroke-linecap="round" stroke-linejoin="round"/>
</svg>
